<svg xmlns="http://www.w3.org/2000/svg" height="1744" width="613.8575439453125" viewBox="4.587634086608887 -1794 613.8575439453125 1744"><g class="layer links"><g class="link"><path fill="#E2E3E5" d="M 139.66973098479986 -1644 C 139.66973098479986 -1621.5530362455218 331.2285556198757 -1621.5530362455218 331.2285556198757 -1594 L 323.20795570659607 -1594 C 323.20795570659607 -1616.4469637544782 131.64913107152023 -1616.4469637544782 131.64913107152023 -1644 Z"/><text class="text-[12px] font-bold" fill="#1A1B1D" x="135.65943102816004" y="-1618" text-anchor="middle" font-family="Helvetica Neue, Helvetica, Arial, sans-serif">1 estimated row</text></g><g class="link"><path fill="#E2E3E5" d="M 535.9116376368562 -1658 C 535.9116376368562 -1605.6281672842374 428.30495846244935 -1605.6281672842374 428.30495846244935 -1594 L 331.2285556198757 -1594 C 331.2285556198757 -1646.3718327157626 438.8352347942825 -1646.3718327157626 438.8352347942825 -1658 Z"/><text class="text-[12px] font-bold" fill="#1A1B1D" x="487.3734362155693" y="-1632" text-anchor="middle" font-family="Helvetica Neue, Helvetica, Arial, sans-serif">56.730 estimated rows</text></g><g class="link"><path fill="#E2E3E5" d="M 424.29465850580954 -1548 C 424.29465850580954 -1507.0845056908104 346.0135656955671 -1507.0845056908104 346.0135656955671 -1498 L 248.93716285299342 -1498 C 248.93716285299342 -1538.9154943091896 327.2182556632359 -1538.9154943091896 327.2182556632359 -1548 Z"/><text class="text-[12px] font-bold" fill="#1A1B1D" x="375.7564570845227" y="-1522" text-anchor="middle" font-family="Helvetica Neue, Helvetica, Arial, sans-serif">56.730 estimated rows</text></g><g class="link"><path fill="#E2E3E5" d="M 339.3596330529561 -1404 C 339.3596330529561 -1363.0845056908104 265.5649165715362 -1363.0845056908104 265.5649165715362 -1354 L 181.7963790141846 -1354 C 181.7963790141846 -1394.9154943091896 255.59109549560452 -1394.9154943091896 255.59109549560452 -1404 Z"/><text class="text-[12px] font-bold" fill="#1A1B1D" x="297.4753642742803" y="-1378" text-anchor="middle" font-family="Helvetica Neue, Helvetica, Arial, sans-serif">12.257 estimated rows</text></g><g class="link"><path fill="#E2E3E5" d="M 245.1616562467373 -1176 C 245.1616562467373 -1137.3247652878667 188.57582326199778 -1137.3247652878667 188.57582326199778 -1126 L 145.613806354244 -1126 C 145.613806354244 -1164.6752347121333 202.19963933898347 -1164.6752347121333 202.19963933898347 -1176 Z"/><text class="text-[12px] font-bold" fill="#1A1B1D" x="223.68064779286038" y="-1150" text-anchor="middle" font-family="Helvetica Neue, Helvetica, Arial, sans-serif">111 estimated rows</text></g><g class="link"><path fill="#E2E3E5" d="M 188.57582326199778 -1032 C 188.57582326199778 -1020.6752347121333 320.2667964286388 -1020.6752347121333 320.2667964286388 -982 L 277.304779520885 -982 C 277.304779520885 -993.3247652878667 145.61380635424396 -993.3247652878667 145.61380635424396 -1032 Z"/><text class="text-[12px] font-bold" fill="#1A1B1D" x="167.09481480812087" y="-1006" text-anchor="middle" font-family="Helvetica Neue, Helvetica, Arial, sans-serif">111 estimated rows</text></g><g class="link"><path fill="#E2E3E5" d="M 521.5472681346168 -1032 C 521.5472681346168 -991.0845056908105 409.17170308163065 -991.0845056908105 409.17170308163065 -982 L 320.2667964286388 -982 C 320.2667964286388 -1022.9154943091895 432.64236148162496 -1022.9154943091895 432.64236148162496 -1032 Z"/><text class="text-[12px] font-bold" fill="#1A1B1D" x="477.0948148081209" y="-1006" text-anchor="middle" font-family="Helvetica Neue, Helvetica, Arial, sans-serif">22.142 estimated rows</text></g><g class="link"><path fill="#E2E3E5" d="M 387.6906946277537 -922 C 387.6906946277537 -881.0845056908105 361.28077432083694 -881.0845056908105 361.28077432083694 -872 L 272.3758676678451 -872 C 272.3758676678451 -912.9154943091895 298.7857879747619 -912.9154943091895 298.7857879747619 -922 Z"/><text class="text-[12px] font-bold" fill="#1A1B1D" x="343.2382413012578" y="-896" text-anchor="middle" font-family="Helvetica Neue, Helvetica, Arial, sans-serif">22.142 estimated rows</text></g><g class="link"><path fill="#E2E3E5" d="M 375.4729209178786 -778 C 375.4729209178786 -737.0845056908105 353.3842224137449 -737.0845056908105 353.3842224137449 -728 L 236.0950225666698 -728 C 236.0950225666698 -768.9154943091895 258.1837210708035 -768.9154943091895 258.1837210708035 -778 Z"/><text class="text-[12px] font-bold" fill="#1A1B1D" x="316.828320994341" y="-752" text-anchor="middle" font-family="Helvetica Neue, Helvetica, Arial, sans-serif">581.379 estimated rows</text></g><g class="link"><path fill="#E2E3E5" d="M 339.5822818047009 -634 C 339.5822818047009 -593.0845056908105 321.9056080739042 -593.0845056908105 321.9056080739042 -584 L 232.220289444917 -584 C 232.220289444917 -624.9154943091895 249.89696317571378 -624.9154943091895 249.89696317571378 -634 Z"/><text class="text-[12px] font-bold" fill="#1A1B1D" x="294.73962249020735" y="-608" text-anchor="middle" font-family="Helvetica Neue, Helvetica, Arial, sans-serif">24.224 estimated rows</text></g><g class="link"><path fill="#E2E3E5" d="M 300.0120031234033 -434 C 300.0120031234033 -394.3901782347437 286.77817798523154 -394.3901782347437 286.77817798523154 -384 L 240.88006925724608 -384 C 240.88006925724608 -423.6098217652563 254.11389439541784 -423.6098217652563 254.11389439541784 -434 Z"/><text class="text-[12px] font-bold" fill="#1A1B1D" x="277.0629487594106" y="-408" text-anchor="middle" font-family="Helvetica Neue, Helvetica, Arial, sans-serif">156 estimated rows</text></g><g class="link"><path fill="#E2E3E5" d="M 276.12460991046987 -276 C 276.12460991046987 -243.17245031740103 267.34815092320764 -243.17245031740103 267.34815092320764 -226 L 242.75717834474563 -226 C 242.75717834474563 -258.82754968259894 251.53363733200786 -258.82754968259894 251.53363733200786 -276 Z"/><text class="text-[12px] font-bold" fill="#1A1B1D" x="263.82912362123886" y="-250" text-anchor="middle" font-family="Helvetica Neue, Helvetica, Arial, sans-serif">12 estimated rows</text></g><g class="link"><path fill="#E2E3E5" d="M 267.34815092320764 -132 C 267.34815092320764 -99.17245031740103 262.99756951371955 -99.17245031740103 262.99756951371955 -82 L 238.40659693525748 -82 C 238.40659693525748 -114.82754968259897 242.75717834474563 -114.82754968259897 242.75717834474563 -132 Z"/><text class="text-[12px] font-bold" fill="#1A1B1D" x="255.05266463397663" y="-106" text-anchor="middle" font-family="Helvetica Neue, Helvetica, Arial, sans-serif">12 estimated rows</text></g></g><g class="layer operators"><g class="operator" transform="translate(120.70207977294922, -82)"><rect class="background" width="260" height="32" rx="8" ry="8" fill="rgb(255, 255, 255)"/><g class="header" pointer-events="all"><path class="banner" d="M 252 0 A 8 8 0 0 1 260 8 L 260 18 A 8 8 0 0 1 259.7459666924148 26 L 0.25403330758516596 26 A 8 8 0 0 1 0 18 L 0 8 A 8 8 0 0 1 8 0 Z" style="fill: rgb(247, 243, 255);"/><text class="title text-[12px] font-bold" x="26" y="17" fill="#000000" font-family="Helvetica Neue, Helvetica, Arial, sans-serif">Result</text></g><path class="cost" fill="#BB2D00" d="M 252 32 A 8 8 0 0 1 252 32 L 8 32 A 8 8 0 0 1 8 32 Z"/><rect class="b-outline" width="260" rx="8" ry="8" fill="none" stroke-width="1" style="stroke: rgb(187, 190, 195);" height="32"/></g><g class="operator" transform="translate(125.05266571044922, -226)"><rect class="background" width="260" height="94" rx="8" ry="8" fill="rgb(255, 255, 255)"/><g class="header" pointer-events="all"><path class="banner" d="M 252 0 A 8 8 0 0 1 260 8 L 260 18 A 8 8 0 0 1 260 26 L 0 26 A 8 8 0 0 1 0 18 L 0 8 A 8 8 0 0 1 8 0 Z" style="fill: rgb(247, 243, 255);"/><path class="expand" fill="#000000" d="M -5 -10 L 8.66 0 L -5 10 Z" transform="translate(13, 13) rotate(90) scale(0.5,0.5)"/><text class="title text-[12px] font-bold" x="26" y="17" fill="#000000" font-family="Helvetica Neue, Helvetica, Arial, sans-serif">ProduceResults@neo4j</text></g><g class="detail identifiers text-[10px] font-mono" transform="translate(0, 40)"><text font-size="10" x="3" text-anchor="start" fill="#1A1B1D" font-family="Helvetica Neue, Helvetica, Arial, sans-serif">day_period, total_transactions, monthly_</text></g><g class="detail identifiers text-[10px] font-mono" transform="translate(0, 54)"><text font-size="10" x="3" text-anchor="start" fill="#1A1B1D" font-family="Helvetica Neue, Helvetica, Arial, sans-serif">avg_fraud_transactions</text></g><g class="detail padding text-[10px]" transform="translate(0, 68)"><text font-size="10" x="3" text-anchor="start" fill="#1A1B1D" font-family="Helvetica Neue, Helvetica, Arial, sans-serif"/><path class="divider" visibility="visible" d="M 0 -6 L 260 -6" stroke="#DFE1E3"/></g><g class="detail expression text-[10px] font-mono" transform="translate(0, 74)"><text font-size="10" x="3" text-anchor="start" fill="#1A1B1D" font-family="Helvetica Neue, Helvetica, Arial, sans-serif">day_period, total_transactions, monthly_</text></g><g class="detail expression text-[10px] font-mono" transform="translate(0, 88)"><text font-size="10" x="3" text-anchor="start" fill="#1A1B1D" font-family="Helvetica Neue, Helvetica, Arial, sans-serif">avg_fraud_transactions</text></g><path class="cost" fill="#BB2D00" d="M 252 94 A 8 8 0 0 1 252 94 L 8 94 A 8 8 0 0 1 8 94 Z"/><rect class="b-outline" width="260" rx="8" ry="8" fill="none" stroke-width="1" style="stroke: rgb(187, 190, 195);" height="94"/></g><g class="operator" transform="translate(133.82911682128906, -384)"><rect class="background" width="260" height="108" rx="8" ry="8" fill="rgb(255, 255, 255)"/><g class="header" pointer-events="all"><path class="banner" d="M 252 0 A 8 8 0 0 1 260 8 L 260 18 A 8 8 0 0 1 260 26 L 0 26 A 8 8 0 0 1 0 18 L 0 8 A 8 8 0 0 1 8 0 Z" style="fill: rgb(23, 1, 70);"/><path class="expand" fill="#FFFFFF" d="M -5 -10 L 8.66 0 L -5 10 Z" transform="translate(13, 13) rotate(90) scale(0.5,0.5)"/><text class="title text-[12px] font-bold" x="26" y="17" fill="#FFFFFF" font-family="Helvetica Neue, Helvetica, Arial, sans-serif">EagerAggregation@neo4j</text></g><g class="detail identifiers text-[10px] font-mono" transform="translate(0, 40)"><text font-size="10" x="3" text-anchor="start" fill="#1A1B1D" font-family="Helvetica Neue, Helvetica, Arial, sans-serif">day_period, total_transactions, monthly_</text></g><g class="detail identifiers text-[10px] font-mono" transform="translate(0, 54)"><text font-size="10" x="3" text-anchor="start" fill="#1A1B1D" font-family="Helvetica Neue, Helvetica, Arial, sans-serif">avg_fraud_transactions</text></g><g class="detail padding text-[10px]" transform="translate(0, 68)"><text font-size="10" x="3" text-anchor="start" fill="#1A1B1D" font-family="Helvetica Neue, Helvetica, Arial, sans-serif"/><path class="divider" visibility="visible" d="M 0 -6 L 260 -6" stroke="#DFE1E3"/></g><g class="detail expression text-[10px] font-mono" transform="translate(0, 74)"><text font-size="10" x="3" text-anchor="start" fill="#1A1B1D" font-family="Helvetica Neue, Helvetica, Arial, sans-serif">day_period, sum(tx_count) AS total_</text></g><g class="detail expression text-[10px] font-mono" transform="translate(0, 88)"><text font-size="10" x="3" text-anchor="start" fill="#1A1B1D" font-family="Helvetica Neue, Helvetica, Arial, sans-serif">transactions, avg(tx_fraud_count) AS </text></g><g class="detail expression text-[10px] font-mono" transform="translate(0, 102)"><text font-size="10" x="3" text-anchor="start" fill="#1A1B1D" font-family="Helvetica Neue, Helvetica, Arial, sans-serif">monthly_avg_fraud_transactions</text></g><path class="cost" fill="#BB2D00" d="M 252 108 A 8 8 0 0 1 252 108 L 8 108 A 8 8 0 0 1 8 108 Z"/><rect class="b-outline" width="260" rx="8" ry="8" fill="none" stroke-width="1" style="stroke: rgb(187, 190, 195);" height="108"/></g><g class="operator" transform="translate(147.0629425048828, -584)"><rect class="background" width="260" height="150" rx="8" ry="8" fill="rgb(255, 255, 255)"/><g class="header" pointer-events="all"><path class="banner" d="M 252 0 A 8 8 0 0 1 260 8 L 260 18 A 8 8 0 0 1 260 26 L 0 26 A 8 8 0 0 1 0 18 L 0 8 A 8 8 0 0 1 8 0 Z" style="fill: rgb(23, 1, 70);"/><path class="expand" fill="#FFFFFF" d="M -5 -10 L 8.66 0 L -5 10 Z" transform="translate(13, 13) rotate(90) scale(0.5,0.5)"/><text class="title text-[12px] font-bold" x="26" y="17" fill="#FFFFFF" font-family="Helvetica Neue, Helvetica, Arial, sans-serif">EagerAggregation@neo4j</text></g><g class="detail identifiers text-[10px] font-mono" transform="translate(0, 40)"><text font-size="10" x="3" text-anchor="start" fill="#1A1B1D" font-family="Helvetica Neue, Helvetica, Arial, sans-serif">day_period, t, year, tx_fraud_count, tx_</text></g><g class="detail identifiers text-[10px] font-mono" transform="translate(0, 54)"><text font-size="10" x="3" text-anchor="start" fill="#1A1B1D" font-family="Helvetica Neue, Helvetica, Arial, sans-serif">count, month</text></g><g class="detail padding text-[10px]" transform="translate(0, 68)"><text font-size="10" x="3" text-anchor="start" fill="#1A1B1D" font-family="Helvetica Neue, Helvetica, Arial, sans-serif"/><path class="divider" visibility="visible" d="M 0 -6 L 260 -6" stroke="#DFE1E3"/></g><g class="detail expression text-[10px] font-mono" transform="translate(0, 74)"><text font-size="10" x="3" text-anchor="start" fill="#1A1B1D" font-family="Helvetica Neue, Helvetica, Arial, sans-serif">year, month, t, tx_current_month.tx_day_</text></g><g class="detail expression text-[10px] font-mono" transform="translate(0, 88)"><text font-size="10" x="3" text-anchor="start" fill="#1A1B1D" font-family="Helvetica Neue, Helvetica, Arial, sans-serif">period AS day_period, count(tx_current_</text></g><g class="detail expression text-[10px] font-mono" transform="translate(0, 102)"><text font-size="10" x="3" text-anchor="start" fill="#1A1B1D" font-family="Helvetica Neue, Helvetica, Arial, sans-serif">month) AS tx_count, count(CASE
  WHEN tx_</text></g><g class="detail expression text-[10px] font-mono" transform="translate(0, 116)"><text font-size="10" x="3" text-anchor="start" fill="#1A1B1D" font-family="Helvetica Neue, Helvetica, Arial, sans-serif">current_month.tx_amount &gt; tx_amount_fraud_</text></g><g class="detail expression text-[10px] font-mono" transform="translate(0, 130)"><text font-size="10" x="3" text-anchor="start" fill="#1A1B1D" font-family="Helvetica Neue, Helvetica, Arial, sans-serif">limit THEN $autoint_13
  ELSE NULL
END) AS</text></g><g class="detail expression text-[10px] font-mono" transform="translate(0, 144)"><text font-size="10" x="3" text-anchor="start" fill="#1A1B1D" font-family="Helvetica Neue, Helvetica, Arial, sans-serif"> tx_fraud_count</text></g><path class="cost" fill="#BB2D00" d="M 252 150 A 8 8 0 0 1 252 150 L 8 150 A 8 8 0 0 1 8 150 Z"/><rect class="b-outline" width="260" rx="8" ry="8" fill="none" stroke-width="1" style="stroke: rgb(187, 190, 195);" height="150"/></g><g class="operator" transform="translate(164.7396240234375, -728)"><rect class="background" width="260" height="94" rx="8" ry="8" fill="rgb(255, 255, 255)"/><g class="header" pointer-events="all"><path class="banner" d="M 252 0 A 8 8 0 0 1 260 8 L 260 18 A 8 8 0 0 1 260 26 L 0 26 A 8 8 0 0 1 0 18 L 0 8 A 8 8 0 0 1 8 0 Z" style="fill: rgb(75, 40, 148);"/><path class="expand" fill="#FFFFFF" d="M -5 -10 L 8.66 0 L -5 10 Z" transform="translate(13, 13) rotate(90) scale(0.5,0.5)"/><text class="title text-[12px] font-bold" x="26" y="17" fill="#FFFFFF" font-family="Helvetica Neue, Helvetica, Arial, sans-serif">Filter@neo4j</text></g><g class="detail identifiers text-[10px] font-mono" transform="translate(0, 40)"><text font-size="10" x="3" text-anchor="start" fill="#1A1B1D" font-family="Helvetica Neue, Helvetica, Arial, sans-serif">anon_2, t, anon_1, tx_current_month, month</text></g><g class="detail identifiers text-[10px] font-mono" transform="translate(0, 54)"><text font-size="10" x="3" text-anchor="start" fill="#1A1B1D" font-family="Helvetica Neue, Helvetica, Arial, sans-serif">, year, tx_amount_fraud_limit</text></g><g class="detail padding text-[10px]" transform="translate(0, 68)"><text font-size="10" x="3" text-anchor="start" fill="#1A1B1D" font-family="Helvetica Neue, Helvetica, Arial, sans-serif"/><path class="divider" visibility="visible" d="M 0 -6 L 260 -6" stroke="#DFE1E3"/></g><g class="detail expression text-[10px] font-mono" transform="translate(0, 74)"><text font-size="10" x="3" text-anchor="start" fill="#1A1B1D" font-family="Helvetica Neue, Helvetica, Arial, sans-serif">(tx_current_month.tx_date_month = month </text></g><g class="detail expression text-[10px] font-mono" transform="translate(0, 88)"><text font-size="10" x="3" text-anchor="start" fill="#1A1B1D" font-family="Helvetica Neue, Helvetica, Arial, sans-serif">AND tx_current_month.tx_date_year = year)</text></g><path class="cost" fill="#BB2D00" d="M 252 94 A 8 8 0 0 1 252 94 L 8 94 A 8 8 0 0 1 8 94 Z"/><rect class="b-outline" width="260" rx="8" ry="8" fill="none" stroke-width="1" style="stroke: rgb(187, 190, 195);" height="94"/></g><g class="operator" transform="translate(186.8283233642578, -872)"><rect class="background" width="260" height="94" rx="8" ry="8" fill="rgb(255, 255, 255)"/><g class="header" pointer-events="all"><path class="banner" d="M 252 0 A 8 8 0 0 1 260 8 L 260 18 A 8 8 0 0 1 260 26 L 0 26 A 8 8 0 0 1 0 18 L 0 8 A 8 8 0 0 1 8 0 Z" style="fill: rgb(44, 42, 52);"/><path class="expand" fill="#FFFFFF" d="M -5 -10 L 8.66 0 L -5 10 Z" transform="translate(13, 13) rotate(90) scale(0.5,0.5)"/><text class="title text-[12px] font-bold" x="26" y="17" fill="#FFFFFF" font-family="Helvetica Neue, Helvetica, Arial, sans-serif">Expand(Into)@neo4j</text></g><g class="detail identifiers text-[10px] font-mono" transform="translate(0, 40)"><text font-size="10" x="3" text-anchor="start" fill="#1A1B1D" font-family="Helvetica Neue, Helvetica, Arial, sans-serif">anon_2, t, anon_1, tx_current_month, month</text></g><g class="detail identifiers text-[10px] font-mono" transform="translate(0, 54)"><text font-size="10" x="3" text-anchor="start" fill="#1A1B1D" font-family="Helvetica Neue, Helvetica, Arial, sans-serif">, year, tx_amount_fraud_limit</text></g><g class="detail padding text-[10px]" transform="translate(0, 68)"><text font-size="10" x="3" text-anchor="start" fill="#1A1B1D" font-family="Helvetica Neue, Helvetica, Arial, sans-serif"/><path class="divider" visibility="visible" d="M 0 -6 L 260 -6" stroke="#DFE1E3"/></g><g class="detail expression text-[10px] font-mono" transform="translate(0, 74)"><text font-size="10" x="3" text-anchor="start" fill="#1A1B1D" font-family="Helvetica Neue, Helvetica, Arial, sans-serif">(anon_1)-[tx_current_month:Make_</text></g><g class="detail expression text-[10px] font-mono" transform="translate(0, 88)"><text font-size="10" x="3" text-anchor="start" fill="#1A1B1D" font-family="Helvetica Neue, Helvetica, Arial, sans-serif">transaction]-&gt;(t)</text></g><path class="cost" fill="#BB2D00" d="M 252 94 A 8 8 0 0 1 252 94 L 8 94 A 8 8 0 0 1 8 94 Z"/><rect class="b-outline" width="260" rx="8" ry="8" fill="none" stroke-width="1" style="stroke: rgb(187, 190, 195);" height="94"/></g><g class="operator" transform="translate(213.2382354736328, -982)"><rect class="background" width="260" height="60" rx="8" ry="8" fill="rgb(255, 255, 255)"/><g class="header" pointer-events="all"><path class="banner" d="M 252 0 A 8 8 0 0 1 260 8 L 260 18 A 8 8 0 0 1 260 26 L 0 26 A 8 8 0 0 1 0 18 L 0 8 A 8 8 0 0 1 8 0 Z" style="fill: rgb(75, 40, 148);"/><path class="expand" fill="#FFFFFF" d="M -5 -10 L 8.66 0 L -5 10 Z" transform="translate(13, 13) rotate(90) scale(0.5,0.5)"/><text class="title text-[12px] font-bold" x="26" y="17" fill="#FFFFFF" font-family="Helvetica Neue, Helvetica, Arial, sans-serif">Apply@neo4j</text></g><g class="detail identifiers text-[10px] font-mono" transform="translate(0, 40)"><text font-size="10" x="3" text-anchor="start" fill="#1A1B1D" font-family="Helvetica Neue, Helvetica, Arial, sans-serif">anon_2, t, anon_1, month, year, tx_amount_</text></g><g class="detail identifiers text-[10px] font-mono" transform="translate(0, 54)"><text font-size="10" x="3" text-anchor="start" fill="#1A1B1D" font-family="Helvetica Neue, Helvetica, Arial, sans-serif">fraud_limit</text></g><path class="cost" fill="#BB2D00" d="M 252 60 A 8 8 0 0 1 252 60 L 8 60 A 8 8 0 0 1 8 60 Z"/><rect class="b-outline" width="260" rx="8" ry="8" fill="none" stroke-width="1" style="stroke: rgb(187, 190, 195);" height="60"/></g><g class="operator" transform="translate(37.09481430053711, -1126)"><rect class="background" width="260" height="94" rx="8" ry="8" fill="rgb(255, 255, 255)"/><g class="header" pointer-events="all"><path class="banner" d="M 252 0 A 8 8 0 0 1 260 8 L 260 18 A 8 8 0 0 1 260 26 L 0 26 A 8 8 0 0 1 0 18 L 0 8 A 8 8 0 0 1 8 0 Z" style="fill: rgb(160, 123, 236);"/><path class="expand" fill="#000000" d="M -5 -10 L 8.66 0 L -5 10 Z" transform="translate(13, 13) rotate(90) scale(0.5,0.5)"/><text class="title text-[12px] font-bold" x="26" y="17" fill="#000000" font-family="Helvetica Neue, Helvetica, Arial, sans-serif">Projection@neo4j</text></g><g class="detail identifiers text-[10px] font-mono" transform="translate(0, 40)"><text font-size="10" x="3" text-anchor="start" fill="#1A1B1D" font-family="Helvetica Neue, Helvetica, Arial, sans-serif">anon_2, t, month, year, tx_amount_fraud_</text></g><g class="detail identifiers text-[10px] font-mono" transform="translate(0, 54)"><text font-size="10" x="3" text-anchor="start" fill="#1A1B1D" font-family="Helvetica Neue, Helvetica, Arial, sans-serif">limit</text></g><g class="detail padding text-[10px]" transform="translate(0, 68)"><text font-size="10" x="3" text-anchor="start" fill="#1A1B1D" font-family="Helvetica Neue, Helvetica, Arial, sans-serif"/><path class="divider" visibility="visible" d="M 0 -6 L 260 -6" stroke="#DFE1E3"/></g><g class="detail expression text-[10px] font-mono" transform="translate(0, 74)"><text font-size="10" x="3" text-anchor="start" fill="#1A1B1D" font-family="Helvetica Neue, Helvetica, Arial, sans-serif">anon_2 * $autodouble_12 AS tx_amount_fraud</text></g><g class="detail expression text-[10px] font-mono" transform="translate(0, 88)"><text font-size="10" x="3" text-anchor="start" fill="#1A1B1D" font-family="Helvetica Neue, Helvetica, Arial, sans-serif">_limit</text></g><path class="cost" fill="#BB2D00" d="M 252 94 A 8 8 0 0 1 252 94 L 8 94 A 8 8 0 0 1 8 94 Z"/><rect class="b-outline" width="260" rx="8" ry="8" fill="none" stroke-width="1" style="stroke: rgb(187, 190, 195);" height="94"/></g><g class="operator" transform="translate(93.68064880371094, -1354)"><rect class="background" width="260" height="178" rx="8" ry="8" fill="rgb(255, 255, 255)"/><g class="header" pointer-events="all"><path class="banner" d="M 252 0 A 8 8 0 0 1 260 8 L 260 18 A 8 8 0 0 1 260 26 L 0 26 A 8 8 0 0 1 0 18 L 0 8 A 8 8 0 0 1 8 0 Z" style="fill: rgb(23, 1, 70);"/><path class="expand" fill="#FFFFFF" d="M -5 -10 L 8.66 0 L -5 10 Z" transform="translate(13, 13) rotate(90) scale(0.5,0.5)"/><text class="title text-[12px] font-bold" x="26" y="17" fill="#FFFFFF" font-family="Helvetica Neue, Helvetica, Arial, sans-serif">EagerAggregation@neo4j</text></g><g class="detail identifiers text-[10px] font-mono" transform="translate(0, 40)"><text font-size="10" x="3" text-anchor="start" fill="#1A1B1D" font-family="Helvetica Neue, Helvetica, Arial, sans-serif">year, month, t, anon_2</text></g><g class="detail padding text-[10px]" transform="translate(0, 54)"><text font-size="10" x="3" text-anchor="start" fill="#1A1B1D" font-family="Helvetica Neue, Helvetica, Arial, sans-serif"/><path class="divider" visibility="visible" d="M 0 -6 L 260 -6" stroke="#DFE1E3"/></g><g class="detail expression text-[10px] font-mono" transform="translate(0, 60)"><text font-size="10" x="3" text-anchor="start" fill="#1A1B1D" font-family="Helvetica Neue, Helvetica, Arial, sans-serif">(date({year: cache[tx.tx_date_year], month</text></g><g class="detail expression text-[10px] font-mono" transform="translate(0, 74)"><text font-size="10" x="3" text-anchor="start" fill="#1A1B1D" font-family="Helvetica Neue, Helvetica, Arial, sans-serif">: cache[tx.tx_date_month], day: $autoint_8</text></g><g class="detail expression text-[10px] font-mono" transform="translate(0, 88)"><text font-size="10" x="3" text-anchor="start" fill="#1A1B1D" font-family="Helvetica Neue, Helvetica, Arial, sans-serif">}) + RuntimeConstant(duration({months: $</text></g><g class="detail expression text-[10px] font-mono" transform="translate(0, 102)"><text font-size="10" x="3" text-anchor="start" fill="#1A1B1D" font-family="Helvetica Neue, Helvetica, Arial, sans-serif">autoint_9}))).year AS year, (date({year: </text></g><g class="detail expression text-[10px] font-mono" transform="translate(0, 116)"><text font-size="10" x="3" text-anchor="start" fill="#1A1B1D" font-family="Helvetica Neue, Helvetica, Arial, sans-serif">cache[tx.tx_date_year], month: cache[tx.tx</text></g><g class="detail expression text-[10px] font-mono" transform="translate(0, 130)"><text font-size="10" x="3" text-anchor="start" fill="#1A1B1D" font-family="Helvetica Neue, Helvetica, Arial, sans-serif">_date_month], day: $autoint_10}) + </text></g><g class="detail expression text-[10px] font-mono" transform="translate(0, 144)"><text font-size="10" x="3" text-anchor="start" fill="#1A1B1D" font-family="Helvetica Neue, Helvetica, Arial, sans-serif">RuntimeConstant(duration({months: $autoint</text></g><g class="detail expression text-[10px] font-mono" transform="translate(0, 158)"><text font-size="10" x="3" text-anchor="start" fill="#1A1B1D" font-family="Helvetica Neue, Helvetica, Arial, sans-serif">_11}))).month AS month, t, max(tx.tx_</text></g><g class="detail expression text-[10px] font-mono" transform="translate(0, 172)"><text font-size="10" x="3" text-anchor="start" fill="#1A1B1D" font-family="Helvetica Neue, Helvetica, Arial, sans-serif">amount) AS anon_2</text></g><path class="cost" fill="#BB2D00" d="M 252 178 A 8 8 0 0 1 252 178 L 8 178 A 8 8 0 0 1 8 178 Z"/><rect class="b-outline" width="260" rx="8" ry="8" fill="none" stroke-width="1" style="stroke: rgb(187, 190, 195);" height="178"/></g><g class="operator" transform="translate(167.47535705566406, -1498)"><rect class="background" width="260" height="94" rx="8" ry="8" fill="rgb(255, 255, 255)"/><g class="header" pointer-events="all"><path class="banner" d="M 252 0 A 8 8 0 0 1 260 8 L 260 18 A 8 8 0 0 1 260 26 L 0 26 A 8 8 0 0 1 0 18 L 0 8 A 8 8 0 0 1 8 0 Z" style="fill: rgb(75, 40, 148);"/><path class="expand" fill="#FFFFFF" d="M -5 -10 L 8.66 0 L -5 10 Z" transform="translate(13, 13) rotate(90) scale(0.5,0.5)"/><text class="title text-[12px] font-bold" x="26" y="17" fill="#FFFFFF" font-family="Helvetica Neue, Helvetica, Arial, sans-serif">Filter@neo4j</text></g><g class="detail identifiers text-[10px] font-mono" transform="translate(0, 40)"><text font-size="10" x="3" text-anchor="start" fill="#1A1B1D" font-family="Helvetica Neue, Helvetica, Arial, sans-serif">endDate, t, anon_0, startDate, tx</text></g><g class="detail padding text-[10px]" transform="translate(0, 54)"><text font-size="10" x="3" text-anchor="start" fill="#1A1B1D" font-family="Helvetica Neue, Helvetica, Arial, sans-serif"/><path class="divider" visibility="visible" d="M 0 -6 L 260 -6" stroke="#DFE1E3"/></g><g class="detail expression text-[10px] font-mono" transform="translate(0, 60)"><text font-size="10" x="3" text-anchor="start" fill="#1A1B1D" font-family="Helvetica Neue, Helvetica, Arial, sans-serif">cache[tx.tx_date_year] &gt;= startDate.year </text></g><g class="detail expression text-[10px] font-mono" transform="translate(0, 74)"><text font-size="10" x="3" text-anchor="start" fill="#1A1B1D" font-family="Helvetica Neue, Helvetica, Arial, sans-serif">AND cache[tx.tx_date_year] &lt;= endDate.year</text></g><g class="detail expression text-[10px] font-mono" transform="translate(0, 88)"><text font-size="10" x="3" text-anchor="start" fill="#1A1B1D" font-family="Helvetica Neue, Helvetica, Arial, sans-serif"> AND (anon_0:Customer AND t:Terminal)</text></g><path class="cost" fill="#BB2D00" d="M 252 94 A 8 8 0 0 1 252 94 L 8 94 A 8 8 0 0 1 8 94 Z"/><rect class="b-outline" width="260" rx="8" ry="8" fill="none" stroke-width="1" style="stroke: rgb(187, 190, 195);" height="94"/></g><g class="operator" transform="translate(245.75645446777344, -1594)"><rect class="background" width="260" height="46" rx="8" ry="8" fill="rgb(255, 255, 255)"/><g class="header" pointer-events="all"><path class="banner" d="M 252 0 A 8 8 0 0 1 260 8 L 260 18 A 8 8 0 0 1 260 26 L 0 26 A 8 8 0 0 1 0 18 L 0 8 A 8 8 0 0 1 8 0 Z" style="fill: rgb(75, 40, 148);"/><path class="expand" fill="#FFFFFF" d="M -5 -10 L 8.66 0 L -5 10 Z" transform="translate(13, 13) rotate(90) scale(0.5,0.5)"/><text class="title text-[12px] font-bold" x="26" y="17" fill="#FFFFFF" font-family="Helvetica Neue, Helvetica, Arial, sans-serif">Apply@neo4j</text></g><g class="detail identifiers text-[10px] font-mono" transform="translate(0, 40)"><text font-size="10" x="3" text-anchor="start" fill="#1A1B1D" font-family="Helvetica Neue, Helvetica, Arial, sans-serif">endDate, t, anon_0, startDate, tx</text></g><path class="cost" fill="#BB2D00" d="M 252 46 A 8 8 0 0 1 252 46 L 8 46 A 8 8 0 0 1 8 46 Z"/><rect class="b-outline" width="260" rx="8" ry="8" fill="none" stroke-width="1" style="stroke: rgb(187, 190, 195);" height="46"/></g><g class="operator" transform="translate(5.659430980682373, -1794)"><rect class="background" width="260" height="150" rx="8" ry="8" fill="rgb(255, 255, 255)"/><g class="header" pointer-events="all"><path class="banner" d="M 252 0 A 8 8 0 0 1 260 8 L 260 18 A 8 8 0 0 1 260 26 L 0 26 A 8 8 0 0 1 0 18 L 0 8 A 8 8 0 0 1 8 0 Z" style="fill: rgb(160, 123, 236);"/><path class="expand" fill="#000000" d="M -5 -10 L 8.66 0 L -5 10 Z" transform="translate(13, 13) rotate(90) scale(0.5,0.5)"/><text class="title text-[12px] font-bold" x="26" y="17" fill="#000000" font-family="Helvetica Neue, Helvetica, Arial, sans-serif">Projection@neo4j</text></g><g class="detail identifiers text-[10px] font-mono" transform="translate(0, 40)"><text font-size="10" x="3" text-anchor="start" fill="#1A1B1D" font-family="Helvetica Neue, Helvetica, Arial, sans-serif">startDate, endDate</text></g><g class="detail padding text-[10px]" transform="translate(0, 54)"><text font-size="10" x="3" text-anchor="start" fill="#1A1B1D" font-family="Helvetica Neue, Helvetica, Arial, sans-serif"/><path class="divider" visibility="visible" d="M 0 -6 L 260 -6" stroke="#DFE1E3"/></g><g class="detail expression text-[10px] font-mono" transform="translate(0, 60)"><text font-size="10" x="3" text-anchor="start" fill="#1A1B1D" font-family="Helvetica Neue, Helvetica, Arial, sans-serif">CASE
  WHEN $autostring_0 = $autostring_1 </text></g><g class="detail expression text-[10px] font-mono" transform="translate(0, 74)"><text font-size="10" x="3" text-anchor="start" fill="#1A1B1D" font-family="Helvetica Neue, Helvetica, Arial, sans-serif">THEN NULL
  ELSE RuntimeConstant(date($</text></g><g class="detail expression text-[10px] font-mono" transform="translate(0, 88)"><text font-size="10" x="3" text-anchor="start" fill="#1A1B1D" font-family="Helvetica Neue, Helvetica, Arial, sans-serif">autostring_2 + $autostring_3))
END AS </text></g><g class="detail expression text-[10px] font-mono" transform="translate(0, 102)"><text font-size="10" x="3" text-anchor="start" fill="#1A1B1D" font-family="Helvetica Neue, Helvetica, Arial, sans-serif">startDate, CASE
  WHEN $autostring_4 = $</text></g><g class="detail expression text-[10px] font-mono" transform="translate(0, 116)"><text font-size="10" x="3" text-anchor="start" fill="#1A1B1D" font-family="Helvetica Neue, Helvetica, Arial, sans-serif">autostring_5 THEN NULL
  ELSE </text></g><g class="detail expression text-[10px] font-mono" transform="translate(0, 130)"><text font-size="10" x="3" text-anchor="start" fill="#1A1B1D" font-family="Helvetica Neue, Helvetica, Arial, sans-serif">RuntimeConstant(date($autostring_6 + $</text></g><g class="detail expression text-[10px] font-mono" transform="translate(0, 144)"><text font-size="10" x="3" text-anchor="start" fill="#1A1B1D" font-family="Helvetica Neue, Helvetica, Arial, sans-serif">autostring_7))
END AS endDate</text></g><path class="cost" fill="#BB2D00" d="M 252 150 A 8 8 0 0 1 252 150 L 8 150 A 8 8 0 0 1 8 150 Z"/><rect class="b-outline" width="260" rx="8" ry="8" fill="none" stroke-width="1" style="stroke: rgb(187, 190, 195);" height="150"/></g><g class="operator" transform="translate(357.3734436035156, -1794)"><rect class="background" width="260" height="136" rx="8" ry="8" fill="rgb(255, 255, 255)"/><g class="header" pointer-events="all"><path class="banner" d="M 252 0 A 8 8 0 0 1 260 8 L 260 18 A 8 8 0 0 1 260 26 L 0 26 A 8 8 0 0 1 0 18 L 0 8 A 8 8 0 0 1 8 0 Z" style="fill: rgb(204, 180, 255);"/><path class="expand" fill="#000000" d="M -5 -10 L 8.66 0 L -5 10 Z" transform="translate(13, 13) rotate(90) scale(0.5,0.5)"/><text class="title text-[12px] font-bold" x="26" y="17" fill="#000000" font-family="Helvetica Neue, Helvetica, Arial, sans-serif">DirectedRelationshipIndexSeek@neo4j</text></g><g class="detail identifiers text-[10px] font-mono" transform="translate(0, 40)"><text font-size="10" x="3" text-anchor="start" fill="#1A1B1D" font-family="Helvetica Neue, Helvetica, Arial, sans-serif">endDate, t, anon_0, startDate, tx</text></g><g class="detail padding text-[10px]" transform="translate(0, 54)"><text font-size="10" x="3" text-anchor="start" fill="#1A1B1D" font-family="Helvetica Neue, Helvetica, Arial, sans-serif"/><path class="divider" visibility="visible" d="M 0 -6 L 260 -6" stroke="#DFE1E3"/></g><g class="detail expression text-[10px] font-mono" transform="translate(0, 60)"><text font-size="10" x="3" text-anchor="start" fill="#1A1B1D" font-family="Helvetica Neue, Helvetica, Arial, sans-serif">RANGE INDEX (anon_0)-[tx:Make_transaction(</text></g><g class="detail expression text-[10px] font-mono" transform="translate(0, 74)"><text font-size="10" x="3" text-anchor="start" fill="#1A1B1D" font-family="Helvetica Neue, Helvetica, Arial, sans-serif">tx_date_month, tx_date_year)]-&gt;(t) WHERE </text></g><g class="detail expression text-[10px] font-mono" transform="translate(0, 88)"><text font-size="10" x="3" text-anchor="start" fill="#1A1B1D" font-family="Helvetica Neue, Helvetica, Arial, sans-serif">tx_date_month &gt;= startDate.month AND tx_</text></g><g class="detail expression text-[10px] font-mono" transform="translate(0, 102)"><text font-size="10" x="3" text-anchor="start" fill="#1A1B1D" font-family="Helvetica Neue, Helvetica, Arial, sans-serif">date_month &lt;= endDate.month AND tx_date_</text></g><g class="detail expression text-[10px] font-mono" transform="translate(0, 116)"><text font-size="10" x="3" text-anchor="start" fill="#1A1B1D" font-family="Helvetica Neue, Helvetica, Arial, sans-serif">year IS NOT NULL, cache[tx.tx_date_month],</text></g><g class="detail expression text-[10px] font-mono" transform="translate(0, 130)"><text font-size="10" x="3" text-anchor="start" fill="#1A1B1D" font-family="Helvetica Neue, Helvetica, Arial, sans-serif"> cache[tx.tx_date_year]</text></g><path class="cost" fill="#BB2D00" d="M 252 136 A 8 8 0 0 1 252 136 L 8 136 A 8 8 0 0 1 8 136 Z"/><rect class="b-outline" width="260" rx="8" ry="8" fill="none" stroke-width="1" style="stroke: rgb(187, 190, 195);" height="136"/></g><g class="operator" transform="translate(347.0948181152344, -1126)"><rect class="background" width="260" height="94" rx="8" ry="8" fill="rgb(255, 255, 255)"/><g class="header" pointer-events="all"><path class="banner" d="M 252 0 A 8 8 0 0 1 260 8 L 260 18 A 8 8 0 0 1 260 26 L 0 26 A 8 8 0 0 1 0 18 L 0 8 A 8 8 0 0 1 8 0 Z" style="fill: rgb(204, 180, 255);"/><path class="expand" fill="#000000" d="M -5 -10 L 8.66 0 L -5 10 Z" transform="translate(13, 13) rotate(90) scale(0.5,0.5)"/><text class="title text-[12px] font-bold" x="26" y="17" fill="#000000" font-family="Helvetica Neue, Helvetica, Arial, sans-serif">NodeIndexScan@neo4j</text></g><g class="detail identifiers text-[10px] font-mono" transform="translate(0, 40)"><text font-size="10" x="3" text-anchor="start" fill="#1A1B1D" font-family="Helvetica Neue, Helvetica, Arial, sans-serif">t, anon_1, month, year, tx_amount_fraud_</text></g><g class="detail identifiers text-[10px] font-mono" transform="translate(0, 54)"><text font-size="10" x="3" text-anchor="start" fill="#1A1B1D" font-family="Helvetica Neue, Helvetica, Arial, sans-serif">limit</text></g><g class="detail padding text-[10px]" transform="translate(0, 68)"><text font-size="10" x="3" text-anchor="start" fill="#1A1B1D" font-family="Helvetica Neue, Helvetica, Arial, sans-serif"/><path class="divider" visibility="visible" d="M 0 -6 L 260 -6" stroke="#DFE1E3"/></g><g class="detail expression text-[10px] font-mono" transform="translate(0, 74)"><text font-size="10" x="3" text-anchor="start" fill="#1A1B1D" font-family="Helvetica Neue, Helvetica, Arial, sans-serif">RANGE INDEX anon_1:Customer(customer_id) </text></g><g class="detail expression text-[10px] font-mono" transform="translate(0, 88)"><text font-size="10" x="3" text-anchor="start" fill="#1A1B1D" font-family="Helvetica Neue, Helvetica, Arial, sans-serif">WHERE customer_id IS NOT NULL</text></g><path class="cost" fill="#BB2D00" d="M 252 94 A 8 8 0 0 1 252 94 L 8 94 A 8 8 0 0 1 8 94 Z"/><rect class="b-outline" width="260" rx="8" ry="8" fill="none" stroke-width="1" style="stroke: rgb(187, 190, 195);" height="94"/></g></g></svg>