<svg xmlns="http://www.w3.org/2000/svg" height="1378" width="599.5313720703125" viewBox="16.653921127319336 -1428 599.5313720703125 1378"><g class="layer links"><g class="link"><path fill="#E2E3E5" d="M 158.53797749330028 -1348 C 158.53797749330028 -1313.4469637544782 151.7360183983805 -1313.4469637544782 151.7360183983805 -1284 L 143.71541848510088 -1284 C 143.71541848510088 -1318.5530362455218 150.51737758002065 -1318.5530362455218 150.51737758002065 -1348 Z"/><text class="text-[12px] font-bold" fill="#1A1B1D" x="154.52767753666046" y="-1322" text-anchor="middle" font-family="Helvetica Neue, Helvetica, Arial, sans-serif">1 estimated row</text></g><g class="link"><path fill="#E2E3E5" d="M 151.7360183983805 -1190 C 151.7360183983805 -1146.5530362455218 384.8248340081811 -1146.5530362455218 384.8248340081811 -1098 L 376.80423409490146 -1098 C 376.80423409490146 -1141.4469637544782 143.71541848510088 -1141.4469637544782 143.71541848510088 -1190 Z"/><text class="text-[12px] font-bold" fill="#1A1B1D" x="147.7257184417407" y="-1164" text-anchor="middle" font-family="Helvetica Neue, Helvetica, Arial, sans-serif">1 estimated row</text></g><g class="link"><path fill="#E2E3E5" d="M 512.6878622165281 -1334 C 512.6878622165281 -1324.9154943091896 513.111891940769 -1324.9154943091896 513.111891940769 -1284 L 457.1151374234242 -1284 C 457.1151374234242 -1293.0845056908104 456.69110769918314 -1293.0845056908104 456.69110769918314 -1334 Z"/><text class="text-[12px] font-bold" fill="#1A1B1D" x="484.6894849578556" y="-1308" text-anchor="middle" font-family="Helvetica Neue, Helvetica, Arial, sans-serif">500 estimated rows</text></g><g class="link"><path fill="#E2E3E5" d="M 515.636594778718 -1148 C 515.636594778718 -1107.0845056908104 445.87099420142357 -1107.0845056908104 445.87099420142357 -1098 L 384.8248340081811 -1098 C 384.8248340081811 -1138.9154943091896 454.5904345854754 -1138.9154943091896 454.5904345854754 -1148 Z"/><text class="text-[12px] font-bold" fill="#1A1B1D" x="485.11351468209665" y="-1122" text-anchor="middle" font-family="Helvetica Neue, Helvetica, Arial, sans-serif">895 estimated rows</text></g><g class="link"><path fill="#E2E3E5" d="M 441.86069424478376 -1038 C 441.86069424478376 -997.0845056908105 409.9138928008156 -997.0845056908105 409.9138928008156 -988 L 348.8677326075731 -988 C 348.8677326075731 -1028.9154943091896 380.8145340515413 -1028.9154943091896 380.8145340515413 -1038 Z"/><text class="text-[12px] font-bold" fill="#1A1B1D" x="411.3376141481625" y="-1012" text-anchor="middle" font-family="Helvetica Neue, Helvetica, Arial, sans-serif">895 estimated rows</text></g><g class="link"><path fill="#E2E3E5" d="M 395.2927230361145 -908 C 395.2927230361145 -872.8765294642833 366.69359971707553 -872.8765294642833 366.69359971707553 -858 L 334.8897790532352 -858 C 334.8897790532352 -893.1234705357167 363.48890237227414 -893.1234705357167 363.48890237227414 -908 Z"/><text class="text-[12px] font-bold" fill="#1A1B1D" x="379.39081270419433" y="-882" text-anchor="middle" font-family="Helvetica Neue, Helvetica, Arial, sans-serif">30 estimated rows</text></g><g class="link"><path fill="#E2E3E5" d="M 366.6935997170756 -778 C 366.6935997170756 -742.8765294642833 341.926433524338 -742.8765294642833 341.926433524338 -728 L 310.12261286049767 -728 C 310.12261286049767 -763.1234705357167 334.8897790532352 -763.1234705357167 334.8897790532352 -778 Z"/><text class="text-[12px] font-bold" fill="#1A1B1D" x="350.7916893851554" y="-752" text-anchor="middle" font-family="Helvetica Neue, Helvetica, Arial, sans-serif">30 estimated rows</text></g><g class="link"><path fill="#E2E3E5" d="M 344.3925205463079 -592 C 344.3925205463079 -555.3065697057182 323.9624408726251 -555.3065697057182 323.9624408726251 -542 L 287.2264461648451 -542 C 287.2264461648451 -578.6934302942818 307.65652583852784 -578.6934302942818 307.65652583852784 -592 Z"/><text class="text-[12px] font-bold" fill="#1A1B1D" x="326.02452319241786" y="-566" text-anchor="middle" font-family="Helvetica Neue, Helvetica, Arial, sans-serif">54 estimated rows</text></g><g class="link"><path fill="#E2E3E5" d="M 315.7945435502407 -420 C 315.7945435502407 -388.50641463981634 300.1314310034969 -388.50641463981634 300.1314310034969 -370 L 279.7312309404857 -370 C 279.7312309404857 -401.49358536018366 295.3943434872295 -401.49358536018366 295.3943434872295 -420 Z"/><text class="text-[12px] font-bold" fill="#1A1B1D" x="305.5944435187351" y="-394" text-anchor="middle" font-family="Helvetica Neue, Helvetica, Arial, sans-serif">7 estimated rows</text></g><g class="link"><path fill="#E2E3E5" d="M 300.1314310034969 -262 C 300.1314310034969 -230.50641463981634 289.555109241895 -230.50641463981634 289.555109241895 -212 L 269.1549091788838 -212 C 269.1549091788838 -243.49358536018366 279.7312309404857 -243.49358536018366 279.7312309404857 -262 Z"/><text class="text-[12px] font-bold" fill="#1A1B1D" x="289.9313309719913" y="-236" text-anchor="middle" font-family="Helvetica Neue, Helvetica, Arial, sans-serif">7 estimated rows</text></g><g class="link"><path fill="#E2E3E5" d="M 289.555109241895 -132 C 289.555109241895 -100.50641463981636 284.25253785403 -100.50641463981636 284.25253785403 -82 L 263.8523377910188 -82 C 263.8523377910188 -113.49358536018364 269.1549091788838 -113.49358536018364 269.1549091788838 -132 Z"/><text class="text-[12px] font-bold" fill="#1A1B1D" x="279.3550092103894" y="-106" text-anchor="middle" font-family="Helvetica Neue, Helvetica, Arial, sans-serif">7 estimated rows</text></g></g><g class="layer operators"><g class="operator" transform="translate(144.0524444580078, -82)"><rect class="background" width="260" height="32" rx="8" ry="8" fill="rgb(255, 255, 255)"/><g class="header" pointer-events="all"><path class="banner" d="M 252 0 A 8 8 0 0 1 260 8 L 260 18 A 8 8 0 0 1 259.7459666924148 26 L 0.25403330758516596 26 A 8 8 0 0 1 0 18 L 0 8 A 8 8 0 0 1 8 0 Z" style="fill: rgb(247, 243, 255);"/><text class="title text-[12px] font-bold" x="26" y="17" fill="#000000" font-family="Helvetica Neue, Helvetica, Arial, sans-serif">Result</text></g><path class="cost" fill="#BB2D00" d="M 252 32 A 8 8 0 0 1 252 32 L 8 32 A 8 8 0 0 1 8 32 Z"/><rect class="b-outline" width="260" rx="8" ry="8" fill="none" stroke-width="1" style="stroke: rgb(187, 190, 195);" height="32"/></g><g class="operator" transform="translate(149.35501098632812, -212)"><rect class="background" width="260" height="80" rx="8" ry="8" fill="rgb(255, 255, 255)"/><g class="header" pointer-events="all"><path class="banner" d="M 252 0 A 8 8 0 0 1 260 8 L 260 18 A 8 8 0 0 1 260 26 L 0 26 A 8 8 0 0 1 0 18 L 0 8 A 8 8 0 0 1 8 0 Z" style="fill: rgb(247, 243, 255);"/><path class="expand" fill="#000000" d="M -5 -10 L 8.66 0 L -5 10 Z" transform="translate(13, 13) rotate(90) scale(0.5,0.5)"/><text class="title text-[12px] font-bold" x="26" y="17" fill="#000000" font-family="Helvetica Neue, Helvetica, Arial, sans-serif">ProduceResults@neo4j</text></g><g class="detail identifiers text-[10px] font-mono" transform="translate(0, 40)"><text font-size="10" x="3" text-anchor="start" fill="#1A1B1D" font-family="Helvetica Neue, Helvetica, Arial, sans-serif">t, tx_amount_fraud_limit, fraud_txs_</text></g><g class="detail identifiers text-[10px] font-mono" transform="translate(0, 54)"><text font-size="10" x="3" text-anchor="start" fill="#1A1B1D" font-family="Helvetica Neue, Helvetica, Arial, sans-serif">current_month</text></g><g class="detail padding text-[10px]" transform="translate(0, 68)"><text font-size="10" x="3" text-anchor="start" fill="#1A1B1D" font-family="Helvetica Neue, Helvetica, Arial, sans-serif"/><path class="divider" visibility="visible" d="M 0 -6 L 260 -6" stroke="#DFE1E3"/></g><g class="detail expression text-[10px] font-mono" transform="translate(0, 74)"><text font-size="10" x="3" text-anchor="start" fill="#1A1B1D" font-family="Helvetica Neue, Helvetica, Arial, sans-serif">t, fraud_txs_current_month</text></g><path class="cost" fill="#BB2D00" d="M 252 80 A 8 8 0 0 1 252 80 L 8 80 A 8 8 0 0 1 8 80 Z"/><rect class="b-outline" width="260" rx="8" ry="8" fill="none" stroke-width="1" style="stroke: rgb(187, 190, 195);" height="80"/></g><g class="operator" transform="translate(159.93133544921875, -370)"><rect class="background" width="260" height="108" rx="8" ry="8" fill="rgb(255, 255, 255)"/><g class="header" pointer-events="all"><path class="banner" d="M 252 0 A 8 8 0 0 1 260 8 L 260 18 A 8 8 0 0 1 260 26 L 0 26 A 8 8 0 0 1 0 18 L 0 8 A 8 8 0 0 1 8 0 Z" style="fill: rgb(160, 123, 236);"/><path class="expand" fill="#000000" d="M -5 -10 L 8.66 0 L -5 10 Z" transform="translate(13, 13) rotate(90) scale(0.5,0.5)"/><text class="title text-[12px] font-bold" x="26" y="17" fill="#000000" font-family="Helvetica Neue, Helvetica, Arial, sans-serif">Projection@neo4j</text></g><g class="detail identifiers text-[10px] font-mono" transform="translate(0, 40)"><text font-size="10" x="3" text-anchor="start" fill="#1A1B1D" font-family="Helvetica Neue, Helvetica, Arial, sans-serif">t, tx_amount_fraud_limit, fraud_txs_</text></g><g class="detail identifiers text-[10px] font-mono" transform="translate(0, 54)"><text font-size="10" x="3" text-anchor="start" fill="#1A1B1D" font-family="Helvetica Neue, Helvetica, Arial, sans-serif">current_month</text></g><g class="detail padding text-[10px]" transform="translate(0, 68)"><text font-size="10" x="3" text-anchor="start" fill="#1A1B1D" font-family="Helvetica Neue, Helvetica, Arial, sans-serif"/><path class="divider" visibility="visible" d="M 0 -6 L 260 -6" stroke="#DFE1E3"/></g><g class="detail expression text-[10px] font-mono" transform="translate(0, 74)"><text font-size="10" x="3" text-anchor="start" fill="#1A1B1D" font-family="Helvetica Neue, Helvetica, Arial, sans-serif">CASE
  WHEN tx_amount_fraud_limit IS NULL </text></g><g class="detail expression text-[10px] font-mono" transform="translate(0, 88)"><text font-size="10" x="3" text-anchor="start" fill="#1A1B1D" font-family="Helvetica Neue, Helvetica, Arial, sans-serif">THEN NULL
  ELSE fraud_txs_current_month
</text></g><g class="detail expression text-[10px] font-mono" transform="translate(0, 102)"><text font-size="10" x="3" text-anchor="start" fill="#1A1B1D" font-family="Helvetica Neue, Helvetica, Arial, sans-serif">END AS fraud_txs_current_month</text></g><path class="cost" fill="#BB2D00" d="M 252 108 A 8 8 0 0 1 252 108 L 8 108 A 8 8 0 0 1 8 108 Z"/><rect class="b-outline" width="260" rx="8" ry="8" fill="none" stroke-width="1" style="stroke: rgb(187, 190, 195);" height="108"/></g><g class="operator" transform="translate(175.5944366455078, -542)"><rect class="background" width="260" height="122" rx="8" ry="8" fill="rgb(255, 255, 255)"/><g class="header" pointer-events="all"><path class="banner" d="M 252 0 A 8 8 0 0 1 260 8 L 260 18 A 8 8 0 0 1 260 26 L 0 26 A 8 8 0 0 1 0 18 L 0 8 A 8 8 0 0 1 8 0 Z" style="fill: rgb(23, 1, 70);"/><path class="expand" fill="#FFFFFF" d="M -5 -10 L 8.66 0 L -5 10 Z" transform="translate(13, 13) rotate(90) scale(0.5,0.5)"/><text class="title text-[12px] font-bold" x="26" y="17" fill="#FFFFFF" font-family="Helvetica Neue, Helvetica, Arial, sans-serif">EagerAggregation@neo4j</text></g><g class="detail identifiers text-[10px] font-mono" transform="translate(0, 40)"><text font-size="10" x="3" text-anchor="start" fill="#1A1B1D" font-family="Helvetica Neue, Helvetica, Arial, sans-serif">t, tx_amount_fraud_limit, fraud_txs_</text></g><g class="detail identifiers text-[10px] font-mono" transform="translate(0, 54)"><text font-size="10" x="3" text-anchor="start" fill="#1A1B1D" font-family="Helvetica Neue, Helvetica, Arial, sans-serif">current_month</text></g><g class="detail padding text-[10px]" transform="translate(0, 68)"><text font-size="10" x="3" text-anchor="start" fill="#1A1B1D" font-family="Helvetica Neue, Helvetica, Arial, sans-serif"/><path class="divider" visibility="visible" d="M 0 -6 L 260 -6" stroke="#DFE1E3"/></g><g class="detail expression text-[10px] font-mono" transform="translate(0, 74)"><text font-size="10" x="3" text-anchor="start" fill="#1A1B1D" font-family="Helvetica Neue, Helvetica, Arial, sans-serif">t, tx_amount_fraud_limit, COLLECT(CASE
  </text></g><g class="detail expression text-[10px] font-mono" transform="translate(0, 88)"><text font-size="10" x="3" text-anchor="start" fill="#1A1B1D" font-family="Helvetica Neue, Helvetica, Arial, sans-serif">WHEN tx_current_month.tx_amount &gt; tx_</text></g><g class="detail expression text-[10px] font-mono" transform="translate(0, 102)"><text font-size="10" x="3" text-anchor="start" fill="#1A1B1D" font-family="Helvetica Neue, Helvetica, Arial, sans-serif">amount_fraud_limit THEN tx_current_month
 </text></g><g class="detail expression text-[10px] font-mono" transform="translate(0, 116)"><text font-size="10" x="3" text-anchor="start" fill="#1A1B1D" font-family="Helvetica Neue, Helvetica, Arial, sans-serif"> ELSE NULL
END) AS fraud_txs_current_month</text></g><path class="cost" fill="#BB2D00" d="M 252 122 A 8 8 0 0 1 252 122 L 8 122 A 8 8 0 0 1 8 122 Z"/><rect class="b-outline" width="260" rx="8" ry="8" fill="none" stroke-width="1" style="stroke: rgb(187, 190, 195);" height="122"/></g><g class="operator" transform="translate(196.02452087402344, -728)"><rect class="background" width="260" height="136" rx="8" ry="8" fill="rgb(255, 255, 255)"/><g class="header" pointer-events="all"><path class="banner" d="M 252 0 A 8 8 0 0 1 260 8 L 260 18 A 8 8 0 0 1 260 26 L 0 26 A 8 8 0 0 1 0 18 L 0 8 A 8 8 0 0 1 8 0 Z" style="fill: rgb(44, 42, 52);"/><path class="expand" fill="#FFFFFF" d="M -5 -10 L 8.66 0 L -5 10 Z" transform="translate(13, 13) rotate(90) scale(0.5,0.5)"/><text class="title text-[12px] font-bold" x="26" y="17" fill="#FFFFFF" font-family="Helvetica Neue, Helvetica, Arial, sans-serif">OptionalExpand(All)@neo4j</text></g><g class="detail identifiers text-[10px] font-mono" transform="translate(0, 40)"><text font-size="10" x="3" text-anchor="start" fill="#1A1B1D" font-family="Helvetica Neue, Helvetica, Arial, sans-serif">t, anon_1, tx_current_month, today, anon_4</text></g><g class="detail identifiers text-[10px] font-mono" transform="translate(0, 54)"><text font-size="10" x="3" text-anchor="start" fill="#1A1B1D" font-family="Helvetica Neue, Helvetica, Arial, sans-serif">, tx_amount_fraud_limit</text></g><g class="detail padding text-[10px]" transform="translate(0, 68)"><text font-size="10" x="3" text-anchor="start" fill="#1A1B1D" font-family="Helvetica Neue, Helvetica, Arial, sans-serif"/><path class="divider" visibility="visible" d="M 0 -6 L 260 -6" stroke="#DFE1E3"/></g><g class="detail expression text-[10px] font-mono" transform="translate(0, 74)"><text font-size="10" x="3" text-anchor="start" fill="#1A1B1D" font-family="Helvetica Neue, Helvetica, Arial, sans-serif">(t)&lt;-[tx_current_month:Make_transaction]-(</text></g><g class="detail expression text-[10px] font-mono" transform="translate(0, 88)"><text font-size="10" x="3" text-anchor="start" fill="#1A1B1D" font-family="Helvetica Neue, Helvetica, Arial, sans-serif">anon_1) WHERE anon_1:Customer AND tx_</text></g><g class="detail expression text-[10px] font-mono" transform="translate(0, 102)"><text font-size="10" x="3" text-anchor="start" fill="#1A1B1D" font-family="Helvetica Neue, Helvetica, Arial, sans-serif">current_month.tx_date_month = today.month </text></g><g class="detail expression text-[10px] font-mono" transform="translate(0, 116)"><text font-size="10" x="3" text-anchor="start" fill="#1A1B1D" font-family="Helvetica Neue, Helvetica, Arial, sans-serif">AND tx_current_month.tx_date_year = today.</text></g><g class="detail expression text-[10px] font-mono" transform="translate(0, 130)"><text font-size="10" x="3" text-anchor="start" fill="#1A1B1D" font-family="Helvetica Neue, Helvetica, Arial, sans-serif">year</text></g><path class="cost" fill="#BB2D00" d="M 252 136 A 8 8 0 0 1 252 136 L 8 136 A 8 8 0 0 1 8 136 Z"/><rect class="b-outline" width="260" rx="8" ry="8" fill="none" stroke-width="1" style="stroke: rgb(187, 190, 195);" height="136"/></g><g class="operator" transform="translate(220.79168701171875, -858)"><rect class="background" width="260" height="80" rx="8" ry="8" fill="rgb(255, 255, 255)"/><g class="header" pointer-events="all"><path class="banner" d="M 252 0 A 8 8 0 0 1 260 8 L 260 18 A 8 8 0 0 1 260 26 L 0 26 A 8 8 0 0 1 0 18 L 0 8 A 8 8 0 0 1 8 0 Z" style="fill: rgb(160, 123, 236);"/><path class="expand" fill="#000000" d="M -5 -10 L 8.66 0 L -5 10 Z" transform="translate(13, 13) rotate(90) scale(0.5,0.5)"/><text class="title text-[12px] font-bold" x="26" y="17" fill="#000000" font-family="Helvetica Neue, Helvetica, Arial, sans-serif">Projection@neo4j</text></g><g class="detail identifiers text-[10px] font-mono" transform="translate(0, 40)"><text font-size="10" x="3" text-anchor="start" fill="#1A1B1D" font-family="Helvetica Neue, Helvetica, Arial, sans-serif">today, t, anon_4, tx_amount_fraud_limit</text></g><g class="detail padding text-[10px]" transform="translate(0, 54)"><text font-size="10" x="3" text-anchor="start" fill="#1A1B1D" font-family="Helvetica Neue, Helvetica, Arial, sans-serif"/><path class="divider" visibility="visible" d="M 0 -6 L 260 -6" stroke="#DFE1E3"/></g><g class="detail expression text-[10px] font-mono" transform="translate(0, 60)"><text font-size="10" x="3" text-anchor="start" fill="#1A1B1D" font-family="Helvetica Neue, Helvetica, Arial, sans-serif">anon_4 * $autodouble_4 AS tx_amount_fraud_</text></g><g class="detail expression text-[10px] font-mono" transform="translate(0, 74)"><text font-size="10" x="3" text-anchor="start" fill="#1A1B1D" font-family="Helvetica Neue, Helvetica, Arial, sans-serif">limit</text></g><path class="cost" fill="#BB2D00" d="M 252 80 A 8 8 0 0 1 252 80 L 8 80 A 8 8 0 0 1 8 80 Z"/><rect class="b-outline" width="260" rx="8" ry="8" fill="none" stroke-width="1" style="stroke: rgb(187, 190, 195);" height="80"/></g><g class="operator" transform="translate(249.39080810546875, -988)"><rect class="background" width="260" height="80" rx="8" ry="8" fill="rgb(255, 255, 255)"/><g class="header" pointer-events="all"><path class="banner" d="M 252 0 A 8 8 0 0 1 260 8 L 260 18 A 8 8 0 0 1 260 26 L 0 26 A 8 8 0 0 1 0 18 L 0 8 A 8 8 0 0 1 8 0 Z" style="fill: rgb(23, 1, 70);"/><path class="expand" fill="#FFFFFF" d="M -5 -10 L 8.66 0 L -5 10 Z" transform="translate(13, 13) rotate(90) scale(0.5,0.5)"/><text class="title text-[12px] font-bold" x="26" y="17" fill="#FFFFFF" font-family="Helvetica Neue, Helvetica, Arial, sans-serif">EagerAggregation@neo4j</text></g><g class="detail identifiers text-[10px] font-mono" transform="translate(0, 40)"><text font-size="10" x="3" text-anchor="start" fill="#1A1B1D" font-family="Helvetica Neue, Helvetica, Arial, sans-serif">today, t, anon_4</text></g><g class="detail padding text-[10px]" transform="translate(0, 54)"><text font-size="10" x="3" text-anchor="start" fill="#1A1B1D" font-family="Helvetica Neue, Helvetica, Arial, sans-serif"/><path class="divider" visibility="visible" d="M 0 -6 L 260 -6" stroke="#DFE1E3"/></g><g class="detail expression text-[10px] font-mono" transform="translate(0, 60)"><text font-size="10" x="3" text-anchor="start" fill="#1A1B1D" font-family="Helvetica Neue, Helvetica, Arial, sans-serif">today, t, max(tx_prev_month.tx_amount) AS </text></g><g class="detail expression text-[10px] font-mono" transform="translate(0, 74)"><text font-size="10" x="3" text-anchor="start" fill="#1A1B1D" font-family="Helvetica Neue, Helvetica, Arial, sans-serif">anon_4</text></g><path class="cost" fill="#BB2D00" d="M 252 80 A 8 8 0 0 1 252 80 L 8 80 A 8 8 0 0 1 8 80 Z"/><rect class="b-outline" width="260" rx="8" ry="8" fill="none" stroke-width="1" style="stroke: rgb(187, 190, 195);" height="80"/></g><g class="operator" transform="translate(281.3376159667969, -1098)"><rect class="background" width="260" height="60" rx="8" ry="8" fill="rgb(255, 255, 255)"/><g class="header" pointer-events="all"><path class="banner" d="M 252 0 A 8 8 0 0 1 260 8 L 260 18 A 8 8 0 0 1 260 26 L 0 26 A 8 8 0 0 1 0 18 L 0 8 A 8 8 0 0 1 8 0 Z" style="fill: rgb(75, 40, 148);"/><path class="expand" fill="#FFFFFF" d="M -5 -10 L 8.66 0 L -5 10 Z" transform="translate(13, 13) rotate(90) scale(0.5,0.5)"/><text class="title text-[12px] font-bold" x="26" y="17" fill="#FFFFFF" font-family="Helvetica Neue, Helvetica, Arial, sans-serif">Apply@neo4j</text></g><g class="detail identifiers text-[10px] font-mono" transform="translate(0, 40)"><text font-size="10" x="3" text-anchor="start" fill="#1A1B1D" font-family="Helvetica Neue, Helvetica, Arial, sans-serif">first_of_previous_month, anon_0, today, tx</text></g><g class="detail identifiers text-[10px] font-mono" transform="translate(0, 54)"><text font-size="10" x="3" text-anchor="start" fill="#1A1B1D" font-family="Helvetica Neue, Helvetica, Arial, sans-serif">_prev_month, t</text></g><path class="cost" fill="#BB2D00" d="M 252 60 A 8 8 0 0 1 252 60 L 8 60 A 8 8 0 0 1 8 60 Z"/><rect class="b-outline" width="260" rx="8" ry="8" fill="none" stroke-width="1" style="stroke: rgb(187, 190, 195);" height="60"/></g><g class="operator" transform="translate(17.725717544555664, -1284)"><rect class="background" width="260" height="94" rx="8" ry="8" fill="rgb(255, 255, 255)"/><g class="header" pointer-events="all"><path class="banner" d="M 252 0 A 8 8 0 0 1 260 8 L 260 18 A 8 8 0 0 1 260 26 L 0 26 A 8 8 0 0 1 0 18 L 0 8 A 8 8 0 0 1 8 0 Z" style="fill: rgb(160, 123, 236);"/><path class="expand" fill="#000000" d="M -5 -10 L 8.66 0 L -5 10 Z" transform="translate(13, 13) rotate(90) scale(0.5,0.5)"/><text class="title text-[12px] font-bold" x="26" y="17" fill="#000000" font-family="Helvetica Neue, Helvetica, Arial, sans-serif">Projection@neo4j</text></g><g class="detail identifiers text-[10px] font-mono" transform="translate(0, 40)"><text font-size="10" x="3" text-anchor="start" fill="#1A1B1D" font-family="Helvetica Neue, Helvetica, Arial, sans-serif">today, first_of_previous_month</text></g><g class="detail padding text-[10px]" transform="translate(0, 54)"><text font-size="10" x="3" text-anchor="start" fill="#1A1B1D" font-family="Helvetica Neue, Helvetica, Arial, sans-serif"/><path class="divider" visibility="visible" d="M 0 -6 L 260 -6" stroke="#DFE1E3"/></g><g class="detail expression text-[10px] font-mono" transform="translate(0, 60)"><text font-size="10" x="3" text-anchor="start" fill="#1A1B1D" font-family="Helvetica Neue, Helvetica, Arial, sans-serif">date.truncate($autostring_2, today) - </text></g><g class="detail expression text-[10px] font-mono" transform="translate(0, 74)"><text font-size="10" x="3" text-anchor="start" fill="#1A1B1D" font-family="Helvetica Neue, Helvetica, Arial, sans-serif">RuntimeConstant(duration({months: $autoint</text></g><g class="detail expression text-[10px] font-mono" transform="translate(0, 88)"><text font-size="10" x="3" text-anchor="start" fill="#1A1B1D" font-family="Helvetica Neue, Helvetica, Arial, sans-serif">_3})) AS first_of_previous_month</text></g><path class="cost" fill="#BB2D00" d="M 252 94 A 8 8 0 0 1 252 94 L 8 94 A 8 8 0 0 1 8 94 Z"/><rect class="b-outline" width="260" rx="8" ry="8" fill="none" stroke-width="1" style="stroke: rgb(187, 190, 195);" height="94"/></g><g class="operator" transform="translate(24.527677536010742, -1428)"><rect class="background" width="260" height="80" rx="8" ry="8" fill="rgb(255, 255, 255)"/><g class="header" pointer-events="all"><path class="banner" d="M 252 0 A 8 8 0 0 1 260 8 L 260 18 A 8 8 0 0 1 260 26 L 0 26 A 8 8 0 0 1 0 18 L 0 8 A 8 8 0 0 1 8 0 Z" style="fill: rgb(160, 123, 236);"/><path class="expand" fill="#000000" d="M -5 -10 L 8.66 0 L -5 10 Z" transform="translate(13, 13) rotate(90) scale(0.5,0.5)"/><text class="title text-[12px] font-bold" x="26" y="17" fill="#000000" font-family="Helvetica Neue, Helvetica, Arial, sans-serif">Projection@neo4j</text></g><g class="detail identifiers text-[10px] font-mono" transform="translate(0, 40)"><text font-size="10" x="3" text-anchor="start" fill="#1A1B1D" font-family="Helvetica Neue, Helvetica, Arial, sans-serif">today</text></g><g class="detail padding text-[10px]" transform="translate(0, 54)"><text font-size="10" x="3" text-anchor="start" fill="#1A1B1D" font-family="Helvetica Neue, Helvetica, Arial, sans-serif"/><path class="divider" visibility="visible" d="M 0 -6 L 260 -6" stroke="#DFE1E3"/></g><g class="detail expression text-[10px] font-mono" transform="translate(0, 60)"><text font-size="10" x="3" text-anchor="start" fill="#1A1B1D" font-family="Helvetica Neue, Helvetica, Arial, sans-serif">RuntimeConstant(date($autostring_0 + $</text></g><g class="detail expression text-[10px] font-mono" transform="translate(0, 74)"><text font-size="10" x="3" text-anchor="start" fill="#1A1B1D" font-family="Helvetica Neue, Helvetica, Arial, sans-serif">autostring_1)) AS today</text></g><path class="cost" fill="#BB2D00" d="M 252 80 A 8 8 0 0 1 252 80 L 8 80 A 8 8 0 0 1 8 80 Z"/><rect class="b-outline" width="260" rx="8" ry="8" fill="none" stroke-width="1" style="stroke: rgb(187, 190, 195);" height="80"/></g><g class="operator" transform="translate(355.113525390625, -1284)"><rect class="background" width="260" height="136" rx="8" ry="8" fill="rgb(255, 255, 255)"/><g class="header" pointer-events="all"><path class="banner" d="M 252 0 A 8 8 0 0 1 260 8 L 260 18 A 8 8 0 0 1 260 26 L 0 26 A 8 8 0 0 1 0 18 L 0 8 A 8 8 0 0 1 8 0 Z" style="fill: rgb(44, 42, 52);"/><path class="expand" fill="#FFFFFF" d="M -5 -10 L 8.66 0 L -5 10 Z" transform="translate(13, 13) rotate(90) scale(0.5,0.5)"/><text class="title text-[12px] font-bold" x="26" y="17" fill="#FFFFFF" font-family="Helvetica Neue, Helvetica, Arial, sans-serif">OptionalExpand(All)@neo4j</text></g><g class="detail identifiers text-[10px] font-mono" transform="translate(0, 40)"><text font-size="10" x="3" text-anchor="start" fill="#1A1B1D" font-family="Helvetica Neue, Helvetica, Arial, sans-serif">first_of_previous_month, anon_0, today, tx</text></g><g class="detail identifiers text-[10px] font-mono" transform="translate(0, 54)"><text font-size="10" x="3" text-anchor="start" fill="#1A1B1D" font-family="Helvetica Neue, Helvetica, Arial, sans-serif">_prev_month, t</text></g><g class="detail padding text-[10px]" transform="translate(0, 68)"><text font-size="10" x="3" text-anchor="start" fill="#1A1B1D" font-family="Helvetica Neue, Helvetica, Arial, sans-serif"/><path class="divider" visibility="visible" d="M 0 -6 L 260 -6" stroke="#DFE1E3"/></g><g class="detail expression text-[10px] font-mono" transform="translate(0, 74)"><text font-size="10" x="3" text-anchor="start" fill="#1A1B1D" font-family="Helvetica Neue, Helvetica, Arial, sans-serif">(t)&lt;-[tx_prev_month:Make_transaction]-(</text></g><g class="detail expression text-[10px] font-mono" transform="translate(0, 88)"><text font-size="10" x="3" text-anchor="start" fill="#1A1B1D" font-family="Helvetica Neue, Helvetica, Arial, sans-serif">anon_0) WHERE anon_0:Customer AND tx_prev_</text></g><g class="detail expression text-[10px] font-mono" transform="translate(0, 102)"><text font-size="10" x="3" text-anchor="start" fill="#1A1B1D" font-family="Helvetica Neue, Helvetica, Arial, sans-serif">month.tx_date_month = first_of_previous_</text></g><g class="detail expression text-[10px] font-mono" transform="translate(0, 116)"><text font-size="10" x="3" text-anchor="start" fill="#1A1B1D" font-family="Helvetica Neue, Helvetica, Arial, sans-serif">month.month AND tx_prev_month.tx_date_year</text></g><g class="detail expression text-[10px] font-mono" transform="translate(0, 130)"><text font-size="10" x="3" text-anchor="start" fill="#1A1B1D" font-family="Helvetica Neue, Helvetica, Arial, sans-serif"> = first_of_previous_month.year</text></g><path class="cost" fill="#BB2D00" d="M 252 136 A 8 8 0 0 1 252 136 L 8 136 A 8 8 0 0 1 8 136 Z"/><rect class="b-outline" width="260" rx="8" ry="8" fill="none" stroke-width="1" style="stroke: rgb(187, 190, 195);" height="136"/></g><g class="operator" transform="translate(354.6894836425781, -1428)"><rect class="background" width="260" height="94" rx="8" ry="8" fill="rgb(255, 255, 255)"/><g class="header" pointer-events="all"><path class="banner" d="M 252 0 A 8 8 0 0 1 260 8 L 260 18 A 8 8 0 0 1 260 26 L 0 26 A 8 8 0 0 1 0 18 L 0 8 A 8 8 0 0 1 8 0 Z" style="fill: rgb(204, 180, 255);"/><path class="expand" fill="#000000" d="M -5 -10 L 8.66 0 L -5 10 Z" transform="translate(13, 13) rotate(90) scale(0.5,0.5)"/><text class="title text-[12px] font-bold" x="26" y="17" fill="#000000" font-family="Helvetica Neue, Helvetica, Arial, sans-serif">NodeIndexScan@neo4j</text></g><g class="detail identifiers text-[10px] font-mono" transform="translate(0, 40)"><text font-size="10" x="3" text-anchor="start" fill="#1A1B1D" font-family="Helvetica Neue, Helvetica, Arial, sans-serif">today, first_of_previous_month, t</text></g><g class="detail padding text-[10px]" transform="translate(0, 54)"><text font-size="10" x="3" text-anchor="start" fill="#1A1B1D" font-family="Helvetica Neue, Helvetica, Arial, sans-serif"/><path class="divider" visibility="visible" d="M 0 -6 L 260 -6" stroke="#DFE1E3"/></g><g class="detail expression text-[10px] font-mono" transform="translate(0, 60)"><text font-size="10" x="3" text-anchor="start" fill="#1A1B1D" font-family="Helvetica Neue, Helvetica, Arial, sans-serif">RANGE INDEX t:Terminal(terminal_id) WHERE </text></g><g class="detail expression text-[10px] font-mono" transform="translate(0, 74)"><text font-size="10" x="3" text-anchor="start" fill="#1A1B1D" font-family="Helvetica Neue, Helvetica, Arial, sans-serif">terminal_id IS NOT NULL, cache[t.terminal_</text></g><g class="detail expression text-[10px] font-mono" transform="translate(0, 88)"><text font-size="10" x="3" text-anchor="start" fill="#1A1B1D" font-family="Helvetica Neue, Helvetica, Arial, sans-serif">id]</text></g><path class="cost" fill="#BB2D00" d="M 252 94 A 8 8 0 0 1 252 94 L 8 94 A 8 8 0 0 1 8 94 Z"/><rect class="b-outline" width="260" rx="8" ry="8" fill="none" stroke-width="1" style="stroke: rgb(187, 190, 195);" height="94"/></g></g></svg>