<svg xmlns="http://www.w3.org/2000/svg" height="1812" width="611.984375" viewBox="8.62388801574707 -1862 611.984375 1812"><g class="layer links"><g class="link"><path fill="#E2E3E5" d="M 143.70598460830246 -1740 C 143.70598460830246 -1691.4469637544782 124.96823080958416 -1691.4469637544782 124.96823080958416 -1648 L 116.94763089630453 -1648 C 116.94763089630453 -1696.5530362455218 135.68538469502283 -1696.5530362455218 135.68538469502283 -1740 Z"/><text class="text-[12px] font-bold" fill="#1A1B1D" x="139.69568465166265" y="-1714" text-anchor="middle" font-family="Helvetica Neue, Helvetica, Arial, sans-serif">1 estimated row</text></g><g class="link"><path fill="#E2E3E5" d="M 491.086304449491 -1698 C 491.086304449491 -1657.0845056908104 207.7494704052409 -1657.0845056908104 207.7494704052409 -1648 L 124.96823080958416 -1648 C 124.96823080958416 -1688.9154943091896 408.30506485383427 -1688.9154943091896 408.30506485383427 -1698 Z"/><text class="text-[12px] font-bold" fill="#1A1B1D" x="449.69568465166265" y="-1672" text-anchor="middle" font-family="Helvetica Neue, Helvetica, Arial, sans-serif">10.940 estimated rows</text></g><g class="link"><path fill="#E2E3E5" d="M 203.7391704486011 -1588 C 203.7391704486011 -1505.6499130461534 194.28202151957066 -1505.6499130461534 194.28202151957066 -1476 L 111.50078192391388 -1476 C 111.50078192391388 -1558.3500869538466 120.95793085294434 -1558.3500869538466 120.95793085294434 -1588 Z"/><text class="text-[12px] font-bold" fill="#1A1B1D" x="162.34855065077272" y="-1562" text-anchor="middle" font-family="Helvetica Neue, Helvetica, Arial, sans-serif">10.940 estimated rows</text></g><g class="link"><path fill="#E2E3E5" d="M 194.28202151957063 -1396 C 194.28202151957063 -1381.8281711223356 194.6562789722949 -1381.8281711223356 194.6562789722949 -1318 L 111.87503937663813 -1318 C 111.87503937663813 -1332.1718288776644 111.50078192391388 -1332.1718288776644 111.50078192391388 -1396 Z"/><text class="text-[12px] font-bold" fill="#1A1B1D" x="152.89140172174226" y="-1370" text-anchor="middle" font-family="Helvetica Neue, Helvetica, Arial, sans-serif">10.940 estimated rows</text></g><g class="link"><path fill="#E2E3E5" d="M 174.50209487748518 -1154 C 174.50209487748518 -1142.5195348631546 179.59750202600358 -1142.5195348631546 179.59750202600358 -1104 L 137.12463061996627 -1104 C 137.12463061996627 -1115.4804651368454 132.02922347144786 -1115.4804651368454 132.02922347144786 -1154 Z"/><text class="text-[12px] font-bold" fill="#1A1B1D" x="153.26565917446652" y="-1128" text-anchor="middle" font-family="Helvetica Neue, Helvetica, Arial, sans-serif">105 estimated rows</text></g><g class="link"><path fill="#E2E3E5" d="M 169.86377018487488 -954 C 169.86377018487488 -936.3228487141681 314.2810406620478 -936.3228487141681 314.2810406620478 -904 L 291.2756329382679 -904 C 291.2756329382679 -921.6771512858319 146.85836246109497 -921.6771512858319 146.85836246109497 -954 Z"/><text class="text-[12px] font-bold" fill="#1A1B1D" x="158.36106632298493" y="-928" text-anchor="middle" font-family="Helvetica Neue, Helvetica, Arial, sans-serif">10 estimated rows</text></g><g class="link"><path fill="#E2E3E5" d="M 517.6322684123613 -1526 C 517.6322684123613 -1485.0845056908104 514.0087699929893 -1485.0845056908104 514.0087699929893 -1476 L 457.8172891656563 -1476 C 457.8172891656563 -1516.9154943091896 461.4407875850284 -1516.9154943091896 461.4407875850284 -1526 Z"/><text class="text-[12px] font-bold" fill="#1A1B1D" x="489.53652799869485" y="-1500" text-anchor="middle" font-family="Helvetica Neue, Helvetica, Arial, sans-serif">511 estimated rows</text></g><g class="link"><path fill="#E2E3E5" d="M 527.2239247727108 -1368 C 527.2239247727108 -1327.0845056908104 523.4351501477785 -1327.0845056908104 523.4351501477785 -1318 L 440.8133597610024 -1318 C 440.8133597610024 -1358.9154943091896 444.60213438593473 -1358.9154943091896 444.60213438593473 -1368 Z"/><text class="text-[12px] font-bold" fill="#1A1B1D" x="485.91302957932277" y="-1342" text-anchor="middle" font-family="Helvetica Neue, Helvetica, Arial, sans-serif">10.741 estimated rows</text></g><g class="link"><path fill="#E2E3E5" d="M 509.64232649846804 -1182 C 509.64232649846804 -1125.4814515576145 495.8791378670625 -1125.4814515576145 495.8791378670625 -1104 L 440.8429947789074 -1104 C 440.8429947789074 -1160.5185484423855 454.60618341031295 -1160.5185484423855 454.60618341031295 -1182 Z"/><text class="text-[12px] font-bold" fill="#1A1B1D" x="482.1242549543905" y="-1156" text-anchor="middle" font-family="Helvetica Neue, Helvetica, Arial, sans-serif">448 estimated rows</text></g><g class="link"><path fill="#E2E3E5" d="M 483.80975029948416 -968 C 483.80975029948416 -926.1650623235023 345.1784086150463 -926.1650623235023 345.1784086150463 -904 L 314.2810406620478 -904 C 314.2810406620478 -945.8349376764977 452.9123823464857 -945.8349376764977 452.9123823464857 -968 Z"/><text class="text-[12px] font-bold" fill="#1A1B1D" x="468.3610663229849" y="-942" text-anchor="middle" font-family="Helvetica Neue, Helvetica, Arial, sans-serif">27 estimated rows</text></g><g class="link"><path fill="#E2E3E5" d="M 333.67570475315637 -816 C 333.67570475315637 -781.1650623235023 316.88868972783155 -781.1650623235023 316.88868972783155 -766 L 285.99132177483307 -766 C 285.99132177483307 -800.8349376764977 302.7783368001579 -800.8349376764977 302.7783368001579 -816 Z"/><text class="text-[12px] font-bold" fill="#1A1B1D" x="318.2270207766571" y="-790" text-anchor="middle" font-family="Helvetica Neue, Helvetica, Arial, sans-serif">27 estimated rows</text></g><g class="link"><path fill="#E2E3E5" d="M 310.3512717835377 -602 C 310.3512717835377 -571.3269118470705 297.87087633283545 -571.3269118470705 297.87087633283545 -552 L 280.04834426842484 -552 C 280.04834426842484 -582.6730881529295 292.52873971912703 -582.6730881529295 292.52873971912703 -602 Z"/><text class="text-[12px] font-bold" fill="#1A1B1D" x="301.44000575133236" y="-576" text-anchor="middle" font-family="Helvetica Neue, Helvetica, Arial, sans-serif">5 estimated rows</text></g><g class="link"><path fill="#E2E3E5" d="M 297.8708763328355 -346 C 297.8708763328355 -315.3269118470705 289.73532462022183 -315.3269118470705 289.73532462022183 -296 L 271.9127925558112 -296 C 271.9127925558112 -326.6730881529295 280.04834426842484 -326.6730881529295 280.04834426842484 -346 Z"/><text class="text-[12px] font-bold" fill="#1A1B1D" x="288.9596103006302" y="-320" text-anchor="middle" font-family="Helvetica Neue, Helvetica, Arial, sans-serif">5 estimated rows</text></g><g class="link"><path fill="#E2E3E5" d="M 289.7353246202219 -132 C 289.7353246202219 -101.32691184707049 285.7350728388875 -101.32691184707049 285.7350728388875 -82 L 267.9125407744769 -82 C 267.9125407744769 -112.67308815292951 271.9127925558112 -112.67308815292951 271.9127925558112 -132 Z"/><text class="text-[12px] font-bold" fill="#1A1B1D" x="280.82405858801656" y="-106" text-anchor="middle" font-family="Helvetica Neue, Helvetica, Arial, sans-serif">5 estimated rows</text></g></g><g class="layer operators"><g class="operator" transform="translate(146.8238067626953, -82)"><rect class="background" width="260" height="32" rx="8" ry="8" fill="rgb(255, 255, 255)"/><g class="header" pointer-events="all"><path class="banner" d="M 252 0 A 8 8 0 0 1 260 8 L 260 18 A 8 8 0 0 1 259.7459666924148 26 L 0.25403330758516596 26 A 8 8 0 0 1 0 18 L 0 8 A 8 8 0 0 1 8 0 Z" style="fill: rgb(247, 243, 255);"/><text class="title text-[12px] font-bold" x="26" y="17" fill="#000000" font-family="Helvetica Neue, Helvetica, Arial, sans-serif">Result</text></g><path class="cost" fill="#BB2D00" d="M 252 32 A 8 8 0 0 1 252 32 L 8 32 A 8 8 0 0 1 8 32 Z"/><rect class="b-outline" width="260" rx="8" ry="8" fill="none" stroke-width="1" style="stroke: rgb(187, 190, 195);" height="32"/></g><g class="operator" transform="translate(150.82406616210938, -296)"><rect class="background" width="260" height="164" rx="8" ry="8" fill="rgb(255, 255, 255)"/><g class="header" pointer-events="all"><path class="banner" d="M 252 0 A 8 8 0 0 1 260 8 L 260 18 A 8 8 0 0 1 260 26 L 0 26 A 8 8 0 0 1 0 18 L 0 8 A 8 8 0 0 1 8 0 Z" style="fill: rgb(247, 243, 255);"/><path class="expand" fill="#000000" d="M -5 -10 L 8.66 0 L -5 10 Z" transform="translate(13, 13) rotate(90) scale(0.5,0.5)"/><text class="title text-[12px] font-bold" x="26" y="17" fill="#000000" font-family="Helvetica Neue, Helvetica, Arial, sans-serif">ProduceResults@neo4j</text></g><g class="detail identifiers text-[10px] font-mono" transform="translate(0, 40)"><text font-size="10" x="3" text-anchor="start" fill="#1A1B1D" font-family="Helvetica Neue, Helvetica, Arial, sans-serif">tx_prev_month_all_prev_year_montly_freq_</text></g><g class="detail identifiers text-[10px] font-mono" transform="translate(0, 54)"><text font-size="10" x="3" text-anchor="start" fill="#1A1B1D" font-family="Helvetica Neue, Helvetica, Arial, sans-serif">avg, is_under_monthly_freq_avg_of_same_</text></g><g class="detail identifiers text-[10px] font-mono" transform="translate(0, 68)"><text font-size="10" x="3" text-anchor="start" fill="#1A1B1D" font-family="Helvetica Neue, Helvetica, Arial, sans-serif">period, is_under_total_amount_avg_of_same_</text></g><g class="detail identifiers text-[10px] font-mono" transform="translate(0, 82)"><text font-size="10" x="3" text-anchor="start" fill="#1A1B1D" font-family="Helvetica Neue, Helvetica, Arial, sans-serif">period, tx_prev_month_all_prev_year_total_</text></g><g class="detail identifiers text-[10px] font-mono" transform="translate(0, 96)"><text font-size="10" x="3" text-anchor="start" fill="#1A1B1D" font-family="Helvetica Neue, Helvetica, Arial, sans-serif">amount_avg, c, monthly_freq_prev_month, </text></g><g class="detail identifiers text-[10px] font-mono" transform="translate(0, 110)"><text font-size="10" x="3" text-anchor="start" fill="#1A1B1D" font-family="Helvetica Neue, Helvetica, Arial, sans-serif">total_amount_prev_month</text></g><g class="detail padding text-[10px]" transform="translate(0, 124)"><text font-size="10" x="3" text-anchor="start" fill="#1A1B1D" font-family="Helvetica Neue, Helvetica, Arial, sans-serif"/><path class="divider" visibility="visible" d="M 0 -6 L 260 -6" stroke="#DFE1E3"/></g><g class="detail expression text-[10px] font-mono" transform="translate(0, 130)"><text font-size="10" x="3" text-anchor="start" fill="#1A1B1D" font-family="Helvetica Neue, Helvetica, Arial, sans-serif">c, is_under_total_amount_avg_of_same_</text></g><g class="detail expression text-[10px] font-mono" transform="translate(0, 144)"><text font-size="10" x="3" text-anchor="start" fill="#1A1B1D" font-family="Helvetica Neue, Helvetica, Arial, sans-serif">period, is_under_monthly_freq_avg_of_same_</text></g><g class="detail expression text-[10px] font-mono" transform="translate(0, 158)"><text font-size="10" x="3" text-anchor="start" fill="#1A1B1D" font-family="Helvetica Neue, Helvetica, Arial, sans-serif">period</text></g><path class="cost" fill="#BB2D00" d="M 252 164 A 8 8 0 0 1 252 164 L 8 164 A 8 8 0 0 1 8 164 Z"/><rect class="b-outline" width="260" rx="8" ry="8" fill="none" stroke-width="1" style="stroke: rgb(187, 190, 195);" height="164"/></g><g class="operator" transform="translate(158.95960998535156, -552)"><rect class="background" width="260" height="206" rx="8" ry="8" fill="rgb(255, 255, 255)"/><g class="header" pointer-events="all"><path class="banner" d="M 252 0 A 8 8 0 0 1 260 8 L 260 18 A 8 8 0 0 1 260 26 L 0 26 A 8 8 0 0 1 0 18 L 0 8 A 8 8 0 0 1 8 0 Z" style="fill: rgb(160, 123, 236);"/><path class="expand" fill="#000000" d="M -5 -10 L 8.66 0 L -5 10 Z" transform="translate(13, 13) rotate(90) scale(0.5,0.5)"/><text class="title text-[12px] font-bold" x="26" y="17" fill="#000000" font-family="Helvetica Neue, Helvetica, Arial, sans-serif">Projection@neo4j</text></g><g class="detail identifiers text-[10px] font-mono" transform="translate(0, 40)"><text font-size="10" x="3" text-anchor="start" fill="#1A1B1D" font-family="Helvetica Neue, Helvetica, Arial, sans-serif">tx_prev_month_all_prev_year_montly_freq_</text></g><g class="detail identifiers text-[10px] font-mono" transform="translate(0, 54)"><text font-size="10" x="3" text-anchor="start" fill="#1A1B1D" font-family="Helvetica Neue, Helvetica, Arial, sans-serif">avg, is_under_monthly_freq_avg_of_same_</text></g><g class="detail identifiers text-[10px] font-mono" transform="translate(0, 68)"><text font-size="10" x="3" text-anchor="start" fill="#1A1B1D" font-family="Helvetica Neue, Helvetica, Arial, sans-serif">period, is_under_total_amount_avg_of_same_</text></g><g class="detail identifiers text-[10px] font-mono" transform="translate(0, 82)"><text font-size="10" x="3" text-anchor="start" fill="#1A1B1D" font-family="Helvetica Neue, Helvetica, Arial, sans-serif">period, tx_prev_month_all_prev_year_total_</text></g><g class="detail identifiers text-[10px] font-mono" transform="translate(0, 96)"><text font-size="10" x="3" text-anchor="start" fill="#1A1B1D" font-family="Helvetica Neue, Helvetica, Arial, sans-serif">amount_avg, c, monthly_freq_prev_month, </text></g><g class="detail identifiers text-[10px] font-mono" transform="translate(0, 110)"><text font-size="10" x="3" text-anchor="start" fill="#1A1B1D" font-family="Helvetica Neue, Helvetica, Arial, sans-serif">total_amount_prev_month</text></g><g class="detail padding text-[10px]" transform="translate(0, 124)"><text font-size="10" x="3" text-anchor="start" fill="#1A1B1D" font-family="Helvetica Neue, Helvetica, Arial, sans-serif"/><path class="divider" visibility="visible" d="M 0 -6 L 260 -6" stroke="#DFE1E3"/></g><g class="detail expression text-[10px] font-mono" transform="translate(0, 130)"><text font-size="10" x="3" text-anchor="start" fill="#1A1B1D" font-family="Helvetica Neue, Helvetica, Arial, sans-serif">total_amount_prev_month &lt; tx_prev_month_</text></g><g class="detail expression text-[10px] font-mono" transform="translate(0, 144)"><text font-size="10" x="3" text-anchor="start" fill="#1A1B1D" font-family="Helvetica Neue, Helvetica, Arial, sans-serif">all_prev_year_total_amount_avg AS is_under</text></g><g class="detail expression text-[10px] font-mono" transform="translate(0, 158)"><text font-size="10" x="3" text-anchor="start" fill="#1A1B1D" font-family="Helvetica Neue, Helvetica, Arial, sans-serif">_total_amount_avg_of_same_period, monthly_</text></g><g class="detail expression text-[10px] font-mono" transform="translate(0, 172)"><text font-size="10" x="3" text-anchor="start" fill="#1A1B1D" font-family="Helvetica Neue, Helvetica, Arial, sans-serif">freq_prev_month &lt; tx_prev_month_all_prev_</text></g><g class="detail expression text-[10px] font-mono" transform="translate(0, 186)"><text font-size="10" x="3" text-anchor="start" fill="#1A1B1D" font-family="Helvetica Neue, Helvetica, Arial, sans-serif">year_montly_freq_avg AS is_under_monthly_</text></g><g class="detail expression text-[10px] font-mono" transform="translate(0, 200)"><text font-size="10" x="3" text-anchor="start" fill="#1A1B1D" font-family="Helvetica Neue, Helvetica, Arial, sans-serif">freq_avg_of_same_period</text></g><path class="cost" fill="#BB2D00" d="M 252 206 A 8 8 0 0 1 252 206 L 8 206 A 8 8 0 0 1 8 206 Z"/><rect class="b-outline" width="260" rx="8" ry="8" fill="none" stroke-width="1" style="stroke: rgb(187, 190, 195);" height="206"/></g><g class="operator" transform="translate(171.44000244140625, -766)"><rect class="background" width="260" height="164" rx="8" ry="8" fill="rgb(255, 255, 255)"/><g class="header" pointer-events="all"><path class="banner" d="M 252 0 A 8 8 0 0 1 260 8 L 260 18 A 8 8 0 0 1 260 26 L 0 26 A 8 8 0 0 1 0 18 L 0 8 A 8 8 0 0 1 8 0 Z" style="fill: rgb(23, 1, 70);"/><path class="expand" fill="#FFFFFF" d="M -5 -10 L 8.66 0 L -5 10 Z" transform="translate(13, 13) rotate(90) scale(0.5,0.5)"/><text class="title text-[12px] font-bold" x="26" y="17" fill="#FFFFFF" font-family="Helvetica Neue, Helvetica, Arial, sans-serif">EagerAggregation@neo4j</text></g><g class="detail identifiers text-[10px] font-mono" transform="translate(0, 40)"><text font-size="10" x="3" text-anchor="start" fill="#1A1B1D" font-family="Helvetica Neue, Helvetica, Arial, sans-serif">tx_prev_month_all_prev_year_montly_freq_</text></g><g class="detail identifiers text-[10px] font-mono" transform="translate(0, 54)"><text font-size="10" x="3" text-anchor="start" fill="#1A1B1D" font-family="Helvetica Neue, Helvetica, Arial, sans-serif">avg, tx_prev_month_all_prev_year_total_</text></g><g class="detail identifiers text-[10px] font-mono" transform="translate(0, 68)"><text font-size="10" x="3" text-anchor="start" fill="#1A1B1D" font-family="Helvetica Neue, Helvetica, Arial, sans-serif">amount_avg, c, monthly_freq_prev_month, </text></g><g class="detail identifiers text-[10px] font-mono" transform="translate(0, 82)"><text font-size="10" x="3" text-anchor="start" fill="#1A1B1D" font-family="Helvetica Neue, Helvetica, Arial, sans-serif">total_amount_prev_month</text></g><g class="detail padding text-[10px]" transform="translate(0, 96)"><text font-size="10" x="3" text-anchor="start" fill="#1A1B1D" font-family="Helvetica Neue, Helvetica, Arial, sans-serif"/><path class="divider" visibility="visible" d="M 0 -6 L 260 -6" stroke="#DFE1E3"/></g><g class="detail expression text-[10px] font-mono" transform="translate(0, 102)"><text font-size="10" x="3" text-anchor="start" fill="#1A1B1D" font-family="Helvetica Neue, Helvetica, Arial, sans-serif">c, tx_prev_month_all_prev_year_total_</text></g><g class="detail expression text-[10px] font-mono" transform="translate(0, 116)"><text font-size="10" x="3" text-anchor="start" fill="#1A1B1D" font-family="Helvetica Neue, Helvetica, Arial, sans-serif">amount_avg, tx_prev_month_all_prev_year_</text></g><g class="detail expression text-[10px] font-mono" transform="translate(0, 130)"><text font-size="10" x="3" text-anchor="start" fill="#1A1B1D" font-family="Helvetica Neue, Helvetica, Arial, sans-serif">montly_freq_avg, SUM(tx.tx_amount) AS </text></g><g class="detail expression text-[10px] font-mono" transform="translate(0, 144)"><text font-size="10" x="3" text-anchor="start" fill="#1A1B1D" font-family="Helvetica Neue, Helvetica, Arial, sans-serif">total_amount_prev_month, COUNT(tx) AS </text></g><g class="detail expression text-[10px] font-mono" transform="translate(0, 158)"><text font-size="10" x="3" text-anchor="start" fill="#1A1B1D" font-family="Helvetica Neue, Helvetica, Arial, sans-serif">monthly_freq_prev_month</text></g><path class="cost" fill="#BB2D00" d="M 252 164 A 8 8 0 0 1 252 164 L 8 164 A 8 8 0 0 1 8 164 Z"/><rect class="b-outline" width="260" rx="8" ry="8" fill="none" stroke-width="1" style="stroke: rgb(187, 190, 195);" height="164"/></g><g class="operator" transform="translate(188.22702026367188, -904)"><rect class="background" width="260" height="88" rx="8" ry="8" fill="rgb(255, 255, 255)"/><g class="header" pointer-events="all"><path class="banner" d="M 252 0 A 8 8 0 0 1 260 8 L 260 18 A 8 8 0 0 1 260 26 L 0 26 A 8 8 0 0 1 0 18 L 0 8 A 8 8 0 0 1 8 0 Z" style="fill: rgb(75, 40, 148);"/><path class="expand" fill="#FFFFFF" d="M -5 -10 L 8.66 0 L -5 10 Z" transform="translate(13, 13) rotate(90) scale(0.5,0.5)"/><text class="title text-[12px] font-bold" x="26" y="17" fill="#FFFFFF" font-family="Helvetica Neue, Helvetica, Arial, sans-serif">Apply@neo4j</text></g><g class="detail identifiers text-[10px] font-mono" transform="translate(0, 40)"><text font-size="10" x="3" text-anchor="start" fill="#1A1B1D" font-family="Helvetica Neue, Helvetica, Arial, sans-serif">first_of_previous_month, tx_prev_month_all</text></g><g class="detail identifiers text-[10px] font-mono" transform="translate(0, 54)"><text font-size="10" x="3" text-anchor="start" fill="#1A1B1D" font-family="Helvetica Neue, Helvetica, Arial, sans-serif">_prev_year_montly_freq_avg, anon_1, tx_</text></g><g class="detail identifiers text-[10px] font-mono" transform="translate(0, 68)"><text font-size="10" x="3" text-anchor="start" fill="#1A1B1D" font-family="Helvetica Neue, Helvetica, Arial, sans-serif">prev_month_all_prev_year_total_amount_avg,</text></g><g class="detail identifiers text-[10px] font-mono" transform="translate(0, 82)"><text font-size="10" x="3" text-anchor="start" fill="#1A1B1D" font-family="Helvetica Neue, Helvetica, Arial, sans-serif"> c, tx</text></g><path class="cost" fill="#BB2D00" d="M 252 88 A 8 8 0 0 1 252 88 L 8 88 A 8 8 0 0 1 8 88 Z"/><rect class="b-outline" width="260" rx="8" ry="8" fill="none" stroke-width="1" style="stroke: rgb(187, 190, 195);" height="88"/></g><g class="operator" transform="translate(28.361066818237305, -1104)"><rect class="background" width="260" height="150" rx="8" ry="8" fill="rgb(255, 255, 255)"/><g class="header" pointer-events="all"><path class="banner" d="M 252 0 A 8 8 0 0 1 260 8 L 260 18 A 8 8 0 0 1 260 26 L 0 26 A 8 8 0 0 1 0 18 L 0 8 A 8 8 0 0 1 8 0 Z" style="fill: rgb(23, 1, 70);"/><path class="expand" fill="#FFFFFF" d="M -5 -10 L 8.66 0 L -5 10 Z" transform="translate(13, 13) rotate(90) scale(0.5,0.5)"/><text class="title text-[12px] font-bold" x="26" y="17" fill="#FFFFFF" font-family="Helvetica Neue, Helvetica, Arial, sans-serif">EagerAggregation@neo4j</text></g><g class="detail identifiers text-[10px] font-mono" transform="translate(0, 40)"><text font-size="10" x="3" text-anchor="start" fill="#1A1B1D" font-family="Helvetica Neue, Helvetica, Arial, sans-serif">first_of_previous_month, c, tx_prev_month_</text></g><g class="detail identifiers text-[10px] font-mono" transform="translate(0, 54)"><text font-size="10" x="3" text-anchor="start" fill="#1A1B1D" font-family="Helvetica Neue, Helvetica, Arial, sans-serif">all_prev_year_total_amount_avg, tx_prev_</text></g><g class="detail identifiers text-[10px] font-mono" transform="translate(0, 68)"><text font-size="10" x="3" text-anchor="start" fill="#1A1B1D" font-family="Helvetica Neue, Helvetica, Arial, sans-serif">month_all_prev_year_montly_freq_avg</text></g><g class="detail padding text-[10px]" transform="translate(0, 82)"><text font-size="10" x="3" text-anchor="start" fill="#1A1B1D" font-family="Helvetica Neue, Helvetica, Arial, sans-serif"/><path class="divider" visibility="visible" d="M 0 -6 L 260 -6" stroke="#DFE1E3"/></g><g class="detail expression text-[10px] font-mono" transform="translate(0, 88)"><text font-size="10" x="3" text-anchor="start" fill="#1A1B1D" font-family="Helvetica Neue, Helvetica, Arial, sans-serif">first_of_previous_month, c, AVG(tx_prev_</text></g><g class="detail expression text-[10px] font-mono" transform="translate(0, 102)"><text font-size="10" x="3" text-anchor="start" fill="#1A1B1D" font-family="Helvetica Neue, Helvetica, Arial, sans-serif">month_prev_year_total_amount) AS tx_prev_</text></g><g class="detail expression text-[10px] font-mono" transform="translate(0, 116)"><text font-size="10" x="3" text-anchor="start" fill="#1A1B1D" font-family="Helvetica Neue, Helvetica, Arial, sans-serif">month_all_prev_year_total_amount_avg, AVG(</text></g><g class="detail expression text-[10px] font-mono" transform="translate(0, 130)"><text font-size="10" x="3" text-anchor="start" fill="#1A1B1D" font-family="Helvetica Neue, Helvetica, Arial, sans-serif">tx_prev_month_prev_year_montly_freq) AS tx</text></g><g class="detail expression text-[10px] font-mono" transform="translate(0, 144)"><text font-size="10" x="3" text-anchor="start" fill="#1A1B1D" font-family="Helvetica Neue, Helvetica, Arial, sans-serif">_prev_month_all_prev_year_montly_freq_avg</text></g><path class="cost" fill="#BB2D00" d="M 252 150 A 8 8 0 0 1 252 150 L 8 150 A 8 8 0 0 1 8 150 Z"/><rect class="b-outline" width="260" rx="8" ry="8" fill="none" stroke-width="1" style="stroke: rgb(187, 190, 195);" height="150"/></g><g class="operator" transform="translate(23.26565933227539, -1318)"><rect class="background" width="260" height="164" rx="8" ry="8" fill="rgb(255, 255, 255)"/><g class="header" pointer-events="all"><path class="banner" d="M 252 0 A 8 8 0 0 1 260 8 L 260 18 A 8 8 0 0 1 260 26 L 0 26 A 8 8 0 0 1 0 18 L 0 8 A 8 8 0 0 1 8 0 Z" style="fill: rgb(23, 1, 70);"/><path class="expand" fill="#FFFFFF" d="M -5 -10 L 8.66 0 L -5 10 Z" transform="translate(13, 13) rotate(90) scale(0.5,0.5)"/><text class="title text-[12px] font-bold" x="26" y="17" fill="#FFFFFF" font-family="Helvetica Neue, Helvetica, Arial, sans-serif">EagerAggregation@neo4j</text></g><g class="detail identifiers text-[10px] font-mono" transform="translate(0, 40)"><text font-size="10" x="3" text-anchor="start" fill="#1A1B1D" font-family="Helvetica Neue, Helvetica, Arial, sans-serif">first_of_previous_month, tx_prev_month_</text></g><g class="detail identifiers text-[10px] font-mono" transform="translate(0, 54)"><text font-size="10" x="3" text-anchor="start" fill="#1A1B1D" font-family="Helvetica Neue, Helvetica, Arial, sans-serif">prev_year_montly_freq, c, year, tx_prev_</text></g><g class="detail identifiers text-[10px] font-mono" transform="translate(0, 68)"><text font-size="10" x="3" text-anchor="start" fill="#1A1B1D" font-family="Helvetica Neue, Helvetica, Arial, sans-serif">month_prev_year_total_amount</text></g><g class="detail padding text-[10px]" transform="translate(0, 82)"><text font-size="10" x="3" text-anchor="start" fill="#1A1B1D" font-family="Helvetica Neue, Helvetica, Arial, sans-serif"/><path class="divider" visibility="visible" d="M 0 -6 L 260 -6" stroke="#DFE1E3"/></g><g class="detail expression text-[10px] font-mono" transform="translate(0, 88)"><text font-size="10" x="3" text-anchor="start" fill="#1A1B1D" font-family="Helvetica Neue, Helvetica, Arial, sans-serif">first_of_previous_month, c, cache[tx_prev_</text></g><g class="detail expression text-[10px] font-mono" transform="translate(0, 102)"><text font-size="10" x="3" text-anchor="start" fill="#1A1B1D" font-family="Helvetica Neue, Helvetica, Arial, sans-serif">month_all_prev_year.tx_date_year] AS year,</text></g><g class="detail expression text-[10px] font-mono" transform="translate(0, 116)"><text font-size="10" x="3" text-anchor="start" fill="#1A1B1D" font-family="Helvetica Neue, Helvetica, Arial, sans-serif"> SUM(tx_prev_month_all_prev_year.tx_amount</text></g><g class="detail expression text-[10px] font-mono" transform="translate(0, 130)"><text font-size="10" x="3" text-anchor="start" fill="#1A1B1D" font-family="Helvetica Neue, Helvetica, Arial, sans-serif">) AS tx_prev_month_prev_year_total_amount,</text></g><g class="detail expression text-[10px] font-mono" transform="translate(0, 144)"><text font-size="10" x="3" text-anchor="start" fill="#1A1B1D" font-family="Helvetica Neue, Helvetica, Arial, sans-serif"> COUNT(tx_prev_month_all_prev_year) AS tx_</text></g><g class="detail expression text-[10px] font-mono" transform="translate(0, 158)"><text font-size="10" x="3" text-anchor="start" fill="#1A1B1D" font-family="Helvetica Neue, Helvetica, Arial, sans-serif">prev_month_prev_year_montly_freq</text></g><path class="cost" fill="#BB2D00" d="M 252 164 A 8 8 0 0 1 252 164 L 8 164 A 8 8 0 0 1 8 164 Z"/><rect class="b-outline" width="260" rx="8" ry="8" fill="none" stroke-width="1" style="stroke: rgb(187, 190, 195);" height="164"/></g><g class="operator" transform="translate(22.891401290893555, -1476)"><rect class="background" width="260" height="80" rx="8" ry="8" fill="rgb(255, 255, 255)"/><g class="header" pointer-events="all"><path class="banner" d="M 252 0 A 8 8 0 0 1 260 8 L 260 18 A 8 8 0 0 1 260 26 L 0 26 A 8 8 0 0 1 0 18 L 0 8 A 8 8 0 0 1 8 0 Z" style="fill: rgb(75, 40, 148);"/><path class="expand" fill="#FFFFFF" d="M -5 -10 L 8.66 0 L -5 10 Z" transform="translate(13, 13) rotate(90) scale(0.5,0.5)"/><text class="title text-[12px] font-bold" x="26" y="17" fill="#FFFFFF" font-family="Helvetica Neue, Helvetica, Arial, sans-serif">Filter@neo4j</text></g><g class="detail identifiers text-[10px] font-mono" transform="translate(0, 40)"><text font-size="10" x="3" text-anchor="start" fill="#1A1B1D" font-family="Helvetica Neue, Helvetica, Arial, sans-serif">first_of_previous_month, tx_prev_month_all</text></g><g class="detail identifiers text-[10px] font-mono" transform="translate(0, 54)"><text font-size="10" x="3" text-anchor="start" fill="#1A1B1D" font-family="Helvetica Neue, Helvetica, Arial, sans-serif">_prev_year, c, anon_0</text></g><g class="detail padding text-[10px]" transform="translate(0, 68)"><text font-size="10" x="3" text-anchor="start" fill="#1A1B1D" font-family="Helvetica Neue, Helvetica, Arial, sans-serif"/><path class="divider" visibility="visible" d="M 0 -6 L 260 -6" stroke="#DFE1E3"/></g><g class="detail expression text-[10px] font-mono" transform="translate(0, 74)"><text font-size="10" x="3" text-anchor="start" fill="#1A1B1D" font-family="Helvetica Neue, Helvetica, Arial, sans-serif">anon_0:Terminal</text></g><path class="cost" fill="#BB2D00" d="M 252 80 A 8 8 0 0 1 252 80 L 8 80 A 8 8 0 0 1 8 80 Z"/><rect class="b-outline" width="260" rx="8" ry="8" fill="none" stroke-width="1" style="stroke: rgb(187, 190, 195);" height="80"/></g><g class="operator" transform="translate(32.348548889160156, -1648)"><rect class="background" width="260" height="60" rx="8" ry="8" fill="rgb(255, 255, 255)"/><g class="header" pointer-events="all"><path class="banner" d="M 252 0 A 8 8 0 0 1 260 8 L 260 18 A 8 8 0 0 1 260 26 L 0 26 A 8 8 0 0 1 0 18 L 0 8 A 8 8 0 0 1 8 0 Z" style="fill: rgb(75, 40, 148);"/><path class="expand" fill="#FFFFFF" d="M -5 -10 L 8.66 0 L -5 10 Z" transform="translate(13, 13) rotate(90) scale(0.5,0.5)"/><text class="title text-[12px] font-bold" x="26" y="17" fill="#FFFFFF" font-family="Helvetica Neue, Helvetica, Arial, sans-serif">Apply@neo4j</text></g><g class="detail identifiers text-[10px] font-mono" transform="translate(0, 40)"><text font-size="10" x="3" text-anchor="start" fill="#1A1B1D" font-family="Helvetica Neue, Helvetica, Arial, sans-serif">first_of_previous_month, tx_prev_month_all</text></g><g class="detail identifiers text-[10px] font-mono" transform="translate(0, 54)"><text font-size="10" x="3" text-anchor="start" fill="#1A1B1D" font-family="Helvetica Neue, Helvetica, Arial, sans-serif">_prev_year, c, anon_0</text></g><path class="cost" fill="#BB2D00" d="M 252 60 A 8 8 0 0 1 252 60 L 8 60 A 8 8 0 0 1 8 60 Z"/><rect class="b-outline" width="260" rx="8" ry="8" fill="none" stroke-width="1" style="stroke: rgb(187, 190, 195);" height="60"/></g><g class="operator" transform="translate(9.695684432983398, -1862)"><rect class="background" width="260" height="122" rx="8" ry="8" fill="rgb(255, 255, 255)"/><g class="header" pointer-events="all"><path class="banner" d="M 252 0 A 8 8 0 0 1 260 8 L 260 18 A 8 8 0 0 1 260 26 L 0 26 A 8 8 0 0 1 0 18 L 0 8 A 8 8 0 0 1 8 0 Z" style="fill: rgb(160, 123, 236);"/><path class="expand" fill="#000000" d="M -5 -10 L 8.66 0 L -5 10 Z" transform="translate(13, 13) rotate(90) scale(0.5,0.5)"/><text class="title text-[12px] font-bold" x="26" y="17" fill="#000000" font-family="Helvetica Neue, Helvetica, Arial, sans-serif">Projection@neo4j</text></g><g class="detail identifiers text-[10px] font-mono" transform="translate(0, 40)"><text font-size="10" x="3" text-anchor="start" fill="#1A1B1D" font-family="Helvetica Neue, Helvetica, Arial, sans-serif">first_of_previous_month</text></g><g class="detail padding text-[10px]" transform="translate(0, 54)"><text font-size="10" x="3" text-anchor="start" fill="#1A1B1D" font-family="Helvetica Neue, Helvetica, Arial, sans-serif"/><path class="divider" visibility="visible" d="M 0 -6 L 260 -6" stroke="#DFE1E3"/></g><g class="detail expression text-[10px] font-mono" transform="translate(0, 60)"><text font-size="10" x="3" text-anchor="start" fill="#1A1B1D" font-family="Helvetica Neue, Helvetica, Arial, sans-serif">date.truncate($autostring_0, </text></g><g class="detail expression text-[10px] font-mono" transform="translate(0, 74)"><text font-size="10" x="3" text-anchor="start" fill="#1A1B1D" font-family="Helvetica Neue, Helvetica, Arial, sans-serif">RuntimeConstant(date($autostring_1 + $</text></g><g class="detail expression text-[10px] font-mono" transform="translate(0, 88)"><text font-size="10" x="3" text-anchor="start" fill="#1A1B1D" font-family="Helvetica Neue, Helvetica, Arial, sans-serif">autostring_2))) - RuntimeConstant(duration</text></g><g class="detail expression text-[10px] font-mono" transform="translate(0, 102)"><text font-size="10" x="3" text-anchor="start" fill="#1A1B1D" font-family="Helvetica Neue, Helvetica, Arial, sans-serif">({months: $autoint_3})) AS first_of_</text></g><g class="detail expression text-[10px] font-mono" transform="translate(0, 116)"><text font-size="10" x="3" text-anchor="start" fill="#1A1B1D" font-family="Helvetica Neue, Helvetica, Arial, sans-serif">previous_month</text></g><path class="cost" fill="#BB2D00" d="M 252 122 A 8 8 0 0 1 252 122 L 8 122 A 8 8 0 0 1 8 122 Z"/><rect class="b-outline" width="260" rx="8" ry="8" fill="none" stroke-width="1" style="stroke: rgb(187, 190, 195);" height="122"/></g><g class="operator" transform="translate(319.6956787109375, -1862)"><rect class="background" width="260" height="164" rx="8" ry="8" fill="rgb(255, 255, 255)"/><g class="header" pointer-events="all"><path class="banner" d="M 252 0 A 8 8 0 0 1 260 8 L 260 18 A 8 8 0 0 1 260 26 L 0 26 A 8 8 0 0 1 0 18 L 0 8 A 8 8 0 0 1 8 0 Z" style="fill: rgb(204, 180, 255);"/><path class="expand" fill="#000000" d="M -5 -10 L 8.66 0 L -5 10 Z" transform="translate(13, 13) rotate(90) scale(0.5,0.5)"/><text class="title text-[12px] font-bold" x="26" y="17" fill="#000000" font-family="Helvetica Neue, Helvetica, Arial, sans-serif">DirectedRelationshipIndexSeek@neo4j</text></g><g class="detail identifiers text-[10px] font-mono" transform="translate(0, 40)"><text font-size="10" x="3" text-anchor="start" fill="#1A1B1D" font-family="Helvetica Neue, Helvetica, Arial, sans-serif">first_of_previous_month, tx_prev_month_all</text></g><g class="detail identifiers text-[10px] font-mono" transform="translate(0, 54)"><text font-size="10" x="3" text-anchor="start" fill="#1A1B1D" font-family="Helvetica Neue, Helvetica, Arial, sans-serif">_prev_year, c, anon_0</text></g><g class="detail padding text-[10px]" transform="translate(0, 68)"><text font-size="10" x="3" text-anchor="start" fill="#1A1B1D" font-family="Helvetica Neue, Helvetica, Arial, sans-serif"/><path class="divider" visibility="visible" d="M 0 -6 L 260 -6" stroke="#DFE1E3"/></g><g class="detail expression text-[10px] font-mono" transform="translate(0, 74)"><text font-size="10" x="3" text-anchor="start" fill="#1A1B1D" font-family="Helvetica Neue, Helvetica, Arial, sans-serif">RANGE INDEX (c)-[tx_prev_month_all_prev_</text></g><g class="detail expression text-[10px] font-mono" transform="translate(0, 88)"><text font-size="10" x="3" text-anchor="start" fill="#1A1B1D" font-family="Helvetica Neue, Helvetica, Arial, sans-serif">year:Make_transaction(tx_date_month, tx_</text></g><g class="detail expression text-[10px] font-mono" transform="translate(0, 102)"><text font-size="10" x="3" text-anchor="start" fill="#1A1B1D" font-family="Helvetica Neue, Helvetica, Arial, sans-serif">date_year)]-&gt;(anon_0) WHERE tx_date_month </text></g><g class="detail expression text-[10px] font-mono" transform="translate(0, 116)"><text font-size="10" x="3" text-anchor="start" fill="#1A1B1D" font-family="Helvetica Neue, Helvetica, Arial, sans-serif">= first_of_previous_month.month AND tx_</text></g><g class="detail expression text-[10px] font-mono" transform="translate(0, 130)"><text font-size="10" x="3" text-anchor="start" fill="#1A1B1D" font-family="Helvetica Neue, Helvetica, Arial, sans-serif">date_year &lt; first_of_previous_month.year, </text></g><g class="detail expression text-[10px] font-mono" transform="translate(0, 144)"><text font-size="10" x="3" text-anchor="start" fill="#1A1B1D" font-family="Helvetica Neue, Helvetica, Arial, sans-serif">cache[tx_prev_month_all_prev_year.tx_date_</text></g><g class="detail expression text-[10px] font-mono" transform="translate(0, 158)"><text font-size="10" x="3" text-anchor="start" fill="#1A1B1D" font-family="Helvetica Neue, Helvetica, Arial, sans-serif">year]</text></g><path class="cost" fill="#BB2D00" d="M 252 164 A 8 8 0 0 1 252 164 L 8 164 A 8 8 0 0 1 8 164 Z"/><rect class="b-outline" width="260" rx="8" ry="8" fill="none" stroke-width="1" style="stroke: rgb(187, 190, 195);" height="164"/></g><g class="operator" transform="translate(338.3610534667969, -1104)"><rect class="background" width="260" height="136" rx="8" ry="8" fill="rgb(255, 255, 255)"/><g class="header" pointer-events="all"><path class="banner" d="M 252 0 A 8 8 0 0 1 260 8 L 260 18 A 8 8 0 0 1 260 26 L 0 26 A 8 8 0 0 1 0 18 L 0 8 A 8 8 0 0 1 8 0 Z" style="fill: rgb(44, 42, 52);"/><path class="expand" fill="#FFFFFF" d="M -5 -10 L 8.66 0 L -5 10 Z" transform="translate(13, 13) rotate(90) scale(0.5,0.5)"/><text class="title text-[12px] font-bold" x="26" y="17" fill="#FFFFFF" font-family="Helvetica Neue, Helvetica, Arial, sans-serif">Optional@neo4j</text></g><g class="detail identifiers text-[10px] font-mono" transform="translate(0, 40)"><text font-size="10" x="3" text-anchor="start" fill="#1A1B1D" font-family="Helvetica Neue, Helvetica, Arial, sans-serif">first_of_previous_month, tx_prev_month_all</text></g><g class="detail identifiers text-[10px] font-mono" transform="translate(0, 54)"><text font-size="10" x="3" text-anchor="start" fill="#1A1B1D" font-family="Helvetica Neue, Helvetica, Arial, sans-serif">_prev_year_montly_freq_avg, anon_1, tx_</text></g><g class="detail identifiers text-[10px] font-mono" transform="translate(0, 68)"><text font-size="10" x="3" text-anchor="start" fill="#1A1B1D" font-family="Helvetica Neue, Helvetica, Arial, sans-serif">prev_month_all_prev_year_total_amount_avg,</text></g><g class="detail identifiers text-[10px] font-mono" transform="translate(0, 82)"><text font-size="10" x="3" text-anchor="start" fill="#1A1B1D" font-family="Helvetica Neue, Helvetica, Arial, sans-serif"> c, tx</text></g><g class="detail padding text-[10px]" transform="translate(0, 96)"><text font-size="10" x="3" text-anchor="start" fill="#1A1B1D" font-family="Helvetica Neue, Helvetica, Arial, sans-serif"/><path class="divider" visibility="visible" d="M 0 -6 L 260 -6" stroke="#DFE1E3"/></g><g class="detail expression text-[10px] font-mono" transform="translate(0, 102)"><text font-size="10" x="3" text-anchor="start" fill="#1A1B1D" font-family="Helvetica Neue, Helvetica, Arial, sans-serif">first_of_previous_month, c, tx_prev_month_</text></g><g class="detail expression text-[10px] font-mono" transform="translate(0, 116)"><text font-size="10" x="3" text-anchor="start" fill="#1A1B1D" font-family="Helvetica Neue, Helvetica, Arial, sans-serif">all_prev_year_total_amount_avg, tx_prev_</text></g><g class="detail expression text-[10px] font-mono" transform="translate(0, 130)"><text font-size="10" x="3" text-anchor="start" fill="#1A1B1D" font-family="Helvetica Neue, Helvetica, Arial, sans-serif">month_all_prev_year_montly_freq_avg</text></g><path class="cost" fill="#BB2D00" d="M 252 136 A 8 8 0 0 1 252 136 L 8 136 A 8 8 0 0 1 8 136 Z"/><rect class="b-outline" width="260" rx="8" ry="8" fill="none" stroke-width="1" style="stroke: rgb(187, 190, 195);" height="136"/></g><g class="operator" transform="translate(352.124267578125, -1318)"><rect class="background" width="260" height="136" rx="8" ry="8" fill="rgb(255, 255, 255)"/><g class="header" pointer-events="all"><path class="banner" d="M 252 0 A 8 8 0 0 1 260 8 L 260 18 A 8 8 0 0 1 260 26 L 0 26 A 8 8 0 0 1 0 18 L 0 8 A 8 8 0 0 1 8 0 Z" style="fill: rgb(75, 40, 148);"/><path class="expand" fill="#FFFFFF" d="M -5 -10 L 8.66 0 L -5 10 Z" transform="translate(13, 13) rotate(90) scale(0.5,0.5)"/><text class="title text-[12px] font-bold" x="26" y="17" fill="#FFFFFF" font-family="Helvetica Neue, Helvetica, Arial, sans-serif">Filter@neo4j</text></g><g class="detail identifiers text-[10px] font-mono" transform="translate(0, 40)"><text font-size="10" x="3" text-anchor="start" fill="#1A1B1D" font-family="Helvetica Neue, Helvetica, Arial, sans-serif">first_of_previous_month, tx_prev_month_all</text></g><g class="detail identifiers text-[10px] font-mono" transform="translate(0, 54)"><text font-size="10" x="3" text-anchor="start" fill="#1A1B1D" font-family="Helvetica Neue, Helvetica, Arial, sans-serif">_prev_year_montly_freq_avg, anon_1, tx_</text></g><g class="detail identifiers text-[10px] font-mono" transform="translate(0, 68)"><text font-size="10" x="3" text-anchor="start" fill="#1A1B1D" font-family="Helvetica Neue, Helvetica, Arial, sans-serif">prev_month_all_prev_year_total_amount_avg,</text></g><g class="detail identifiers text-[10px] font-mono" transform="translate(0, 82)"><text font-size="10" x="3" text-anchor="start" fill="#1A1B1D" font-family="Helvetica Neue, Helvetica, Arial, sans-serif"> c, tx</text></g><g class="detail padding text-[10px]" transform="translate(0, 96)"><text font-size="10" x="3" text-anchor="start" fill="#1A1B1D" font-family="Helvetica Neue, Helvetica, Arial, sans-serif"/><path class="divider" visibility="visible" d="M 0 -6 L 260 -6" stroke="#DFE1E3"/></g><g class="detail expression text-[10px] font-mono" transform="translate(0, 102)"><text font-size="10" x="3" text-anchor="start" fill="#1A1B1D" font-family="Helvetica Neue, Helvetica, Arial, sans-serif">(tx.tx_date_month = first_of_previous_</text></g><g class="detail expression text-[10px] font-mono" transform="translate(0, 116)"><text font-size="10" x="3" text-anchor="start" fill="#1A1B1D" font-family="Helvetica Neue, Helvetica, Arial, sans-serif">month.month AND tx.tx_date_year = first_of</text></g><g class="detail expression text-[10px] font-mono" transform="translate(0, 130)"><text font-size="10" x="3" text-anchor="start" fill="#1A1B1D" font-family="Helvetica Neue, Helvetica, Arial, sans-serif">_previous_month.year)</text></g><path class="cost" fill="#BB2D00" d="M 252 136 A 8 8 0 0 1 252 136 L 8 136 A 8 8 0 0 1 8 136 Z"/><rect class="b-outline" width="260" rx="8" ry="8" fill="none" stroke-width="1" style="stroke: rgb(187, 190, 195);" height="136"/></g><g class="operator" transform="translate(355.91302490234375, -1476)"><rect class="background" width="260" height="108" rx="8" ry="8" fill="rgb(255, 255, 255)"/><g class="header" pointer-events="all"><path class="banner" d="M 252 0 A 8 8 0 0 1 260 8 L 260 18 A 8 8 0 0 1 260 26 L 0 26 A 8 8 0 0 1 0 18 L 0 8 A 8 8 0 0 1 8 0 Z" style="fill: rgb(44, 42, 52);"/><path class="expand" fill="#FFFFFF" d="M -5 -10 L 8.66 0 L -5 10 Z" transform="translate(13, 13) rotate(90) scale(0.5,0.5)"/><text class="title text-[12px] font-bold" x="26" y="17" fill="#FFFFFF" font-family="Helvetica Neue, Helvetica, Arial, sans-serif">Expand(Into)@neo4j</text></g><g class="detail identifiers text-[10px] font-mono" transform="translate(0, 40)"><text font-size="10" x="3" text-anchor="start" fill="#1A1B1D" font-family="Helvetica Neue, Helvetica, Arial, sans-serif">first_of_previous_month, tx_prev_month_all</text></g><g class="detail identifiers text-[10px] font-mono" transform="translate(0, 54)"><text font-size="10" x="3" text-anchor="start" fill="#1A1B1D" font-family="Helvetica Neue, Helvetica, Arial, sans-serif">_prev_year_montly_freq_avg, anon_1, tx_</text></g><g class="detail identifiers text-[10px] font-mono" transform="translate(0, 68)"><text font-size="10" x="3" text-anchor="start" fill="#1A1B1D" font-family="Helvetica Neue, Helvetica, Arial, sans-serif">prev_month_all_prev_year_total_amount_avg,</text></g><g class="detail identifiers text-[10px] font-mono" transform="translate(0, 82)"><text font-size="10" x="3" text-anchor="start" fill="#1A1B1D" font-family="Helvetica Neue, Helvetica, Arial, sans-serif"> c, tx</text></g><g class="detail padding text-[10px]" transform="translate(0, 96)"><text font-size="10" x="3" text-anchor="start" fill="#1A1B1D" font-family="Helvetica Neue, Helvetica, Arial, sans-serif"/><path class="divider" visibility="visible" d="M 0 -6 L 260 -6" stroke="#DFE1E3"/></g><g class="detail expression text-[10px] font-mono" transform="translate(0, 102)"><text font-size="10" x="3" text-anchor="start" fill="#1A1B1D" font-family="Helvetica Neue, Helvetica, Arial, sans-serif">(c)-[tx:Make_transaction]-&gt;(anon_1)</text></g><path class="cost" fill="#BB2D00" d="M 252 108 A 8 8 0 0 1 252 108 L 8 108 A 8 8 0 0 1 8 108 Z"/><rect class="b-outline" width="260" rx="8" ry="8" fill="none" stroke-width="1" style="stroke: rgb(187, 190, 195);" height="108"/></g><g class="operator" transform="translate(359.5365295410156, -1648)"><rect class="background" width="260" height="122" rx="8" ry="8" fill="rgb(255, 255, 255)"/><g class="header" pointer-events="all"><path class="banner" d="M 252 0 A 8 8 0 0 1 260 8 L 260 18 A 8 8 0 0 1 260 26 L 0 26 A 8 8 0 0 1 0 18 L 0 8 A 8 8 0 0 1 8 0 Z" style="fill: rgb(204, 180, 255);"/><path class="expand" fill="#000000" d="M -5 -10 L 8.66 0 L -5 10 Z" transform="translate(13, 13) rotate(90) scale(0.5,0.5)"/><text class="title text-[12px] font-bold" x="26" y="17" fill="#000000" font-family="Helvetica Neue, Helvetica, Arial, sans-serif">NodeIndexScan@neo4j</text></g><g class="detail identifiers text-[10px] font-mono" transform="translate(0, 40)"><text font-size="10" x="3" text-anchor="start" fill="#1A1B1D" font-family="Helvetica Neue, Helvetica, Arial, sans-serif">first_of_previous_month, tx_prev_month_all</text></g><g class="detail identifiers text-[10px] font-mono" transform="translate(0, 54)"><text font-size="10" x="3" text-anchor="start" fill="#1A1B1D" font-family="Helvetica Neue, Helvetica, Arial, sans-serif">_prev_year_montly_freq_avg, anon_1, tx_</text></g><g class="detail identifiers text-[10px] font-mono" transform="translate(0, 68)"><text font-size="10" x="3" text-anchor="start" fill="#1A1B1D" font-family="Helvetica Neue, Helvetica, Arial, sans-serif">prev_month_all_prev_year_total_amount_avg,</text></g><g class="detail identifiers text-[10px] font-mono" transform="translate(0, 82)"><text font-size="10" x="3" text-anchor="start" fill="#1A1B1D" font-family="Helvetica Neue, Helvetica, Arial, sans-serif"> c</text></g><g class="detail padding text-[10px]" transform="translate(0, 96)"><text font-size="10" x="3" text-anchor="start" fill="#1A1B1D" font-family="Helvetica Neue, Helvetica, Arial, sans-serif"/><path class="divider" visibility="visible" d="M 0 -6 L 260 -6" stroke="#DFE1E3"/></g><g class="detail expression text-[10px] font-mono" transform="translate(0, 102)"><text font-size="10" x="3" text-anchor="start" fill="#1A1B1D" font-family="Helvetica Neue, Helvetica, Arial, sans-serif">RANGE INDEX anon_1:Terminal(terminal_id) </text></g><g class="detail expression text-[10px] font-mono" transform="translate(0, 116)"><text font-size="10" x="3" text-anchor="start" fill="#1A1B1D" font-family="Helvetica Neue, Helvetica, Arial, sans-serif">WHERE terminal_id IS NOT NULL</text></g><path class="cost" fill="#BB2D00" d="M 252 122 A 8 8 0 0 1 252 122 L 8 122 A 8 8 0 0 1 8 122 Z"/><rect class="b-outline" width="260" rx="8" ry="8" fill="none" stroke-width="1" style="stroke: rgb(187, 190, 195);" height="122"/></g></g></svg>