<svg xmlns="http://www.w3.org/2000/svg" height="2282" width="611.8319091796875" viewBox="5.7431769371032715 -2332 611.8319091796875 2282"><g class="layer links"><g class="link"><path fill="#E2E3E5" d="M 145.5154474738422 -1826 C 145.5154474738422 -1803.5530362455218 326.8476728019484 -1803.5530362455218 326.8476728019484 -1776 L 318.8270728886688 -1776 C 318.8270728886688 -1798.4469637544782 137.49484756056256 -1798.4469637544782 137.49484756056256 -1826 Z"/><text class="text-[12px] font-bold" fill="#1A1B1D" x="141.50514751720237" y="-1800" text-anchor="middle" font-family="Helvetica Neue, Helvetica, Arial, sans-serif">1 estimated row</text></g><g class="link"><path fill="#E2E3E5" d="M 185.58673819894892 -2210 C 185.58673819894892 -2200.9154943091894 368.0420869131798 -2200.9154943091894 368.0420869131798 -2160 L 270.498558329946 -2160 C 270.498558329946 -2169.0845056908106 88.04320961571511 -2169.0845056908106 88.04320961571511 -2210 Z"/><text class="text-[12px] font-bold" fill="#1A1B1D" x="136.81497390733202" y="-2184" text-anchor="middle" font-family="Helvetica Neue, Helvetica, Arial, sans-serif">59.864 estimated rows</text></g><g class="link"><path fill="#E2E3E5" d="M 535.275094722485 -2210 C 535.275094722485 -2169.0845056908106 465.5856154964136 -2169.0845056908106 465.5856154964136 -2160 L 368.0420869131798 -2160 C 368.0420869131798 -2200.9154943091894 437.73156613925124 -2200.9154943091894 437.73156613925124 -2210 Z"/><text class="text-[12px] font-bold" fill="#1A1B1D" x="486.5033304308682" y="-2184" text-anchor="middle" font-family="Helvetica Neue, Helvetica, Arial, sans-serif">59.864 estimated rows</text></g><g class="link"><path fill="#E2E3E5" d="M 419.82411488875186 -2114 C 419.82411488875186 -2104.9154943091894 474.7967020723392 -2104.9154943091894 474.7967020723392 -2064 L 371.23264612119505 -2064 C 371.23264612119505 -2073.0845056908106 316.2600589376077 -2073.0845056908106 316.2600589376077 -2114 Z"/><text class="text-[12px] font-bold" fill="#1A1B1D" x="368.0420869131798" y="-2088" text-anchor="middle" font-family="Helvetica Neue, Helvetica, Arial, sans-serif">119.729 estimated rows</text></g><g class="link"><path fill="#E2E3E5" d="M 474.7967020723392 -1984 C 474.7967020723392 -1974.9154943091896 533.519158680627 -1974.9154943091896 533.519158680627 -1934 L 429.95510272948286 -1934 C 429.95510272948286 -1943.0845056908104 371.23264612119505 -1943.0845056908104 371.23264612119505 -1984 Z"/><text class="text-[12px] font-bold" fill="#1A1B1D" x="423.0146740967671" y="-1958" text-anchor="middle" font-family="Helvetica Neue, Helvetica, Arial, sans-serif">119.729 estimated rows</text></g><g class="link"><path fill="#E2E3E5" d="M 534.9912915485958 -1868 C 534.9912915485958 -1792.7154904710912 433.35599448903 -1792.7154904710912 433.35599448903 -1776 L 326.8476728019484 -1776 C 326.8476728019484 -1851.2845095289088 428.4829698615141 -1851.2845095289088 428.4829698615141 -1868 Z"/><text class="text-[12px] font-bold" fill="#1A1B1D" x="481.73713070505494" y="-1842" text-anchor="middle" font-family="Helvetica Neue, Helvetica, Arial, sans-serif">168.040 estimated rows</text></g><g class="link"><path fill="#E2E3E5" d="M 429.3456945323902 -1730 C 429.3456945323902 -1689.0845056908104 350.826853357207 -1689.0845056908104 350.826853357207 -1680 L 244.31853167012545 -1680 C 244.31853167012545 -1720.9154943091896 322.83737284530855 -1720.9154943091896 322.83737284530855 -1730 Z"/><text class="text-[12px] font-bold" fill="#1A1B1D" x="376.0915336888494" y="-1704" text-anchor="middle" font-family="Helvetica Neue, Helvetica, Arial, sans-serif">168.040 estimated rows</text></g><g class="link"><path fill="#E2E3E5" d="M 330.35384774474596 -1404 C 330.35384774474596 -1363.0845056908104 256.29373255868234 -1363.0845056908104 256.29373255868234 -1354 L 190.73142209652292 -1354 C 190.73142209652292 -1394.9154943091896 264.79153728258655 -1394.9154943091896 264.79153728258655 -1404 Z"/><text class="text-[12px] font-bold" fill="#1A1B1D" x="297.57269251366625" y="-1378" text-anchor="middle" font-family="Helvetica Neue, Helvetica, Arial, sans-serif">1.506 estimated rows</text></g><g class="link"><path fill="#E2E3E5" d="M 240.51220643811075 -1176 C 240.51220643811075 -1140.177699985335 182.74547833851926 -1140.177699985335 182.74547833851926 -1126 L 148.74622011750304 -1126 C 148.74622011750304 -1161.822300014665 206.5129482170945 -1161.822300014665 206.5129482170945 -1176 Z"/><text class="text-[12px] font-bold" fill="#1A1B1D" x="223.51257732760263" y="-1150" text-anchor="middle" font-family="Helvetica Neue, Helvetica, Arial, sans-serif">39 estimated rows</text></g><g class="link"><path fill="#E2E3E5" d="M 182.74547833851926 -1032 C 182.74547833851926 -1017.822300014665 329.371386801693 -1017.822300014665 329.371386801693 -982 L 295.37212858067676 -982 C 295.37212858067676 -996.177699985335 148.74622011750301 -996.177699985335 148.74622011750301 -1032 Z"/><text class="text-[12px] font-bold" fill="#1A1B1D" x="165.74584922801114" y="-1006" text-anchor="middle" font-family="Helvetica Neue, Helvetica, Arial, sans-serif">39 estimated rows</text></g><g class="link"><path fill="#E2E3E5" d="M 515.6458449217472 -1032 C 515.6458449217472 -991.0845056908105 409.17137818916507 -991.0845056908105 409.17137818916507 -982 L 329.37138680169295 -982 C 329.37138680169295 -1022.9154943091895 435.8458535342751 -1022.9154943091895 435.8458535342751 -1032 Z"/><text class="text-[12px] font-bold" fill="#1A1B1D" x="475.74584922801114" y="-1006" text-anchor="middle" font-family="Helvetica Neue, Helvetica, Arial, sans-serif">7.761 estimated rows</text></g><g class="link"><path fill="#E2E3E5" d="M 392.17174907865694 -922 C 392.17174907865694 -881.0845056908105 365.4604694578021 -881.0845056908105 365.4604694578021 -872 L 285.66047807033 -872 C 285.66047807033 -912.9154943091895 312.3717576911848 -912.9154943091895 312.3717576911848 -922 Z"/><text class="text-[12px] font-bold" fill="#1A1B1D" x="352.2717533849209" y="-896" text-anchor="middle" font-family="Helvetica Neue, Helvetica, Arial, sans-serif">7.761 estimated rows</text></g><g class="link"><path fill="#E2E3E5" d="M 379.65226651176613 -778 C 379.65226651176613 -737.0845056908105 357.19064645773176 -737.0845056908105 357.19064645773176 -728 L 249.00706096233156 -728 C 249.00706096233156 -768.9154943091895 271.46868101636596 -768.9154943091895 271.46868101636596 -778 Z"/><text class="text-[12px] font-bold" fill="#1A1B1D" x="325.56047376406605" y="-752" text-anchor="middle" font-family="Helvetica Neue, Helvetica, Arial, sans-serif">203.787 estimated rows</text></g><g class="link"><path fill="#E2E3E5" d="M 343.3890241673206 -634 C 343.3890241673206 -593.0845056908105 325.3301812411425 -593.0845056908105 325.3301812411425 -584 L 244.74984032656465 -584 C 244.74984032656465 -624.9154943091895 262.80868325274275 -624.9154943091895 262.80868325274275 -634 Z"/><text class="text-[12px] font-bold" fill="#1A1B1D" x="303.0988537100317" y="-608" text-anchor="middle" font-family="Helvetica Neue, Helvetica, Arial, sans-serif">8.491 estimated rows</text></g><g class="link"><path fill="#E2E3E5" d="M 305.7317168203407 -434 C 305.7317168203407 -395.82725081315465 292.1642529340373 -395.82725081315465 292.1642529340373 -384 L 250.78084086106298 -384 C 250.78084086106298 -422.17274918684535 264.34830474736646 -422.17274918684535 264.34830474736646 -434 Z"/><text class="text-[12px] font-bold" fill="#1A1B1D" x="285.0400107838536" y="-408" text-anchor="middle" font-family="Helvetica Neue, Helvetica, Arial, sans-serif">92 estimated rows</text></g><g class="link"><path fill="#E2E3E5" d="M 282.7253360487043 -276 C 282.7253360487043 -243.83625193209184 273.7041679174257 -243.83625193209184 273.7041679174257 -226 L 251.19858961511736 -226 C 251.19858961511736 -258.16374806790816 260.219757746396 -258.16374806790816 260.219757746396 -276 Z"/><text class="text-[12px] font-bold" fill="#1A1B1D" x="271.47254689755016" y="-250" text-anchor="middle" font-family="Helvetica Neue, Helvetica, Arial, sans-serif">10 estimated rows</text></g><g class="link"><path fill="#E2E3E5" d="M 273.7041679174257 -132 C 273.7041679174257 -99.83625193209184 269.224804498707 -99.83625193209184 269.224804498707 -82 L 246.7192261963986 -82 C 246.7192261963986 -114.16374806790816 251.19858961511736 -114.16374806790816 251.19858961511736 -132 Z"/><text class="text-[12px] font-bold" fill="#1A1B1D" x="262.45137876627155" y="-106" text-anchor="middle" font-family="Helvetica Neue, Helvetica, Arial, sans-serif">10 estimated rows</text></g></g><g class="layer operators"><g class="operator" transform="translate(127.97201538085938, -82)"><rect class="background" width="260" height="32" rx="8" ry="8" fill="rgb(255, 255, 255)"/><g class="header" pointer-events="all"><path class="banner" d="M 252 0 A 8 8 0 0 1 260 8 L 260 18 A 8 8 0 0 1 259.7459666924148 26 L 0.25403330758516596 26 A 8 8 0 0 1 0 18 L 0 8 A 8 8 0 0 1 8 0 Z" style="fill: rgb(247, 243, 255);"/><text class="title text-[12px] font-bold" x="26" y="17" fill="#000000" font-family="Helvetica Neue, Helvetica, Arial, sans-serif">Result</text></g><path class="cost" fill="#BB2D00" d="M 252 32 A 8 8 0 0 1 252 32 L 8 32 A 8 8 0 0 1 8 32 Z"/><rect class="b-outline" width="260" rx="8" ry="8" fill="none" stroke-width="1" style="stroke: rgb(187, 190, 195);" height="32"/></g><g class="operator" transform="translate(132.45138549804688, -226)"><rect class="background" width="260" height="94" rx="8" ry="8" fill="rgb(255, 255, 255)"/><g class="header" pointer-events="all"><path class="banner" d="M 252 0 A 8 8 0 0 1 260 8 L 260 18 A 8 8 0 0 1 260 26 L 0 26 A 8 8 0 0 1 0 18 L 0 8 A 8 8 0 0 1 8 0 Z" style="fill: rgb(247, 243, 255);"/><path class="expand" fill="#000000" d="M -5 -10 L 8.66 0 L -5 10 Z" transform="translate(13, 13) rotate(90) scale(0.5,0.5)"/><text class="title text-[12px] font-bold" x="26" y="17" fill="#000000" font-family="Helvetica Neue, Helvetica, Arial, sans-serif">ProduceResults@neo4j</text></g><g class="detail identifiers text-[10px] font-mono" transform="translate(0, 40)"><text font-size="10" x="3" text-anchor="start" fill="#1A1B1D" font-family="Helvetica Neue, Helvetica, Arial, sans-serif">day_period, total_transactions, monthly_</text></g><g class="detail identifiers text-[10px] font-mono" transform="translate(0, 54)"><text font-size="10" x="3" text-anchor="start" fill="#1A1B1D" font-family="Helvetica Neue, Helvetica, Arial, sans-serif">avg_fraud_transactions</text></g><g class="detail padding text-[10px]" transform="translate(0, 68)"><text font-size="10" x="3" text-anchor="start" fill="#1A1B1D" font-family="Helvetica Neue, Helvetica, Arial, sans-serif"/><path class="divider" visibility="visible" d="M 0 -6 L 260 -6" stroke="#DFE1E3"/></g><g class="detail expression text-[10px] font-mono" transform="translate(0, 74)"><text font-size="10" x="3" text-anchor="start" fill="#1A1B1D" font-family="Helvetica Neue, Helvetica, Arial, sans-serif">day_period, total_transactions, monthly_</text></g><g class="detail expression text-[10px] font-mono" transform="translate(0, 88)"><text font-size="10" x="3" text-anchor="start" fill="#1A1B1D" font-family="Helvetica Neue, Helvetica, Arial, sans-serif">avg_fraud_transactions</text></g><path class="cost" fill="#BB2D00" d="M 252 94 A 8 8 0 0 1 252 94 L 8 94 A 8 8 0 0 1 8 94 Z"/><rect class="b-outline" width="260" rx="8" ry="8" fill="none" stroke-width="1" style="stroke: rgb(187, 190, 195);" height="94"/></g><g class="operator" transform="translate(141.47254943847656, -384)"><rect class="background" width="260" height="108" rx="8" ry="8" fill="rgb(255, 255, 255)"/><g class="header" pointer-events="all"><path class="banner" d="M 252 0 A 8 8 0 0 1 260 8 L 260 18 A 8 8 0 0 1 260 26 L 0 26 A 8 8 0 0 1 0 18 L 0 8 A 8 8 0 0 1 8 0 Z" style="fill: rgb(23, 1, 70);"/><path class="expand" fill="#FFFFFF" d="M -5 -10 L 8.66 0 L -5 10 Z" transform="translate(13, 13) rotate(90) scale(0.5,0.5)"/><text class="title text-[12px] font-bold" x="26" y="17" fill="#FFFFFF" font-family="Helvetica Neue, Helvetica, Arial, sans-serif">EagerAggregation@neo4j</text></g><g class="detail identifiers text-[10px] font-mono" transform="translate(0, 40)"><text font-size="10" x="3" text-anchor="start" fill="#1A1B1D" font-family="Helvetica Neue, Helvetica, Arial, sans-serif">day_period, total_transactions, monthly_</text></g><g class="detail identifiers text-[10px] font-mono" transform="translate(0, 54)"><text font-size="10" x="3" text-anchor="start" fill="#1A1B1D" font-family="Helvetica Neue, Helvetica, Arial, sans-serif">avg_fraud_transactions</text></g><g class="detail padding text-[10px]" transform="translate(0, 68)"><text font-size="10" x="3" text-anchor="start" fill="#1A1B1D" font-family="Helvetica Neue, Helvetica, Arial, sans-serif"/><path class="divider" visibility="visible" d="M 0 -6 L 260 -6" stroke="#DFE1E3"/></g><g class="detail expression text-[10px] font-mono" transform="translate(0, 74)"><text font-size="10" x="3" text-anchor="start" fill="#1A1B1D" font-family="Helvetica Neue, Helvetica, Arial, sans-serif">day_period, sum(tx_count) AS total_</text></g><g class="detail expression text-[10px] font-mono" transform="translate(0, 88)"><text font-size="10" x="3" text-anchor="start" fill="#1A1B1D" font-family="Helvetica Neue, Helvetica, Arial, sans-serif">transactions, avg(tx_fraud_count) AS </text></g><g class="detail expression text-[10px] font-mono" transform="translate(0, 102)"><text font-size="10" x="3" text-anchor="start" fill="#1A1B1D" font-family="Helvetica Neue, Helvetica, Arial, sans-serif">monthly_avg_fraud_transactions</text></g><path class="cost" fill="#BB2D00" d="M 252 108 A 8 8 0 0 1 252 108 L 8 108 A 8 8 0 0 1 8 108 Z"/><rect class="b-outline" width="260" rx="8" ry="8" fill="none" stroke-width="1" style="stroke: rgb(187, 190, 195);" height="108"/></g><g class="operator" transform="translate(155.04000854492188, -584)"><rect class="background" width="260" height="150" rx="8" ry="8" fill="rgb(255, 255, 255)"/><g class="header" pointer-events="all"><path class="banner" d="M 252 0 A 8 8 0 0 1 260 8 L 260 18 A 8 8 0 0 1 260 26 L 0 26 A 8 8 0 0 1 0 18 L 0 8 A 8 8 0 0 1 8 0 Z" style="fill: rgb(23, 1, 70);"/><path class="expand" fill="#FFFFFF" d="M -5 -10 L 8.66 0 L -5 10 Z" transform="translate(13, 13) rotate(90) scale(0.5,0.5)"/><text class="title text-[12px] font-bold" x="26" y="17" fill="#FFFFFF" font-family="Helvetica Neue, Helvetica, Arial, sans-serif">EagerAggregation@neo4j</text></g><g class="detail identifiers text-[10px] font-mono" transform="translate(0, 40)"><text font-size="10" x="3" text-anchor="start" fill="#1A1B1D" font-family="Helvetica Neue, Helvetica, Arial, sans-serif">day_period, t, year, tx_fraud_count, tx_</text></g><g class="detail identifiers text-[10px] font-mono" transform="translate(0, 54)"><text font-size="10" x="3" text-anchor="start" fill="#1A1B1D" font-family="Helvetica Neue, Helvetica, Arial, sans-serif">count, month</text></g><g class="detail padding text-[10px]" transform="translate(0, 68)"><text font-size="10" x="3" text-anchor="start" fill="#1A1B1D" font-family="Helvetica Neue, Helvetica, Arial, sans-serif"/><path class="divider" visibility="visible" d="M 0 -6 L 260 -6" stroke="#DFE1E3"/></g><g class="detail expression text-[10px] font-mono" transform="translate(0, 74)"><text font-size="10" x="3" text-anchor="start" fill="#1A1B1D" font-family="Helvetica Neue, Helvetica, Arial, sans-serif">year, month, t, tx_current_month.tx_day_</text></g><g class="detail expression text-[10px] font-mono" transform="translate(0, 88)"><text font-size="10" x="3" text-anchor="start" fill="#1A1B1D" font-family="Helvetica Neue, Helvetica, Arial, sans-serif">period AS day_period, count(tx_current_</text></g><g class="detail expression text-[10px] font-mono" transform="translate(0, 102)"><text font-size="10" x="3" text-anchor="start" fill="#1A1B1D" font-family="Helvetica Neue, Helvetica, Arial, sans-serif">month) AS tx_count, count(CASE
  WHEN tx_</text></g><g class="detail expression text-[10px] font-mono" transform="translate(0, 116)"><text font-size="10" x="3" text-anchor="start" fill="#1A1B1D" font-family="Helvetica Neue, Helvetica, Arial, sans-serif">current_month.tx_amount &gt; tx_amount_fraud_</text></g><g class="detail expression text-[10px] font-mono" transform="translate(0, 130)"><text font-size="10" x="3" text-anchor="start" fill="#1A1B1D" font-family="Helvetica Neue, Helvetica, Arial, sans-serif">limit THEN $autoint_11
  ELSE NULL
END) AS</text></g><g class="detail expression text-[10px] font-mono" transform="translate(0, 144)"><text font-size="10" x="3" text-anchor="start" fill="#1A1B1D" font-family="Helvetica Neue, Helvetica, Arial, sans-serif"> tx_fraud_count</text></g><path class="cost" fill="#BB2D00" d="M 252 150 A 8 8 0 0 1 252 150 L 8 150 A 8 8 0 0 1 8 150 Z"/><rect class="b-outline" width="260" rx="8" ry="8" fill="none" stroke-width="1" style="stroke: rgb(187, 190, 195);" height="150"/></g><g class="operator" transform="translate(173.09884643554688, -728)"><rect class="background" width="260" height="94" rx="8" ry="8" fill="rgb(255, 255, 255)"/><g class="header" pointer-events="all"><path class="banner" d="M 252 0 A 8 8 0 0 1 260 8 L 260 18 A 8 8 0 0 1 260 26 L 0 26 A 8 8 0 0 1 0 18 L 0 8 A 8 8 0 0 1 8 0 Z" style="fill: rgb(75, 40, 148);"/><path class="expand" fill="#FFFFFF" d="M -5 -10 L 8.66 0 L -5 10 Z" transform="translate(13, 13) rotate(90) scale(0.5,0.5)"/><text class="title text-[12px] font-bold" x="26" y="17" fill="#FFFFFF" font-family="Helvetica Neue, Helvetica, Arial, sans-serif">Filter@neo4j</text></g><g class="detail identifiers text-[10px] font-mono" transform="translate(0, 40)"><text font-size="10" x="3" text-anchor="start" fill="#1A1B1D" font-family="Helvetica Neue, Helvetica, Arial, sans-serif">anon_2, t, anon_1, tx_current_month, month</text></g><g class="detail identifiers text-[10px] font-mono" transform="translate(0, 54)"><text font-size="10" x="3" text-anchor="start" fill="#1A1B1D" font-family="Helvetica Neue, Helvetica, Arial, sans-serif">, year, tx_amount_fraud_limit</text></g><g class="detail padding text-[10px]" transform="translate(0, 68)"><text font-size="10" x="3" text-anchor="start" fill="#1A1B1D" font-family="Helvetica Neue, Helvetica, Arial, sans-serif"/><path class="divider" visibility="visible" d="M 0 -6 L 260 -6" stroke="#DFE1E3"/></g><g class="detail expression text-[10px] font-mono" transform="translate(0, 74)"><text font-size="10" x="3" text-anchor="start" fill="#1A1B1D" font-family="Helvetica Neue, Helvetica, Arial, sans-serif">(tx_current_month.tx_date_month = month </text></g><g class="detail expression text-[10px] font-mono" transform="translate(0, 88)"><text font-size="10" x="3" text-anchor="start" fill="#1A1B1D" font-family="Helvetica Neue, Helvetica, Arial, sans-serif">AND tx_current_month.tx_date_year = year)</text></g><path class="cost" fill="#BB2D00" d="M 252 94 A 8 8 0 0 1 252 94 L 8 94 A 8 8 0 0 1 8 94 Z"/><rect class="b-outline" width="260" rx="8" ry="8" fill="none" stroke-width="1" style="stroke: rgb(187, 190, 195);" height="94"/></g><g class="operator" transform="translate(195.5604705810547, -872)"><rect class="background" width="260" height="94" rx="8" ry="8" fill="rgb(255, 255, 255)"/><g class="header" pointer-events="all"><path class="banner" d="M 252 0 A 8 8 0 0 1 260 8 L 260 18 A 8 8 0 0 1 260 26 L 0 26 A 8 8 0 0 1 0 18 L 0 8 A 8 8 0 0 1 8 0 Z" style="fill: rgb(44, 42, 52);"/><path class="expand" fill="#FFFFFF" d="M -5 -10 L 8.66 0 L -5 10 Z" transform="translate(13, 13) rotate(90) scale(0.5,0.5)"/><text class="title text-[12px] font-bold" x="26" y="17" fill="#FFFFFF" font-family="Helvetica Neue, Helvetica, Arial, sans-serif">Expand(Into)@neo4j</text></g><g class="detail identifiers text-[10px] font-mono" transform="translate(0, 40)"><text font-size="10" x="3" text-anchor="start" fill="#1A1B1D" font-family="Helvetica Neue, Helvetica, Arial, sans-serif">anon_2, t, anon_1, tx_current_month, month</text></g><g class="detail identifiers text-[10px] font-mono" transform="translate(0, 54)"><text font-size="10" x="3" text-anchor="start" fill="#1A1B1D" font-family="Helvetica Neue, Helvetica, Arial, sans-serif">, year, tx_amount_fraud_limit</text></g><g class="detail padding text-[10px]" transform="translate(0, 68)"><text font-size="10" x="3" text-anchor="start" fill="#1A1B1D" font-family="Helvetica Neue, Helvetica, Arial, sans-serif"/><path class="divider" visibility="visible" d="M 0 -6 L 260 -6" stroke="#DFE1E3"/></g><g class="detail expression text-[10px] font-mono" transform="translate(0, 74)"><text font-size="10" x="3" text-anchor="start" fill="#1A1B1D" font-family="Helvetica Neue, Helvetica, Arial, sans-serif">(anon_1)-[tx_current_month:Make_</text></g><g class="detail expression text-[10px] font-mono" transform="translate(0, 88)"><text font-size="10" x="3" text-anchor="start" fill="#1A1B1D" font-family="Helvetica Neue, Helvetica, Arial, sans-serif">transaction]-&gt;(t)</text></g><path class="cost" fill="#BB2D00" d="M 252 94 A 8 8 0 0 1 252 94 L 8 94 A 8 8 0 0 1 8 94 Z"/><rect class="b-outline" width="260" rx="8" ry="8" fill="none" stroke-width="1" style="stroke: rgb(187, 190, 195);" height="94"/></g><g class="operator" transform="translate(222.27175903320312, -982)"><rect class="background" width="260" height="60" rx="8" ry="8" fill="rgb(255, 255, 255)"/><g class="header" pointer-events="all"><path class="banner" d="M 252 0 A 8 8 0 0 1 260 8 L 260 18 A 8 8 0 0 1 260 26 L 0 26 A 8 8 0 0 1 0 18 L 0 8 A 8 8 0 0 1 8 0 Z" style="fill: rgb(75, 40, 148);"/><path class="expand" fill="#FFFFFF" d="M -5 -10 L 8.66 0 L -5 10 Z" transform="translate(13, 13) rotate(90) scale(0.5,0.5)"/><text class="title text-[12px] font-bold" x="26" y="17" fill="#FFFFFF" font-family="Helvetica Neue, Helvetica, Arial, sans-serif">Apply@neo4j</text></g><g class="detail identifiers text-[10px] font-mono" transform="translate(0, 40)"><text font-size="10" x="3" text-anchor="start" fill="#1A1B1D" font-family="Helvetica Neue, Helvetica, Arial, sans-serif">anon_2, t, anon_1, month, year, tx_amount_</text></g><g class="detail identifiers text-[10px] font-mono" transform="translate(0, 54)"><text font-size="10" x="3" text-anchor="start" fill="#1A1B1D" font-family="Helvetica Neue, Helvetica, Arial, sans-serif">fraud_limit</text></g><path class="cost" fill="#BB2D00" d="M 252 60 A 8 8 0 0 1 252 60 L 8 60 A 8 8 0 0 1 8 60 Z"/><rect class="b-outline" width="260" rx="8" ry="8" fill="none" stroke-width="1" style="stroke: rgb(187, 190, 195);" height="60"/></g><g class="operator" transform="translate(35.745849609375, -1126)"><rect class="background" width="260" height="94" rx="8" ry="8" fill="rgb(255, 255, 255)"/><g class="header" pointer-events="all"><path class="banner" d="M 252 0 A 8 8 0 0 1 260 8 L 260 18 A 8 8 0 0 1 260 26 L 0 26 A 8 8 0 0 1 0 18 L 0 8 A 8 8 0 0 1 8 0 Z" style="fill: rgb(160, 123, 236);"/><path class="expand" fill="#000000" d="M -5 -10 L 8.66 0 L -5 10 Z" transform="translate(13, 13) rotate(90) scale(0.5,0.5)"/><text class="title text-[12px] font-bold" x="26" y="17" fill="#000000" font-family="Helvetica Neue, Helvetica, Arial, sans-serif">Projection@neo4j</text></g><g class="detail identifiers text-[10px] font-mono" transform="translate(0, 40)"><text font-size="10" x="3" text-anchor="start" fill="#1A1B1D" font-family="Helvetica Neue, Helvetica, Arial, sans-serif">anon_2, t, month, year, tx_amount_fraud_</text></g><g class="detail identifiers text-[10px] font-mono" transform="translate(0, 54)"><text font-size="10" x="3" text-anchor="start" fill="#1A1B1D" font-family="Helvetica Neue, Helvetica, Arial, sans-serif">limit</text></g><g class="detail padding text-[10px]" transform="translate(0, 68)"><text font-size="10" x="3" text-anchor="start" fill="#1A1B1D" font-family="Helvetica Neue, Helvetica, Arial, sans-serif"/><path class="divider" visibility="visible" d="M 0 -6 L 260 -6" stroke="#DFE1E3"/></g><g class="detail expression text-[10px] font-mono" transform="translate(0, 74)"><text font-size="10" x="3" text-anchor="start" fill="#1A1B1D" font-family="Helvetica Neue, Helvetica, Arial, sans-serif">anon_2 * $autodouble_10 AS tx_amount_fraud</text></g><g class="detail expression text-[10px] font-mono" transform="translate(0, 88)"><text font-size="10" x="3" text-anchor="start" fill="#1A1B1D" font-family="Helvetica Neue, Helvetica, Arial, sans-serif">_limit</text></g><path class="cost" fill="#BB2D00" d="M 252 94 A 8 8 0 0 1 252 94 L 8 94 A 8 8 0 0 1 8 94 Z"/><rect class="b-outline" width="260" rx="8" ry="8" fill="none" stroke-width="1" style="stroke: rgb(187, 190, 195);" height="94"/></g><g class="operator" transform="translate(93.51258087158203, -1354)"><rect class="background" width="260" height="178" rx="8" ry="8" fill="rgb(255, 255, 255)"/><g class="header" pointer-events="all"><path class="banner" d="M 252 0 A 8 8 0 0 1 260 8 L 260 18 A 8 8 0 0 1 260 26 L 0 26 A 8 8 0 0 1 0 18 L 0 8 A 8 8 0 0 1 8 0 Z" style="fill: rgb(23, 1, 70);"/><path class="expand" fill="#FFFFFF" d="M -5 -10 L 8.66 0 L -5 10 Z" transform="translate(13, 13) rotate(90) scale(0.5,0.5)"/><text class="title text-[12px] font-bold" x="26" y="17" fill="#FFFFFF" font-family="Helvetica Neue, Helvetica, Arial, sans-serif">EagerAggregation@neo4j</text></g><g class="detail identifiers text-[10px] font-mono" transform="translate(0, 40)"><text font-size="10" x="3" text-anchor="start" fill="#1A1B1D" font-family="Helvetica Neue, Helvetica, Arial, sans-serif">year, month, t, anon_2</text></g><g class="detail padding text-[10px]" transform="translate(0, 54)"><text font-size="10" x="3" text-anchor="start" fill="#1A1B1D" font-family="Helvetica Neue, Helvetica, Arial, sans-serif"/><path class="divider" visibility="visible" d="M 0 -6 L 260 -6" stroke="#DFE1E3"/></g><g class="detail expression text-[10px] font-mono" transform="translate(0, 60)"><text font-size="10" x="3" text-anchor="start" fill="#1A1B1D" font-family="Helvetica Neue, Helvetica, Arial, sans-serif">(date({year: cache[tx.tx_date_year], month</text></g><g class="detail expression text-[10px] font-mono" transform="translate(0, 74)"><text font-size="10" x="3" text-anchor="start" fill="#1A1B1D" font-family="Helvetica Neue, Helvetica, Arial, sans-serif">: cache[tx.tx_date_month], day: $autoint_6</text></g><g class="detail expression text-[10px] font-mono" transform="translate(0, 88)"><text font-size="10" x="3" text-anchor="start" fill="#1A1B1D" font-family="Helvetica Neue, Helvetica, Arial, sans-serif">}) + RuntimeConstant(duration({months: $</text></g><g class="detail expression text-[10px] font-mono" transform="translate(0, 102)"><text font-size="10" x="3" text-anchor="start" fill="#1A1B1D" font-family="Helvetica Neue, Helvetica, Arial, sans-serif">autoint_7}))).year AS year, (date({year: </text></g><g class="detail expression text-[10px] font-mono" transform="translate(0, 116)"><text font-size="10" x="3" text-anchor="start" fill="#1A1B1D" font-family="Helvetica Neue, Helvetica, Arial, sans-serif">cache[tx.tx_date_year], month: cache[tx.tx</text></g><g class="detail expression text-[10px] font-mono" transform="translate(0, 130)"><text font-size="10" x="3" text-anchor="start" fill="#1A1B1D" font-family="Helvetica Neue, Helvetica, Arial, sans-serif">_date_month], day: $autoint_8}) + </text></g><g class="detail expression text-[10px] font-mono" transform="translate(0, 144)"><text font-size="10" x="3" text-anchor="start" fill="#1A1B1D" font-family="Helvetica Neue, Helvetica, Arial, sans-serif">RuntimeConstant(duration({months: $autoint</text></g><g class="detail expression text-[10px] font-mono" transform="translate(0, 158)"><text font-size="10" x="3" text-anchor="start" fill="#1A1B1D" font-family="Helvetica Neue, Helvetica, Arial, sans-serif">_9}))).month AS month, t, max(tx.tx_amount</text></g><g class="detail expression text-[10px] font-mono" transform="translate(0, 172)"><text font-size="10" x="3" text-anchor="start" fill="#1A1B1D" font-family="Helvetica Neue, Helvetica, Arial, sans-serif">) AS anon_2</text></g><path class="cost" fill="#BB2D00" d="M 252 178 A 8 8 0 0 1 252 178 L 8 178 A 8 8 0 0 1 8 178 Z"/><rect class="b-outline" width="260" rx="8" ry="8" fill="none" stroke-width="1" style="stroke: rgb(187, 190, 195);" height="178"/></g><g class="operator" transform="translate(167.57269287109375, -1680)"><rect class="background" width="260" height="276" rx="8" ry="8" fill="rgb(255, 255, 255)"/><g class="header" pointer-events="all"><path class="banner" d="M 252 0 A 8 8 0 0 1 260 8 L 260 18 A 8 8 0 0 1 260 26 L 0 26 A 8 8 0 0 1 0 18 L 0 8 A 8 8 0 0 1 8 0 Z" style="fill: rgb(75, 40, 148);"/><path class="expand" fill="#FFFFFF" d="M -5 -10 L 8.66 0 L -5 10 Z" transform="translate(13, 13) rotate(90) scale(0.5,0.5)"/><text class="title text-[12px] font-bold" x="26" y="17" fill="#FFFFFF" font-family="Helvetica Neue, Helvetica, Arial, sans-serif">Filter@neo4j</text></g><g class="detail identifiers text-[10px] font-mono" transform="translate(0, 40)"><text font-size="10" x="3" text-anchor="start" fill="#1A1B1D" font-family="Helvetica Neue, Helvetica, Arial, sans-serif">endDate, t, anon_0, startDate, tx</text></g><g class="detail padding text-[10px]" transform="translate(0, 54)"><text font-size="10" x="3" text-anchor="start" fill="#1A1B1D" font-family="Helvetica Neue, Helvetica, Arial, sans-serif"/><path class="divider" visibility="visible" d="M 0 -6 L 260 -6" stroke="#DFE1E3"/></g><g class="detail expression text-[10px] font-mono" transform="translate(0, 60)"><text font-size="10" x="3" text-anchor="start" fill="#1A1B1D" font-family="Helvetica Neue, Helvetica, Arial, sans-serif">(cache[tx.tx_date_month] &gt;= $autoint_5 OR </text></g><g class="detail expression text-[10px] font-mono" transform="translate(0, 74)"><text font-size="10" x="3" text-anchor="start" fill="#1A1B1D" font-family="Helvetica Neue, Helvetica, Arial, sans-serif">cache[tx.tx_date_year] = endDate.year) AND</text></g><g class="detail expression text-[10px] font-mono" transform="translate(0, 88)"><text font-size="10" x="3" text-anchor="start" fill="#1A1B1D" font-family="Helvetica Neue, Helvetica, Arial, sans-serif"> (cache[tx.tx_date_year] &gt;= startDate.year</text></g><g class="detail expression text-[10px] font-mono" transform="translate(0, 102)"><text font-size="10" x="3" text-anchor="start" fill="#1A1B1D" font-family="Helvetica Neue, Helvetica, Arial, sans-serif"> OR cache[tx.tx_date_year] = startDate.</text></g><g class="detail expression text-[10px] font-mono" transform="translate(0, 116)"><text font-size="10" x="3" text-anchor="start" fill="#1A1B1D" font-family="Helvetica Neue, Helvetica, Arial, sans-serif">year) AND (cache[tx.tx_date_year] &lt;= </text></g><g class="detail expression text-[10px] font-mono" transform="translate(0, 130)"><text font-size="10" x="3" text-anchor="start" fill="#1A1B1D" font-family="Helvetica Neue, Helvetica, Arial, sans-serif">endDate.year OR cache[tx.tx_date_year] = </text></g><g class="detail expression text-[10px] font-mono" transform="translate(0, 144)"><text font-size="10" x="3" text-anchor="start" fill="#1A1B1D" font-family="Helvetica Neue, Helvetica, Arial, sans-serif">endDate.year) AND (cache[tx.tx_date_month]</text></g><g class="detail expression text-[10px] font-mono" transform="translate(0, 158)"><text font-size="10" x="3" text-anchor="start" fill="#1A1B1D" font-family="Helvetica Neue, Helvetica, Arial, sans-serif"> &gt;= $autoint_4 OR cache[tx.tx_date_year] =</text></g><g class="detail expression text-[10px] font-mono" transform="translate(0, 172)"><text font-size="10" x="3" text-anchor="start" fill="#1A1B1D" font-family="Helvetica Neue, Helvetica, Arial, sans-serif"> startDate.year) AND (cache[tx.tx_date_</text></g><g class="detail expression text-[10px] font-mono" transform="translate(0, 186)"><text font-size="10" x="3" text-anchor="start" fill="#1A1B1D" font-family="Helvetica Neue, Helvetica, Arial, sans-serif">year] &gt;= startDate.year OR cache[tx.tx_</text></g><g class="detail expression text-[10px] font-mono" transform="translate(0, 200)"><text font-size="10" x="3" text-anchor="start" fill="#1A1B1D" font-family="Helvetica Neue, Helvetica, Arial, sans-serif">date_month] &gt;= startDate.month) AND (cache</text></g><g class="detail expression text-[10px] font-mono" transform="translate(0, 214)"><text font-size="10" x="3" text-anchor="start" fill="#1A1B1D" font-family="Helvetica Neue, Helvetica, Arial, sans-serif">[tx.tx_date_year] &lt;= endDate.year OR cache</text></g><g class="detail expression text-[10px] font-mono" transform="translate(0, 228)"><text font-size="10" x="3" text-anchor="start" fill="#1A1B1D" font-family="Helvetica Neue, Helvetica, Arial, sans-serif">[tx.tx_date_month] &lt;= endDate.month) AND (</text></g><g class="detail expression text-[10px] font-mono" transform="translate(0, 242)"><text font-size="10" x="3" text-anchor="start" fill="#1A1B1D" font-family="Helvetica Neue, Helvetica, Arial, sans-serif">cache[tx.tx_date_month] &gt;= $autoint_4 OR </text></g><g class="detail expression text-[10px] font-mono" transform="translate(0, 256)"><text font-size="10" x="3" text-anchor="start" fill="#1A1B1D" font-family="Helvetica Neue, Helvetica, Arial, sans-serif">cache[tx.tx_date_month] &gt;= startDate.month</text></g><g class="detail expression text-[10px] font-mono" transform="translate(0, 270)"><text font-size="10" x="3" text-anchor="start" fill="#1A1B1D" font-family="Helvetica Neue, Helvetica, Arial, sans-serif">) AND (t:Terminal AND anon_0:Customer)</text></g><path class="cost" fill="#BB2D00" d="M 252 276 A 8 8 0 0 1 252 276 L 8 276 A 8 8 0 0 1 8 276 Z"/><rect class="b-outline" width="260" rx="8" ry="8" fill="none" stroke-width="1" style="stroke: rgb(187, 190, 195);" height="276"/></g><g class="operator" transform="translate(246.09153747558594, -1776)"><rect class="background" width="260" height="46" rx="8" ry="8" fill="rgb(255, 255, 255)"/><g class="header" pointer-events="all"><path class="banner" d="M 252 0 A 8 8 0 0 1 260 8 L 260 18 A 8 8 0 0 1 260 26 L 0 26 A 8 8 0 0 1 0 18 L 0 8 A 8 8 0 0 1 8 0 Z" style="fill: rgb(75, 40, 148);"/><path class="expand" fill="#FFFFFF" d="M -5 -10 L 8.66 0 L -5 10 Z" transform="translate(13, 13) rotate(90) scale(0.5,0.5)"/><text class="title text-[12px] font-bold" x="26" y="17" fill="#FFFFFF" font-family="Helvetica Neue, Helvetica, Arial, sans-serif">Apply@neo4j</text></g><g class="detail identifiers text-[10px] font-mono" transform="translate(0, 40)"><text font-size="10" x="3" text-anchor="start" fill="#1A1B1D" font-family="Helvetica Neue, Helvetica, Arial, sans-serif">endDate, t, anon_0, startDate, tx</text></g><path class="cost" fill="#BB2D00" d="M 252 46 A 8 8 0 0 1 252 46 L 8 46 A 8 8 0 0 1 8 46 Z"/><rect class="b-outline" width="260" rx="8" ry="8" fill="none" stroke-width="1" style="stroke: rgb(187, 190, 195);" height="46"/></g><g class="operator" transform="translate(11.505147933959961, -1934)"><rect class="background" width="260" height="108" rx="8" ry="8" fill="rgb(255, 255, 255)"/><g class="header" pointer-events="all"><path class="banner" d="M 252 0 A 8 8 0 0 1 260 8 L 260 18 A 8 8 0 0 1 260 26 L 0 26 A 8 8 0 0 1 0 18 L 0 8 A 8 8 0 0 1 8 0 Z" style="fill: rgb(160, 123, 236);"/><path class="expand" fill="#000000" d="M -5 -10 L 8.66 0 L -5 10 Z" transform="translate(13, 13) rotate(90) scale(0.5,0.5)"/><text class="title text-[12px] font-bold" x="26" y="17" fill="#000000" font-family="Helvetica Neue, Helvetica, Arial, sans-serif">Projection@neo4j</text></g><g class="detail identifiers text-[10px] font-mono" transform="translate(0, 40)"><text font-size="10" x="3" text-anchor="start" fill="#1A1B1D" font-family="Helvetica Neue, Helvetica, Arial, sans-serif">startDate, endDate</text></g><g class="detail padding text-[10px]" transform="translate(0, 54)"><text font-size="10" x="3" text-anchor="start" fill="#1A1B1D" font-family="Helvetica Neue, Helvetica, Arial, sans-serif"/><path class="divider" visibility="visible" d="M 0 -6 L 260 -6" stroke="#DFE1E3"/></g><g class="detail expression text-[10px] font-mono" transform="translate(0, 60)"><text font-size="10" x="3" text-anchor="start" fill="#1A1B1D" font-family="Helvetica Neue, Helvetica, Arial, sans-serif">RuntimeConstant(date($autostring_0 + $</text></g><g class="detail expression text-[10px] font-mono" transform="translate(0, 74)"><text font-size="10" x="3" text-anchor="start" fill="#1A1B1D" font-family="Helvetica Neue, Helvetica, Arial, sans-serif">autostring_1)) AS startDate, </text></g><g class="detail expression text-[10px] font-mono" transform="translate(0, 88)"><text font-size="10" x="3" text-anchor="start" fill="#1A1B1D" font-family="Helvetica Neue, Helvetica, Arial, sans-serif">RuntimeConstant(date($autostring_2 + $</text></g><g class="detail expression text-[10px] font-mono" transform="translate(0, 102)"><text font-size="10" x="3" text-anchor="start" fill="#1A1B1D" font-family="Helvetica Neue, Helvetica, Arial, sans-serif">autostring_3)) AS endDate</text></g><path class="cost" fill="#BB2D00" d="M 252 108 A 8 8 0 0 1 252 108 L 8 108 A 8 8 0 0 1 8 108 Z"/><rect class="b-outline" width="260" rx="8" ry="8" fill="none" stroke-width="1" style="stroke: rgb(187, 190, 195);" height="108"/></g><g class="operator" transform="translate(351.73712158203125, -1934)"><rect class="background" width="260" height="66" rx="8" ry="8" fill="rgb(255, 255, 255)"/><g class="header" pointer-events="all"><path class="banner" d="M 252 0 A 8 8 0 0 1 260 8 L 260 18 A 8 8 0 0 1 260 26 L 0 26 A 8 8 0 0 1 0 18 L 0 8 A 8 8 0 0 1 8 0 Z" style="fill: rgb(75, 40, 148);"/><path class="expand" fill="#FFFFFF" d="M -5 -10 L 8.66 0 L -5 10 Z" transform="translate(13, 13) rotate(90) scale(0.5,0.5)"/><text class="title text-[12px] font-bold" x="26" y="17" fill="#FFFFFF" font-family="Helvetica Neue, Helvetica, Arial, sans-serif">Distinct@neo4j</text></g><g class="detail identifiers text-[10px] font-mono" transform="translate(0, 40)"><text font-size="10" x="3" text-anchor="start" fill="#1A1B1D" font-family="Helvetica Neue, Helvetica, Arial, sans-serif">endDate, t, anon_0, startDate, tx</text></g><g class="detail padding text-[10px]" transform="translate(0, 54)"><text font-size="10" x="3" text-anchor="start" fill="#1A1B1D" font-family="Helvetica Neue, Helvetica, Arial, sans-serif"/><path class="divider" visibility="visible" d="M 0 -6 L 260 -6" stroke="#DFE1E3"/></g><g class="detail expression text-[10px] font-mono" transform="translate(0, 60)"><text font-size="10" x="3" text-anchor="start" fill="#1A1B1D" font-family="Helvetica Neue, Helvetica, Arial, sans-serif">t, anon_0, startDate, tx, endDate</text></g><path class="cost" fill="#BB2D00" d="M 252 66 A 8 8 0 0 1 252 66 L 8 66 A 8 8 0 0 1 8 66 Z"/><rect class="b-outline" width="260" rx="8" ry="8" fill="none" stroke-width="1" style="stroke: rgb(187, 190, 195);" height="66"/></g><g class="operator" transform="translate(293.0146789550781, -2064)"><rect class="background" width="260" height="80" rx="8" ry="8" fill="rgb(255, 255, 255)"/><g class="header" pointer-events="all"><path class="banner" d="M 252 0 A 8 8 0 0 1 260 8 L 260 18 A 8 8 0 0 1 260 26 L 0 26 A 8 8 0 0 1 0 18 L 0 8 A 8 8 0 0 1 8 0 Z" style="fill: rgb(117, 78, 200);"/><path class="expand" fill="#FFFFFF" d="M -5 -10 L 8.66 0 L -5 10 Z" transform="translate(13, 13) rotate(90) scale(0.5,0.5)"/><text class="title text-[12px] font-bold" x="26" y="17" fill="#FFFFFF" font-family="Helvetica Neue, Helvetica, Arial, sans-serif">CacheProperties@neo4j</text></g><g class="detail identifiers text-[10px] font-mono" transform="translate(0, 40)"><text font-size="10" x="3" text-anchor="start" fill="#1A1B1D" font-family="Helvetica Neue, Helvetica, Arial, sans-serif">endDate, t, anon_0, startDate, tx</text></g><g class="detail padding text-[10px]" transform="translate(0, 54)"><text font-size="10" x="3" text-anchor="start" fill="#1A1B1D" font-family="Helvetica Neue, Helvetica, Arial, sans-serif"/><path class="divider" visibility="visible" d="M 0 -6 L 260 -6" stroke="#DFE1E3"/></g><g class="detail expression text-[10px] font-mono" transform="translate(0, 60)"><text font-size="10" x="3" text-anchor="start" fill="#1A1B1D" font-family="Helvetica Neue, Helvetica, Arial, sans-serif">cache[tx.tx_date_year], cache[tx.tx_date_</text></g><g class="detail expression text-[10px] font-mono" transform="translate(0, 74)"><text font-size="10" x="3" text-anchor="start" fill="#1A1B1D" font-family="Helvetica Neue, Helvetica, Arial, sans-serif">month]</text></g><path class="cost" fill="#BB2D00" d="M 252 80 A 8 8 0 0 1 252 80 L 8 80 A 8 8 0 0 1 8 80 Z"/><rect class="b-outline" width="260" rx="8" ry="8" fill="none" stroke-width="1" style="stroke: rgb(187, 190, 195);" height="80"/></g><g class="operator" transform="translate(238.04208374023438, -2160)"><rect class="background" width="260" height="46" rx="8" ry="8" fill="rgb(255, 255, 255)"/><g class="header" pointer-events="all"><path class="banner" d="M 252 0 A 8 8 0 0 1 260 8 L 260 18 A 8 8 0 0 1 260 26 L 0 26 A 8 8 0 0 1 0 18 L 0 8 A 8 8 0 0 1 8 0 Z" style="fill: rgb(160, 123, 236);"/><path class="expand" fill="#000000" d="M -5 -10 L 8.66 0 L -5 10 Z" transform="translate(13, 13) rotate(90) scale(0.5,0.5)"/><text class="title text-[12px] font-bold" x="26" y="17" fill="#000000" font-family="Helvetica Neue, Helvetica, Arial, sans-serif">Union@neo4j</text></g><g class="detail identifiers text-[10px] font-mono" transform="translate(0, 40)"><text font-size="10" x="3" text-anchor="start" fill="#1A1B1D" font-family="Helvetica Neue, Helvetica, Arial, sans-serif">endDate, t, anon_0, startDate, tx</text></g><path class="cost" fill="#BB2D00" d="M 252 46 A 8 8 0 0 1 252 46 L 8 46 A 8 8 0 0 1 8 46 Z"/><rect class="b-outline" width="260" rx="8" ry="8" fill="none" stroke-width="1" style="stroke: rgb(187, 190, 195);" height="46"/></g><g class="operator" transform="translate(6.814973831176758, -2332)"><rect class="background" width="260" height="122" rx="8" ry="8" fill="rgb(255, 255, 255)"/><g class="header" pointer-events="all"><path class="banner" d="M 252 0 A 8 8 0 0 1 260 8 L 260 18 A 8 8 0 0 1 260 26 L 0 26 A 8 8 0 0 1 0 18 L 0 8 A 8 8 0 0 1 8 0 Z" style="fill: rgb(204, 180, 255);"/><path class="expand" fill="#000000" d="M -5 -10 L 8.66 0 L -5 10 Z" transform="translate(13, 13) rotate(90) scale(0.5,0.5)"/><text class="title text-[12px] font-bold" x="26" y="17" fill="#000000" font-family="Helvetica Neue, Helvetica, Arial, sans-serif">DirectedRelationshipIndexSeek@neo4j</text></g><g class="detail identifiers text-[10px] font-mono" transform="translate(0, 40)"><text font-size="10" x="3" text-anchor="start" fill="#1A1B1D" font-family="Helvetica Neue, Helvetica, Arial, sans-serif">endDate, t, anon_0, startDate, tx</text></g><g class="detail padding text-[10px]" transform="translate(0, 54)"><text font-size="10" x="3" text-anchor="start" fill="#1A1B1D" font-family="Helvetica Neue, Helvetica, Arial, sans-serif"/><path class="divider" visibility="visible" d="M 0 -6 L 260 -6" stroke="#DFE1E3"/></g><g class="detail expression text-[10px] font-mono" transform="translate(0, 60)"><text font-size="10" x="3" text-anchor="start" fill="#1A1B1D" font-family="Helvetica Neue, Helvetica, Arial, sans-serif">RANGE INDEX (anon_0)-[tx:Make_transaction(</text></g><g class="detail expression text-[10px] font-mono" transform="translate(0, 74)"><text font-size="10" x="3" text-anchor="start" fill="#1A1B1D" font-family="Helvetica Neue, Helvetica, Arial, sans-serif">tx_date_month, tx_date_year)]-&gt;(t) WHERE </text></g><g class="detail expression text-[10px] font-mono" transform="translate(0, 88)"><text font-size="10" x="3" text-anchor="start" fill="#1A1B1D" font-family="Helvetica Neue, Helvetica, Arial, sans-serif">tx_date_month &gt;= $autoint_5 AND tx_date_</text></g><g class="detail expression text-[10px] font-mono" transform="translate(0, 102)"><text font-size="10" x="3" text-anchor="start" fill="#1A1B1D" font-family="Helvetica Neue, Helvetica, Arial, sans-serif">year IS NOT NULL, cache[tx.tx_date_month],</text></g><g class="detail expression text-[10px] font-mono" transform="translate(0, 116)"><text font-size="10" x="3" text-anchor="start" fill="#1A1B1D" font-family="Helvetica Neue, Helvetica, Arial, sans-serif"> cache[tx.tx_date_year]</text></g><path class="cost" fill="#BB2D00" d="M 252 122 A 8 8 0 0 1 252 122 L 8 122 A 8 8 0 0 1 8 122 Z"/><rect class="b-outline" width="260" rx="8" ry="8" fill="none" stroke-width="1" style="stroke: rgb(187, 190, 195);" height="122"/></g><g class="operator" transform="translate(356.5033264160156, -2332)"><rect class="background" width="260" height="122" rx="8" ry="8" fill="rgb(255, 255, 255)"/><g class="header" pointer-events="all"><path class="banner" d="M 252 0 A 8 8 0 0 1 260 8 L 260 18 A 8 8 0 0 1 260 26 L 0 26 A 8 8 0 0 1 0 18 L 0 8 A 8 8 0 0 1 8 0 Z" style="fill: rgb(204, 180, 255);"/><path class="expand" fill="#000000" d="M -5 -10 L 8.66 0 L -5 10 Z" transform="translate(13, 13) rotate(90) scale(0.5,0.5)"/><text class="title text-[12px] font-bold" x="26" y="17" fill="#000000" font-family="Helvetica Neue, Helvetica, Arial, sans-serif">DirectedRelationshipIndexSeek@neo4j</text></g><g class="detail identifiers text-[10px] font-mono" transform="translate(0, 40)"><text font-size="10" x="3" text-anchor="start" fill="#1A1B1D" font-family="Helvetica Neue, Helvetica, Arial, sans-serif">endDate, t, anon_0, startDate, tx</text></g><g class="detail padding text-[10px]" transform="translate(0, 54)"><text font-size="10" x="3" text-anchor="start" fill="#1A1B1D" font-family="Helvetica Neue, Helvetica, Arial, sans-serif"/><path class="divider" visibility="visible" d="M 0 -6 L 260 -6" stroke="#DFE1E3"/></g><g class="detail expression text-[10px] font-mono" transform="translate(0, 60)"><text font-size="10" x="3" text-anchor="start" fill="#1A1B1D" font-family="Helvetica Neue, Helvetica, Arial, sans-serif">RANGE INDEX (anon_0)-[tx:Make_transaction(</text></g><g class="detail expression text-[10px] font-mono" transform="translate(0, 74)"><text font-size="10" x="3" text-anchor="start" fill="#1A1B1D" font-family="Helvetica Neue, Helvetica, Arial, sans-serif">tx_date_month, tx_date_year)]-&gt;(t) WHERE </text></g><g class="detail expression text-[10px] font-mono" transform="translate(0, 88)"><text font-size="10" x="3" text-anchor="start" fill="#1A1B1D" font-family="Helvetica Neue, Helvetica, Arial, sans-serif">tx_date_month &lt;= endDate.month AND tx_date</text></g><g class="detail expression text-[10px] font-mono" transform="translate(0, 102)"><text font-size="10" x="3" text-anchor="start" fill="#1A1B1D" font-family="Helvetica Neue, Helvetica, Arial, sans-serif">_year IS NOT NULL, cache[tx.tx_date_month]</text></g><g class="detail expression text-[10px] font-mono" transform="translate(0, 116)"><text font-size="10" x="3" text-anchor="start" fill="#1A1B1D" font-family="Helvetica Neue, Helvetica, Arial, sans-serif">, cache[tx.tx_date_year]</text></g><path class="cost" fill="#BB2D00" d="M 252 122 A 8 8 0 0 1 252 122 L 8 122 A 8 8 0 0 1 8 122 Z"/><rect class="b-outline" width="260" rx="8" ry="8" fill="none" stroke-width="1" style="stroke: rgb(187, 190, 195);" height="122"/></g><g class="operator" transform="translate(345.745849609375, -1126)"><rect class="background" width="260" height="94" rx="8" ry="8" fill="rgb(255, 255, 255)"/><g class="header" pointer-events="all"><path class="banner" d="M 252 0 A 8 8 0 0 1 260 8 L 260 18 A 8 8 0 0 1 260 26 L 0 26 A 8 8 0 0 1 0 18 L 0 8 A 8 8 0 0 1 8 0 Z" style="fill: rgb(204, 180, 255);"/><path class="expand" fill="#000000" d="M -5 -10 L 8.66 0 L -5 10 Z" transform="translate(13, 13) rotate(90) scale(0.5,0.5)"/><text class="title text-[12px] font-bold" x="26" y="17" fill="#000000" font-family="Helvetica Neue, Helvetica, Arial, sans-serif">NodeIndexScan@neo4j</text></g><g class="detail identifiers text-[10px] font-mono" transform="translate(0, 40)"><text font-size="10" x="3" text-anchor="start" fill="#1A1B1D" font-family="Helvetica Neue, Helvetica, Arial, sans-serif">t, anon_1, month, year, tx_amount_fraud_</text></g><g class="detail identifiers text-[10px] font-mono" transform="translate(0, 54)"><text font-size="10" x="3" text-anchor="start" fill="#1A1B1D" font-family="Helvetica Neue, Helvetica, Arial, sans-serif">limit</text></g><g class="detail padding text-[10px]" transform="translate(0, 68)"><text font-size="10" x="3" text-anchor="start" fill="#1A1B1D" font-family="Helvetica Neue, Helvetica, Arial, sans-serif"/><path class="divider" visibility="visible" d="M 0 -6 L 260 -6" stroke="#DFE1E3"/></g><g class="detail expression text-[10px] font-mono" transform="translate(0, 74)"><text font-size="10" x="3" text-anchor="start" fill="#1A1B1D" font-family="Helvetica Neue, Helvetica, Arial, sans-serif">RANGE INDEX anon_1:Customer(customer_id) </text></g><g class="detail expression text-[10px] font-mono" transform="translate(0, 88)"><text font-size="10" x="3" text-anchor="start" fill="#1A1B1D" font-family="Helvetica Neue, Helvetica, Arial, sans-serif">WHERE customer_id IS NOT NULL</text></g><path class="cost" fill="#BB2D00" d="M 252 94 A 8 8 0 0 1 252 94 L 8 94 A 8 8 0 0 1 8 94 Z"/><rect class="b-outline" width="260" rx="8" ry="8" fill="none" stroke-width="1" style="stroke: rgb(187, 190, 195);" height="94"/></g></g></svg>