<svg xmlns="http://www.w3.org/2000/svg" height="2046" width="588.1463623046875" viewBox="31.27965545654297 -2096 588.1463623046875 2046"><g class="layer links"><g class="link"><path fill="#E2E3E5" d="M 166.22354739635628 -1816 C 166.22354739635628 -1793.4650525597615 350.5905483451194 -1793.4650525597615 350.5905483451194 -1766 L 342.84635733265975 -1766 C 342.84635733265975 -1788.5349474402385 158.47935638389666 -1788.5349474402385 158.47935638389666 -1816 Z"/><text class="text-[12px] font-bold" fill="#1A1B1D" x="162.35145189012647" y="-1790" text-anchor="middle" font-family="Helvetica Neue, Helvetica, Arial, sans-serif">1 estimated row</text></g><g class="link"><path fill="#E2E3E5" d="M 191.0891279220902 -2016 C 191.0891279220902 -2002.0082682516727 450.4792058757708 -2002.0082682516727 450.4792058757708 -1966 L 415.89571120757 -1966 C 415.89571120757 -1979.9917317483273 156.5056332538894 -1979.9917317483273 156.5056332538894 -2016 Z"/><text class="text-[12px] font-bold" fill="#1A1B1D" x="173.7973805879898" y="-1990" text-anchor="middle" font-family="Helvetica Neue, Helvetica, Arial, sans-serif">50 estimated rows</text></g><g class="link"><path fill="#E2E3E5" d="M 527.5182362013732 -2016 C 527.5182362013732 -2006.9154943091896 528.8071925726829 -2006.9154943091896 528.8071925726829 -1966 L 450.47920587577073 -1966 C 450.47920587577073 -1975.0845056908104 449.190249504461 -1975.0845056908104 449.190249504461 -2016 Z"/><text class="text-[12px] font-bold" fill="#1A1B1D" x="488.3542428529171" y="-1990" text-anchor="middle" font-family="Helvetica Neue, Helvetica, Arial, sans-serif">10.000 estimated rows</text></g><g class="link"><path fill="#E2E3E5" d="M 511.5154452385825 -1920 C 511.5154452385825 -1818.0674274695004 428.91853504203146 -1818.0674274695004 428.91853504203146 -1766 L 350.5905483451193 -1766 C 350.5905483451193 -1867.9325725304996 433.18745854167037 -1867.9325725304996 433.18745854167037 -1920 Z"/><text class="text-[12px] font-bold" fill="#1A1B1D" x="472.35145189012644" y="-1894" text-anchor="middle" font-family="Helvetica Neue, Helvetica, Arial, sans-serif">10.000 estimated rows</text></g><g class="link"><path fill="#E2E3E5" d="M 425.0464395358017 -1720 C 425.0464395358017 -1679.0845056908104 363.7371422077282 -1679.0845056908104 363.7371422077282 -1670 L 285.40915551081605 -1670 C 285.40915551081605 -1710.9154943091896 346.71845283888956 -1710.9154943091896 346.71845283888956 -1720 Z"/><text class="text-[12px] font-bold" fill="#1A1B1D" x="385.88244618734564" y="-1694" text-anchor="middle" font-family="Helvetica Neue, Helvetica, Arial, sans-serif">10.000 estimated rows</text></g><g class="link"><path fill="#E2E3E5" d="M 377.2775013549593 -1604 C 377.2775013549593 -1563.0845056908104 318.2047912151551 -1563.0845056908104 318.2047912151551 -1554 L 212.79608622378072 -1554 C 212.79608622378072 -1594.9154943091896 271.8687963635849 -1594.9154943091896 271.8687963635849 -1604 Z"/><text class="text-[12px] font-bold" fill="#1A1B1D" x="324.5731488592721" y="-1578" text-anchor="middle" font-family="Helvetica Neue, Helvetica, Arial, sans-serif">262.563 estimated rows</text></g><g class="link"><path fill="#E2E3E5" d="M 315.51117926034067 -1404 C 315.51117926034067 -1363.0845056908104 259.1951623373266 -1363.0845056908104 259.1951623373266 -1354 L 159.17368125558107 -1354 C 159.17368125558107 -1394.9154943091896 215.48969817859515 -1394.9154943091896 215.48969817859515 -1404 Z"/><text class="text-[12px] font-bold" fill="#1A1B1D" x="265.5004387194679" y="-1378" text-anchor="middle" font-family="Helvetica Neue, Helvetica, Arial, sans-serif">137.060 estimated rows</text></g><g class="link"><path fill="#E2E3E5" d="M 234.70095414836862 -1176 C 234.70095414836862 -1135.0845056908104 189.84118358115458 -1135.0845056908104 189.84118358115458 -1126 L 138.808118877325 -1126 C 138.808118877325 -1166.9154943091896 183.66788944453901 -1166.9154943091896 183.66788944453901 -1176 Z"/><text class="text-[12px] font-bold" fill="#1A1B1D" x="209.18442179645382" y="-1150" text-anchor="middle" font-family="Helvetica Neue, Helvetica, Arial, sans-serif">370 estimated rows</text></g><g class="link"><path fill="#E2E3E5" d="M 189.8411835811546 -1032 C 189.8411835811546 -1022.9154943091895 312.31746139166074 -1022.9154943091895 312.31746139166074 -982 L 261.28439668783113 -982 C 261.28439668783113 -991.0845056908105 138.808118877325 -991.0845056908105 138.808118877325 -1032 Z"/><text class="text-[12px] font-bold" fill="#1A1B1D" x="164.3246512292398" y="-1006" text-anchor="middle" font-family="Helvetica Neue, Helvetica, Arial, sans-serif">370 estimated rows</text></g><g class="link"><path fill="#E2E3E5" d="M 521.7839473577964 -1032 C 521.7839473577964 -991.0845056908105 407.2360536487737 -991.0845056908105 407.2360536487737 -982 L 312.3174613916607 -982 C 312.3174613916607 -1022.9154943091895 426.8653551006833 -1022.9154943091895 426.8653551006833 -1032 Z"/><text class="text-[12px] font-bold" fill="#1A1B1D" x="474.3246512292398" y="-1006" text-anchor="middle" font-family="Helvetica Neue, Helvetica, Arial, sans-serif">74.043 estimated rows</text></g><g class="link"><path fill="#E2E3E5" d="M 381.71952129685894 -922 C 381.71952129685894 -881.0845056908105 355.5730360556614 -881.0845056908105 355.5730360556614 -872 L 260.6544437985484 -872 C 260.6544437985484 -912.9154943091895 286.80092903974594 -912.9154943091895 286.80092903974594 -922 Z"/><text class="text-[12px] font-bold" fill="#1A1B1D" x="334.26022516830244" y="-896" text-anchor="middle" font-family="Helvetica Neue, Helvetica, Arial, sans-serif">74.043 estimated rows</text></g><g class="link"><path fill="#E2E3E5" d="M 369.1137399271049 -778 C 369.1137399271049 -737.0845056908105 347.583690870541 -737.0845056908105 347.583690870541 -728 L 225.58369087054098 -728 C 225.58369087054098 -768.9154943091895 247.11373992710492 -768.9154943091895 247.11373992710492 -778 Z"/><text class="text-[12px] font-bold" fill="#1A1B1D" x="308.1137399271049" y="-752" text-anchor="middle" font-family="Helvetica Neue, Helvetica, Arial, sans-serif">1.944.098 estimated rows</text></g><g class="link"><path fill="#E2E3E5" d="M 334.4152896967796 -634 C 334.4152896967796 -593.0845056908105 317.33323973119536 -593.0845056908105 317.33323973119536 -584 L 221.67004207871807 -584 C 221.67004207871807 -624.9154943091895 238.75209204430232 -624.9154943091895 238.75209204430232 -634 Z"/><text class="text-[12px] font-bold" fill="#1A1B1D" x="286.583690870541" y="-608" text-anchor="middle" font-family="Helvetica Neue, Helvetica, Arial, sans-serif">81.004 estimated rows</text></g><g class="link"><path fill="#E2E3E5" d="M 293.9319478374402 -434 C 293.9319478374402 -393.44718356177225 281.1908967984525 -393.44718356177225 281.1908967984525 -384 L 232.33028293348565 -384 C 232.33028293348565 -424.55281643822775 245.0713339724733 -424.55281643822775 245.0713339724733 -434 Z"/><text class="text-[12px] font-bold" fill="#1A1B1D" x="269.50164090495673" y="-408" text-anchor="middle" font-family="Helvetica Neue, Helvetica, Arial, sans-serif">285 estimated rows</text></g><g class="link"><path fill="#E2E3E5" d="M 269.70708328970005 -276 C 269.70708328970005 -242.75800630362602 261.2597589345569 -242.75800630362602 261.2597589345569 -226 L 235.36677208709506 -226 C 235.36677208709506 -259.241993696374 243.8140964422382 -259.241993696374 243.8140964422382 -276 Z"/><text class="text-[12px] font-bold" fill="#1A1B1D" x="256.7605898659691" y="-250" text-anchor="middle" font-family="Helvetica Neue, Helvetica, Arial, sans-serif">17 estimated rows</text></g><g class="link"><path fill="#E2E3E5" d="M 261.25975893455694 -132 C 261.25975893455694 -98.75800630362603 257.06787784317737 -98.75800630362603 257.06787784317737 -82 L 231.17489099571554 -82 C 231.17489099571554 -115.24199369637397 235.3667720870951 -115.24199369637397 235.3667720870951 -132 Z"/><text class="text-[12px] font-bold" fill="#1A1B1D" x="248.313265510826" y="-106" text-anchor="middle" font-family="Helvetica Neue, Helvetica, Arial, sans-serif">17 estimated rows</text></g></g><g class="layer operators"><g class="operator" transform="translate(114.12138366699219, -82)"><rect class="background" width="260" height="32" rx="8" ry="8" fill="rgb(255, 255, 255)"/><g class="header" pointer-events="all"><path class="banner" d="M 252 0 A 8 8 0 0 1 260 8 L 260 18 A 8 8 0 0 1 259.7459666924148 26 L 0.25403330758516596 26 A 8 8 0 0 1 0 18 L 0 8 A 8 8 0 0 1 8 0 Z" style="fill: rgb(247, 243, 255);"/><text class="title text-[12px] font-bold" x="26" y="17" fill="#000000" font-family="Helvetica Neue, Helvetica, Arial, sans-serif">Result</text></g><path class="cost" fill="#BB2D00" d="M 252 32 A 8 8 0 0 1 252 32 L 8 32 A 8 8 0 0 1 8 32 Z"/><rect class="b-outline" width="260" rx="8" ry="8" fill="none" stroke-width="1" style="stroke: rgb(187, 190, 195);" height="32"/></g><g class="operator" transform="translate(118.31326293945312, -226)"><rect class="background" width="260" height="94" rx="8" ry="8" fill="rgb(255, 255, 255)"/><g class="header" pointer-events="all"><path class="banner" d="M 252 0 A 8 8 0 0 1 260 8 L 260 18 A 8 8 0 0 1 260 26 L 0 26 A 8 8 0 0 1 0 18 L 0 8 A 8 8 0 0 1 8 0 Z" style="fill: rgb(247, 243, 255);"/><path class="expand" fill="#000000" d="M -5 -10 L 8.66 0 L -5 10 Z" transform="translate(13, 13) rotate(90) scale(0.5,0.5)"/><text class="title text-[12px] font-bold" x="26" y="17" fill="#000000" font-family="Helvetica Neue, Helvetica, Arial, sans-serif">ProduceResults@neo4j</text></g><g class="detail identifiers text-[10px] font-mono" transform="translate(0, 40)"><text font-size="10" x="3" text-anchor="start" fill="#1A1B1D" font-family="Helvetica Neue, Helvetica, Arial, sans-serif">day_period, total_transactions, monthly_</text></g><g class="detail identifiers text-[10px] font-mono" transform="translate(0, 54)"><text font-size="10" x="3" text-anchor="start" fill="#1A1B1D" font-family="Helvetica Neue, Helvetica, Arial, sans-serif">avg_fraud_transactions</text></g><g class="detail padding text-[10px]" transform="translate(0, 68)"><text font-size="10" x="3" text-anchor="start" fill="#1A1B1D" font-family="Helvetica Neue, Helvetica, Arial, sans-serif"/><path class="divider" visibility="visible" d="M 0 -6 L 260 -6" stroke="#DFE1E3"/></g><g class="detail expression text-[10px] font-mono" transform="translate(0, 74)"><text font-size="10" x="3" text-anchor="start" fill="#1A1B1D" font-family="Helvetica Neue, Helvetica, Arial, sans-serif">day_period, total_transactions, monthly_</text></g><g class="detail expression text-[10px] font-mono" transform="translate(0, 88)"><text font-size="10" x="3" text-anchor="start" fill="#1A1B1D" font-family="Helvetica Neue, Helvetica, Arial, sans-serif">avg_fraud_transactions</text></g><path class="cost" fill="#BB2D00" d="M 252 94 A 8 8 0 0 1 252 94 L 8 94 A 8 8 0 0 1 8 94 Z"/><rect class="b-outline" width="260" rx="8" ry="8" fill="none" stroke-width="1" style="stroke: rgb(187, 190, 195);" height="94"/></g><g class="operator" transform="translate(126.76058959960938, -384)"><rect class="background" width="260" height="108" rx="8" ry="8" fill="rgb(255, 255, 255)"/><g class="header" pointer-events="all"><path class="banner" d="M 252 0 A 8 8 0 0 1 260 8 L 260 18 A 8 8 0 0 1 260 26 L 0 26 A 8 8 0 0 1 0 18 L 0 8 A 8 8 0 0 1 8 0 Z" style="fill: rgb(23, 1, 70);"/><path class="expand" fill="#FFFFFF" d="M -5 -10 L 8.66 0 L -5 10 Z" transform="translate(13, 13) rotate(90) scale(0.5,0.5)"/><text class="title text-[12px] font-bold" x="26" y="17" fill="#FFFFFF" font-family="Helvetica Neue, Helvetica, Arial, sans-serif">EagerAggregation@neo4j</text></g><g class="detail identifiers text-[10px] font-mono" transform="translate(0, 40)"><text font-size="10" x="3" text-anchor="start" fill="#1A1B1D" font-family="Helvetica Neue, Helvetica, Arial, sans-serif">day_period, total_transactions, monthly_</text></g><g class="detail identifiers text-[10px] font-mono" transform="translate(0, 54)"><text font-size="10" x="3" text-anchor="start" fill="#1A1B1D" font-family="Helvetica Neue, Helvetica, Arial, sans-serif">avg_fraud_transactions</text></g><g class="detail padding text-[10px]" transform="translate(0, 68)"><text font-size="10" x="3" text-anchor="start" fill="#1A1B1D" font-family="Helvetica Neue, Helvetica, Arial, sans-serif"/><path class="divider" visibility="visible" d="M 0 -6 L 260 -6" stroke="#DFE1E3"/></g><g class="detail expression text-[10px] font-mono" transform="translate(0, 74)"><text font-size="10" x="3" text-anchor="start" fill="#1A1B1D" font-family="Helvetica Neue, Helvetica, Arial, sans-serif">day_period, sum(tx_count) AS total_</text></g><g class="detail expression text-[10px] font-mono" transform="translate(0, 88)"><text font-size="10" x="3" text-anchor="start" fill="#1A1B1D" font-family="Helvetica Neue, Helvetica, Arial, sans-serif">transactions, avg(tx_fraud_count) AS </text></g><g class="detail expression text-[10px] font-mono" transform="translate(0, 102)"><text font-size="10" x="3" text-anchor="start" fill="#1A1B1D" font-family="Helvetica Neue, Helvetica, Arial, sans-serif">monthly_avg_fraud_transactions</text></g><path class="cost" fill="#BB2D00" d="M 252 108 A 8 8 0 0 1 252 108 L 8 108 A 8 8 0 0 1 8 108 Z"/><rect class="b-outline" width="260" rx="8" ry="8" fill="none" stroke-width="1" style="stroke: rgb(187, 190, 195);" height="108"/></g><g class="operator" transform="translate(139.50164794921875, -584)"><rect class="background" width="260" height="150" rx="8" ry="8" fill="rgb(255, 255, 255)"/><g class="header" pointer-events="all"><path class="banner" d="M 252 0 A 8 8 0 0 1 260 8 L 260 18 A 8 8 0 0 1 260 26 L 0 26 A 8 8 0 0 1 0 18 L 0 8 A 8 8 0 0 1 8 0 Z" style="fill: rgb(23, 1, 70);"/><path class="expand" fill="#FFFFFF" d="M -5 -10 L 8.66 0 L -5 10 Z" transform="translate(13, 13) rotate(90) scale(0.5,0.5)"/><text class="title text-[12px] font-bold" x="26" y="17" fill="#FFFFFF" font-family="Helvetica Neue, Helvetica, Arial, sans-serif">EagerAggregation@neo4j</text></g><g class="detail identifiers text-[10px] font-mono" transform="translate(0, 40)"><text font-size="10" x="3" text-anchor="start" fill="#1A1B1D" font-family="Helvetica Neue, Helvetica, Arial, sans-serif">day_period, t, year, tx_fraud_count, tx_</text></g><g class="detail identifiers text-[10px] font-mono" transform="translate(0, 54)"><text font-size="10" x="3" text-anchor="start" fill="#1A1B1D" font-family="Helvetica Neue, Helvetica, Arial, sans-serif">count, month</text></g><g class="detail padding text-[10px]" transform="translate(0, 68)"><text font-size="10" x="3" text-anchor="start" fill="#1A1B1D" font-family="Helvetica Neue, Helvetica, Arial, sans-serif"/><path class="divider" visibility="visible" d="M 0 -6 L 260 -6" stroke="#DFE1E3"/></g><g class="detail expression text-[10px] font-mono" transform="translate(0, 74)"><text font-size="10" x="3" text-anchor="start" fill="#1A1B1D" font-family="Helvetica Neue, Helvetica, Arial, sans-serif">year, month, t, tx_current_month.tx_day_</text></g><g class="detail expression text-[10px] font-mono" transform="translate(0, 88)"><text font-size="10" x="3" text-anchor="start" fill="#1A1B1D" font-family="Helvetica Neue, Helvetica, Arial, sans-serif">period AS day_period, count(tx_current_</text></g><g class="detail expression text-[10px] font-mono" transform="translate(0, 102)"><text font-size="10" x="3" text-anchor="start" fill="#1A1B1D" font-family="Helvetica Neue, Helvetica, Arial, sans-serif">month) AS tx_count, count(CASE
  WHEN tx_</text></g><g class="detail expression text-[10px] font-mono" transform="translate(0, 116)"><text font-size="10" x="3" text-anchor="start" fill="#1A1B1D" font-family="Helvetica Neue, Helvetica, Arial, sans-serif">current_month.tx_amount &gt; tx_amount_fraud_</text></g><g class="detail expression text-[10px] font-mono" transform="translate(0, 130)"><text font-size="10" x="3" text-anchor="start" fill="#1A1B1D" font-family="Helvetica Neue, Helvetica, Arial, sans-serif">limit THEN $autoint_13
  ELSE NULL
END) AS</text></g><g class="detail expression text-[10px] font-mono" transform="translate(0, 144)"><text font-size="10" x="3" text-anchor="start" fill="#1A1B1D" font-family="Helvetica Neue, Helvetica, Arial, sans-serif"> tx_fraud_count</text></g><path class="cost" fill="#BB2D00" d="M 252 150 A 8 8 0 0 1 252 150 L 8 150 A 8 8 0 0 1 8 150 Z"/><rect class="b-outline" width="260" rx="8" ry="8" fill="none" stroke-width="1" style="stroke: rgb(187, 190, 195);" height="150"/></g><g class="operator" transform="translate(156.5836944580078, -728)"><rect class="background" width="260" height="94" rx="8" ry="8" fill="rgb(255, 255, 255)"/><g class="header" pointer-events="all"><path class="banner" d="M 252 0 A 8 8 0 0 1 260 8 L 260 18 A 8 8 0 0 1 260 26 L 0 26 A 8 8 0 0 1 0 18 L 0 8 A 8 8 0 0 1 8 0 Z" style="fill: rgb(75, 40, 148);"/><path class="expand" fill="#FFFFFF" d="M -5 -10 L 8.66 0 L -5 10 Z" transform="translate(13, 13) rotate(90) scale(0.5,0.5)"/><text class="title text-[12px] font-bold" x="26" y="17" fill="#FFFFFF" font-family="Helvetica Neue, Helvetica, Arial, sans-serif">Filter@neo4j</text></g><g class="detail identifiers text-[10px] font-mono" transform="translate(0, 40)"><text font-size="10" x="3" text-anchor="start" fill="#1A1B1D" font-family="Helvetica Neue, Helvetica, Arial, sans-serif">anon_2, t, anon_1, tx_current_month, month</text></g><g class="detail identifiers text-[10px] font-mono" transform="translate(0, 54)"><text font-size="10" x="3" text-anchor="start" fill="#1A1B1D" font-family="Helvetica Neue, Helvetica, Arial, sans-serif">, year, tx_amount_fraud_limit</text></g><g class="detail padding text-[10px]" transform="translate(0, 68)"><text font-size="10" x="3" text-anchor="start" fill="#1A1B1D" font-family="Helvetica Neue, Helvetica, Arial, sans-serif"/><path class="divider" visibility="visible" d="M 0 -6 L 260 -6" stroke="#DFE1E3"/></g><g class="detail expression text-[10px] font-mono" transform="translate(0, 74)"><text font-size="10" x="3" text-anchor="start" fill="#1A1B1D" font-family="Helvetica Neue, Helvetica, Arial, sans-serif">(tx_current_month.tx_date_month = month </text></g><g class="detail expression text-[10px] font-mono" transform="translate(0, 88)"><text font-size="10" x="3" text-anchor="start" fill="#1A1B1D" font-family="Helvetica Neue, Helvetica, Arial, sans-serif">AND tx_current_month.tx_date_year = year)</text></g><path class="cost" fill="#BB2D00" d="M 252 94 A 8 8 0 0 1 252 94 L 8 94 A 8 8 0 0 1 8 94 Z"/><rect class="b-outline" width="260" rx="8" ry="8" fill="none" stroke-width="1" style="stroke: rgb(187, 190, 195);" height="94"/></g><g class="operator" transform="translate(178.11373901367188, -872)"><rect class="background" width="260" height="94" rx="8" ry="8" fill="rgb(255, 255, 255)"/><g class="header" pointer-events="all"><path class="banner" d="M 252 0 A 8 8 0 0 1 260 8 L 260 18 A 8 8 0 0 1 260 26 L 0 26 A 8 8 0 0 1 0 18 L 0 8 A 8 8 0 0 1 8 0 Z" style="fill: rgb(44, 42, 52);"/><path class="expand" fill="#FFFFFF" d="M -5 -10 L 8.66 0 L -5 10 Z" transform="translate(13, 13) rotate(90) scale(0.5,0.5)"/><text class="title text-[12px] font-bold" x="26" y="17" fill="#FFFFFF" font-family="Helvetica Neue, Helvetica, Arial, sans-serif">Expand(Into)@neo4j</text></g><g class="detail identifiers text-[10px] font-mono" transform="translate(0, 40)"><text font-size="10" x="3" text-anchor="start" fill="#1A1B1D" font-family="Helvetica Neue, Helvetica, Arial, sans-serif">anon_2, t, anon_1, tx_current_month, month</text></g><g class="detail identifiers text-[10px] font-mono" transform="translate(0, 54)"><text font-size="10" x="3" text-anchor="start" fill="#1A1B1D" font-family="Helvetica Neue, Helvetica, Arial, sans-serif">, year, tx_amount_fraud_limit</text></g><g class="detail padding text-[10px]" transform="translate(0, 68)"><text font-size="10" x="3" text-anchor="start" fill="#1A1B1D" font-family="Helvetica Neue, Helvetica, Arial, sans-serif"/><path class="divider" visibility="visible" d="M 0 -6 L 260 -6" stroke="#DFE1E3"/></g><g class="detail expression text-[10px] font-mono" transform="translate(0, 74)"><text font-size="10" x="3" text-anchor="start" fill="#1A1B1D" font-family="Helvetica Neue, Helvetica, Arial, sans-serif">(anon_1)-[tx_current_month:Make_</text></g><g class="detail expression text-[10px] font-mono" transform="translate(0, 88)"><text font-size="10" x="3" text-anchor="start" fill="#1A1B1D" font-family="Helvetica Neue, Helvetica, Arial, sans-serif">transaction]-&gt;(t)</text></g><path class="cost" fill="#BB2D00" d="M 252 94 A 8 8 0 0 1 252 94 L 8 94 A 8 8 0 0 1 8 94 Z"/><rect class="b-outline" width="260" rx="8" ry="8" fill="none" stroke-width="1" style="stroke: rgb(187, 190, 195);" height="94"/></g><g class="operator" transform="translate(204.26022338867188, -982)"><rect class="background" width="260" height="60" rx="8" ry="8" fill="rgb(255, 255, 255)"/><g class="header" pointer-events="all"><path class="banner" d="M 252 0 A 8 8 0 0 1 260 8 L 260 18 A 8 8 0 0 1 260 26 L 0 26 A 8 8 0 0 1 0 18 L 0 8 A 8 8 0 0 1 8 0 Z" style="fill: rgb(75, 40, 148);"/><path class="expand" fill="#FFFFFF" d="M -5 -10 L 8.66 0 L -5 10 Z" transform="translate(13, 13) rotate(90) scale(0.5,0.5)"/><text class="title text-[12px] font-bold" x="26" y="17" fill="#FFFFFF" font-family="Helvetica Neue, Helvetica, Arial, sans-serif">Apply@neo4j</text></g><g class="detail identifiers text-[10px] font-mono" transform="translate(0, 40)"><text font-size="10" x="3" text-anchor="start" fill="#1A1B1D" font-family="Helvetica Neue, Helvetica, Arial, sans-serif">anon_2, t, anon_1, month, year, tx_amount_</text></g><g class="detail identifiers text-[10px] font-mono" transform="translate(0, 54)"><text font-size="10" x="3" text-anchor="start" fill="#1A1B1D" font-family="Helvetica Neue, Helvetica, Arial, sans-serif">fraud_limit</text></g><path class="cost" fill="#BB2D00" d="M 252 60 A 8 8 0 0 1 252 60 L 8 60 A 8 8 0 0 1 8 60 Z"/><rect class="b-outline" width="260" rx="8" ry="8" fill="none" stroke-width="1" style="stroke: rgb(187, 190, 195);" height="60"/></g><g class="operator" transform="translate(34.324649810791016, -1126)"><rect class="background" width="260" height="94" rx="8" ry="8" fill="rgb(255, 255, 255)"/><g class="header" pointer-events="all"><path class="banner" d="M 252 0 A 8 8 0 0 1 260 8 L 260 18 A 8 8 0 0 1 260 26 L 0 26 A 8 8 0 0 1 0 18 L 0 8 A 8 8 0 0 1 8 0 Z" style="fill: rgb(160, 123, 236);"/><path class="expand" fill="#000000" d="M -5 -10 L 8.66 0 L -5 10 Z" transform="translate(13, 13) rotate(90) scale(0.5,0.5)"/><text class="title text-[12px] font-bold" x="26" y="17" fill="#000000" font-family="Helvetica Neue, Helvetica, Arial, sans-serif">Projection@neo4j</text></g><g class="detail identifiers text-[10px] font-mono" transform="translate(0, 40)"><text font-size="10" x="3" text-anchor="start" fill="#1A1B1D" font-family="Helvetica Neue, Helvetica, Arial, sans-serif">anon_2, t, month, year, tx_amount_fraud_</text></g><g class="detail identifiers text-[10px] font-mono" transform="translate(0, 54)"><text font-size="10" x="3" text-anchor="start" fill="#1A1B1D" font-family="Helvetica Neue, Helvetica, Arial, sans-serif">limit</text></g><g class="detail padding text-[10px]" transform="translate(0, 68)"><text font-size="10" x="3" text-anchor="start" fill="#1A1B1D" font-family="Helvetica Neue, Helvetica, Arial, sans-serif"/><path class="divider" visibility="visible" d="M 0 -6 L 260 -6" stroke="#DFE1E3"/></g><g class="detail expression text-[10px] font-mono" transform="translate(0, 74)"><text font-size="10" x="3" text-anchor="start" fill="#1A1B1D" font-family="Helvetica Neue, Helvetica, Arial, sans-serif">anon_2 * $autodouble_12 AS tx_amount_fraud</text></g><g class="detail expression text-[10px] font-mono" transform="translate(0, 88)"><text font-size="10" x="3" text-anchor="start" fill="#1A1B1D" font-family="Helvetica Neue, Helvetica, Arial, sans-serif">_limit</text></g><path class="cost" fill="#BB2D00" d="M 252 94 A 8 8 0 0 1 252 94 L 8 94 A 8 8 0 0 1 8 94 Z"/><rect class="b-outline" width="260" rx="8" ry="8" fill="none" stroke-width="1" style="stroke: rgb(187, 190, 195);" height="94"/></g><g class="operator" transform="translate(79.1844253540039, -1354)"><rect class="background" width="260" height="178" rx="8" ry="8" fill="rgb(255, 255, 255)"/><g class="header" pointer-events="all"><path class="banner" d="M 252 0 A 8 8 0 0 1 260 8 L 260 18 A 8 8 0 0 1 260 26 L 0 26 A 8 8 0 0 1 0 18 L 0 8 A 8 8 0 0 1 8 0 Z" style="fill: rgb(23, 1, 70);"/><path class="expand" fill="#FFFFFF" d="M -5 -10 L 8.66 0 L -5 10 Z" transform="translate(13, 13) rotate(90) scale(0.5,0.5)"/><text class="title text-[12px] font-bold" x="26" y="17" fill="#FFFFFF" font-family="Helvetica Neue, Helvetica, Arial, sans-serif">EagerAggregation@neo4j</text></g><g class="detail identifiers text-[10px] font-mono" transform="translate(0, 40)"><text font-size="10" x="3" text-anchor="start" fill="#1A1B1D" font-family="Helvetica Neue, Helvetica, Arial, sans-serif">year, month, t, anon_2</text></g><g class="detail padding text-[10px]" transform="translate(0, 54)"><text font-size="10" x="3" text-anchor="start" fill="#1A1B1D" font-family="Helvetica Neue, Helvetica, Arial, sans-serif"/><path class="divider" visibility="visible" d="M 0 -6 L 260 -6" stroke="#DFE1E3"/></g><g class="detail expression text-[10px] font-mono" transform="translate(0, 60)"><text font-size="10" x="3" text-anchor="start" fill="#1A1B1D" font-family="Helvetica Neue, Helvetica, Arial, sans-serif">(date({year: cache[tx.tx_date_year], month</text></g><g class="detail expression text-[10px] font-mono" transform="translate(0, 74)"><text font-size="10" x="3" text-anchor="start" fill="#1A1B1D" font-family="Helvetica Neue, Helvetica, Arial, sans-serif">: cache[tx.tx_date_month], day: $autoint_8</text></g><g class="detail expression text-[10px] font-mono" transform="translate(0, 88)"><text font-size="10" x="3" text-anchor="start" fill="#1A1B1D" font-family="Helvetica Neue, Helvetica, Arial, sans-serif">}) + RuntimeConstant(duration({months: $</text></g><g class="detail expression text-[10px] font-mono" transform="translate(0, 102)"><text font-size="10" x="3" text-anchor="start" fill="#1A1B1D" font-family="Helvetica Neue, Helvetica, Arial, sans-serif">autoint_9}))).year AS year, (date({year: </text></g><g class="detail expression text-[10px] font-mono" transform="translate(0, 116)"><text font-size="10" x="3" text-anchor="start" fill="#1A1B1D" font-family="Helvetica Neue, Helvetica, Arial, sans-serif">cache[tx.tx_date_year], month: cache[tx.tx</text></g><g class="detail expression text-[10px] font-mono" transform="translate(0, 130)"><text font-size="10" x="3" text-anchor="start" fill="#1A1B1D" font-family="Helvetica Neue, Helvetica, Arial, sans-serif">_date_month], day: $autoint_10}) + </text></g><g class="detail expression text-[10px] font-mono" transform="translate(0, 144)"><text font-size="10" x="3" text-anchor="start" fill="#1A1B1D" font-family="Helvetica Neue, Helvetica, Arial, sans-serif">RuntimeConstant(duration({months: $autoint</text></g><g class="detail expression text-[10px] font-mono" transform="translate(0, 158)"><text font-size="10" x="3" text-anchor="start" fill="#1A1B1D" font-family="Helvetica Neue, Helvetica, Arial, sans-serif">_11}))).month AS month, t, max(tx.tx_</text></g><g class="detail expression text-[10px] font-mono" transform="translate(0, 172)"><text font-size="10" x="3" text-anchor="start" fill="#1A1B1D" font-family="Helvetica Neue, Helvetica, Arial, sans-serif">amount) AS anon_2</text></g><path class="cost" fill="#BB2D00" d="M 252 178 A 8 8 0 0 1 252 178 L 8 178 A 8 8 0 0 1 8 178 Z"/><rect class="b-outline" width="260" rx="8" ry="8" fill="none" stroke-width="1" style="stroke: rgb(187, 190, 195);" height="178"/></g><g class="operator" transform="translate(135.5004425048828, -1554)"><rect class="background" width="260" height="150" rx="8" ry="8" fill="rgb(255, 255, 255)"/><g class="header" pointer-events="all"><path class="banner" d="M 252 0 A 8 8 0 0 1 260 8 L 260 18 A 8 8 0 0 1 260 26 L 0 26 A 8 8 0 0 1 0 18 L 0 8 A 8 8 0 0 1 8 0 Z" style="fill: rgb(75, 40, 148);"/><path class="expand" fill="#FFFFFF" d="M -5 -10 L 8.66 0 L -5 10 Z" transform="translate(13, 13) rotate(90) scale(0.5,0.5)"/><text class="title text-[12px] font-bold" x="26" y="17" fill="#FFFFFF" font-family="Helvetica Neue, Helvetica, Arial, sans-serif">Filter@neo4j</text></g><g class="detail identifiers text-[10px] font-mono" transform="translate(0, 40)"><text font-size="10" x="3" text-anchor="start" fill="#1A1B1D" font-family="Helvetica Neue, Helvetica, Arial, sans-serif">endDate, t, anon_0, startDate, tx</text></g><g class="detail padding text-[10px]" transform="translate(0, 54)"><text font-size="10" x="3" text-anchor="start" fill="#1A1B1D" font-family="Helvetica Neue, Helvetica, Arial, sans-serif"/><path class="divider" visibility="visible" d="M 0 -6 L 260 -6" stroke="#DFE1E3"/></g><g class="detail expression text-[10px] font-mono" transform="translate(0, 60)"><text font-size="10" x="3" text-anchor="start" fill="#1A1B1D" font-family="Helvetica Neue, Helvetica, Arial, sans-serif">((startDate IS NULL OR cache[tx.tx_date_</text></g><g class="detail expression text-[10px] font-mono" transform="translate(0, 74)"><text font-size="10" x="3" text-anchor="start" fill="#1A1B1D" font-family="Helvetica Neue, Helvetica, Arial, sans-serif">year] &gt;= startDate.year) AND (startDate IS</text></g><g class="detail expression text-[10px] font-mono" transform="translate(0, 88)"><text font-size="10" x="3" text-anchor="start" fill="#1A1B1D" font-family="Helvetica Neue, Helvetica, Arial, sans-serif"> NULL OR cache[tx.tx_date_month] &gt;= </text></g><g class="detail expression text-[10px] font-mono" transform="translate(0, 102)"><text font-size="10" x="3" text-anchor="start" fill="#1A1B1D" font-family="Helvetica Neue, Helvetica, Arial, sans-serif">startDate.month) AND (endDate IS NULL OR </text></g><g class="detail expression text-[10px] font-mono" transform="translate(0, 116)"><text font-size="10" x="3" text-anchor="start" fill="#1A1B1D" font-family="Helvetica Neue, Helvetica, Arial, sans-serif">cache[tx.tx_date_year] &lt;= endDate.year) </text></g><g class="detail expression text-[10px] font-mono" transform="translate(0, 130)"><text font-size="10" x="3" text-anchor="start" fill="#1A1B1D" font-family="Helvetica Neue, Helvetica, Arial, sans-serif">AND (endDate IS NULL OR cache[tx.tx_date_</text></g><g class="detail expression text-[10px] font-mono" transform="translate(0, 144)"><text font-size="10" x="3" text-anchor="start" fill="#1A1B1D" font-family="Helvetica Neue, Helvetica, Arial, sans-serif">month] &lt;= endDate.month))</text></g><path class="cost" fill="#BB2D00" d="M 252 150 A 8 8 0 0 1 252 150 L 8 150 A 8 8 0 0 1 8 150 Z"/><rect class="b-outline" width="260" rx="8" ry="8" fill="none" stroke-width="1" style="stroke: rgb(187, 190, 195);" height="150"/></g><g class="operator" transform="translate(194.57315063476562, -1670)"><rect class="background" width="260" height="66" rx="8" ry="8" fill="rgb(255, 255, 255)"/><g class="header" pointer-events="all"><path class="banner" d="M 252 0 A 8 8 0 0 1 260 8 L 260 18 A 8 8 0 0 1 260 26 L 0 26 A 8 8 0 0 1 0 18 L 0 8 A 8 8 0 0 1 8 0 Z" style="fill: rgb(44, 42, 52);"/><path class="expand" fill="#FFFFFF" d="M -5 -10 L 8.66 0 L -5 10 Z" transform="translate(13, 13) rotate(90) scale(0.5,0.5)"/><text class="title text-[12px] font-bold" x="26" y="17" fill="#FFFFFF" font-family="Helvetica Neue, Helvetica, Arial, sans-serif">Expand(Into)@neo4j</text></g><g class="detail identifiers text-[10px] font-mono" transform="translate(0, 40)"><text font-size="10" x="3" text-anchor="start" fill="#1A1B1D" font-family="Helvetica Neue, Helvetica, Arial, sans-serif">endDate, t, anon_0, startDate, tx</text></g><g class="detail padding text-[10px]" transform="translate(0, 54)"><text font-size="10" x="3" text-anchor="start" fill="#1A1B1D" font-family="Helvetica Neue, Helvetica, Arial, sans-serif"/><path class="divider" visibility="visible" d="M 0 -6 L 260 -6" stroke="#DFE1E3"/></g><g class="detail expression text-[10px] font-mono" transform="translate(0, 60)"><text font-size="10" x="3" text-anchor="start" fill="#1A1B1D" font-family="Helvetica Neue, Helvetica, Arial, sans-serif">(anon_0)-[tx:Make_transaction]-&gt;(t)</text></g><path class="cost" fill="#BB2D00" d="M 252 66 A 8 8 0 0 1 252 66 L 8 66 A 8 8 0 0 1 8 66 Z"/><rect class="b-outline" width="260" rx="8" ry="8" fill="none" stroke-width="1" style="stroke: rgb(187, 190, 195);" height="66"/></g><g class="operator" transform="translate(255.8824462890625, -1766)"><rect class="background" width="260" height="46" rx="8" ry="8" fill="rgb(255, 255, 255)"/><g class="header" pointer-events="all"><path class="banner" d="M 252 0 A 8 8 0 0 1 260 8 L 260 18 A 8 8 0 0 1 260 26 L 0 26 A 8 8 0 0 1 0 18 L 0 8 A 8 8 0 0 1 8 0 Z" style="fill: rgb(75, 40, 148);"/><path class="expand" fill="#FFFFFF" d="M -5 -10 L 8.66 0 L -5 10 Z" transform="translate(13, 13) rotate(90) scale(0.5,0.5)"/><text class="title text-[12px] font-bold" x="26" y="17" fill="#FFFFFF" font-family="Helvetica Neue, Helvetica, Arial, sans-serif">Apply@neo4j</text></g><g class="detail identifiers text-[10px] font-mono" transform="translate(0, 40)"><text font-size="10" x="3" text-anchor="start" fill="#1A1B1D" font-family="Helvetica Neue, Helvetica, Arial, sans-serif">startDate, endDate, t, anon_0</text></g><path class="cost" fill="#BB2D00" d="M 252 46 A 8 8 0 0 1 252 46 L 8 46 A 8 8 0 0 1 8 46 Z"/><rect class="b-outline" width="260" rx="8" ry="8" fill="none" stroke-width="1" style="stroke: rgb(187, 190, 195);" height="46"/></g><g class="operator" transform="translate(32.3514518737793, -1966)"><rect class="background" width="260" height="150" rx="8" ry="8" fill="rgb(255, 255, 255)"/><g class="header" pointer-events="all"><path class="banner" d="M 252 0 A 8 8 0 0 1 260 8 L 260 18 A 8 8 0 0 1 260 26 L 0 26 A 8 8 0 0 1 0 18 L 0 8 A 8 8 0 0 1 8 0 Z" style="fill: rgb(160, 123, 236);"/><path class="expand" fill="#000000" d="M -5 -10 L 8.66 0 L -5 10 Z" transform="translate(13, 13) rotate(90) scale(0.5,0.5)"/><text class="title text-[12px] font-bold" x="26" y="17" fill="#000000" font-family="Helvetica Neue, Helvetica, Arial, sans-serif">Projection@neo4j</text></g><g class="detail identifiers text-[10px] font-mono" transform="translate(0, 40)"><text font-size="10" x="3" text-anchor="start" fill="#1A1B1D" font-family="Helvetica Neue, Helvetica, Arial, sans-serif">startDate, endDate</text></g><g class="detail padding text-[10px]" transform="translate(0, 54)"><text font-size="10" x="3" text-anchor="start" fill="#1A1B1D" font-family="Helvetica Neue, Helvetica, Arial, sans-serif"/><path class="divider" visibility="visible" d="M 0 -6 L 260 -6" stroke="#DFE1E3"/></g><g class="detail expression text-[10px] font-mono" transform="translate(0, 60)"><text font-size="10" x="3" text-anchor="start" fill="#1A1B1D" font-family="Helvetica Neue, Helvetica, Arial, sans-serif">CASE
  WHEN $autostring_0 = $autostring_1 </text></g><g class="detail expression text-[10px] font-mono" transform="translate(0, 74)"><text font-size="10" x="3" text-anchor="start" fill="#1A1B1D" font-family="Helvetica Neue, Helvetica, Arial, sans-serif">THEN NULL
  ELSE RuntimeConstant(date($</text></g><g class="detail expression text-[10px] font-mono" transform="translate(0, 88)"><text font-size="10" x="3" text-anchor="start" fill="#1A1B1D" font-family="Helvetica Neue, Helvetica, Arial, sans-serif">autostring_2 + $autostring_3))
END AS </text></g><g class="detail expression text-[10px] font-mono" transform="translate(0, 102)"><text font-size="10" x="3" text-anchor="start" fill="#1A1B1D" font-family="Helvetica Neue, Helvetica, Arial, sans-serif">startDate, CASE
  WHEN $autostring_4 = $</text></g><g class="detail expression text-[10px] font-mono" transform="translate(0, 116)"><text font-size="10" x="3" text-anchor="start" fill="#1A1B1D" font-family="Helvetica Neue, Helvetica, Arial, sans-serif">autostring_5 THEN NULL
  ELSE </text></g><g class="detail expression text-[10px] font-mono" transform="translate(0, 130)"><text font-size="10" x="3" text-anchor="start" fill="#1A1B1D" font-family="Helvetica Neue, Helvetica, Arial, sans-serif">RuntimeConstant(date($autostring_6 + $</text></g><g class="detail expression text-[10px] font-mono" transform="translate(0, 144)"><text font-size="10" x="3" text-anchor="start" fill="#1A1B1D" font-family="Helvetica Neue, Helvetica, Arial, sans-serif">autostring_7))
END AS endDate</text></g><path class="cost" fill="#BB2D00" d="M 252 150 A 8 8 0 0 1 252 150 L 8 150 A 8 8 0 0 1 8 150 Z"/><rect class="b-outline" width="260" rx="8" ry="8" fill="none" stroke-width="1" style="stroke: rgb(187, 190, 195);" height="150"/></g><g class="operator" transform="translate(342.3514404296875, -1966)"><rect class="background" width="260" height="46" rx="8" ry="8" fill="rgb(255, 255, 255)"/><g class="header" pointer-events="all"><path class="banner" d="M 252 0 A 8 8 0 0 1 260 8 L 260 18 A 8 8 0 0 1 260 26 L 0 26 A 8 8 0 0 1 0 18 L 0 8 A 8 8 0 0 1 8 0 Z" style="fill: rgb(44, 42, 52);"/><path class="expand" fill="#FFFFFF" d="M -5 -10 L 8.66 0 L -5 10 Z" transform="translate(13, 13) rotate(90) scale(0.5,0.5)"/><text class="title text-[12px] font-bold" x="26" y="17" fill="#FFFFFF" font-family="Helvetica Neue, Helvetica, Arial, sans-serif">CartesianProduct@neo4j</text></g><g class="detail identifiers text-[10px] font-mono" transform="translate(0, 40)"><text font-size="10" x="3" text-anchor="start" fill="#1A1B1D" font-family="Helvetica Neue, Helvetica, Arial, sans-serif">startDate, endDate, t, anon_0</text></g><path class="cost" fill="#BB2D00" d="M 252 46 A 8 8 0 0 1 252 46 L 8 46 A 8 8 0 0 1 8 46 Z"/><rect class="b-outline" width="260" rx="8" ry="8" fill="none" stroke-width="1" style="stroke: rgb(187, 190, 195);" height="46"/></g><g class="operator" transform="translate(43.79738235473633, -2096)"><rect class="background" width="260" height="80" rx="8" ry="8" fill="rgb(255, 255, 255)"/><g class="header" pointer-events="all"><path class="banner" d="M 252 0 A 8 8 0 0 1 260 8 L 260 18 A 8 8 0 0 1 260 26 L 0 26 A 8 8 0 0 1 0 18 L 0 8 A 8 8 0 0 1 8 0 Z" style="fill: rgb(204, 180, 255);"/><path class="expand" fill="#000000" d="M -5 -10 L 8.66 0 L -5 10 Z" transform="translate(13, 13) rotate(90) scale(0.5,0.5)"/><text class="title text-[12px] font-bold" x="26" y="17" fill="#000000" font-family="Helvetica Neue, Helvetica, Arial, sans-serif">NodeIndexScan@neo4j</text></g><g class="detail identifiers text-[10px] font-mono" transform="translate(0, 40)"><text font-size="10" x="3" text-anchor="start" fill="#1A1B1D" font-family="Helvetica Neue, Helvetica, Arial, sans-serif">startDate, endDate, t</text></g><g class="detail padding text-[10px]" transform="translate(0, 54)"><text font-size="10" x="3" text-anchor="start" fill="#1A1B1D" font-family="Helvetica Neue, Helvetica, Arial, sans-serif"/><path class="divider" visibility="visible" d="M 0 -6 L 260 -6" stroke="#DFE1E3"/></g><g class="detail expression text-[10px] font-mono" transform="translate(0, 60)"><text font-size="10" x="3" text-anchor="start" fill="#1A1B1D" font-family="Helvetica Neue, Helvetica, Arial, sans-serif">RANGE INDEX t:Terminal(terminal_id) WHERE </text></g><g class="detail expression text-[10px] font-mono" transform="translate(0, 74)"><text font-size="10" x="3" text-anchor="start" fill="#1A1B1D" font-family="Helvetica Neue, Helvetica, Arial, sans-serif">terminal_id IS NOT NULL</text></g><path class="cost" fill="#BB2D00" d="M 252 80 A 8 8 0 0 1 252 80 L 8 80 A 8 8 0 0 1 8 80 Z"/><rect class="b-outline" width="260" rx="8" ry="8" fill="none" stroke-width="1" style="stroke: rgb(187, 190, 195);" height="80"/></g><g class="operator" transform="translate(358.354248046875, -2096)"><rect class="background" width="260" height="80" rx="8" ry="8" fill="rgb(255, 255, 255)"/><g class="header" pointer-events="all"><path class="banner" d="M 252 0 A 8 8 0 0 1 260 8 L 260 18 A 8 8 0 0 1 260 26 L 0 26 A 8 8 0 0 1 0 18 L 0 8 A 8 8 0 0 1 8 0 Z" style="fill: rgb(204, 180, 255);"/><path class="expand" fill="#000000" d="M -5 -10 L 8.66 0 L -5 10 Z" transform="translate(13, 13) rotate(90) scale(0.5,0.5)"/><text class="title text-[12px] font-bold" x="26" y="17" fill="#000000" font-family="Helvetica Neue, Helvetica, Arial, sans-serif">NodeIndexScan@neo4j</text></g><g class="detail identifiers text-[10px] font-mono" transform="translate(0, 40)"><text font-size="10" x="3" text-anchor="start" fill="#1A1B1D" font-family="Helvetica Neue, Helvetica, Arial, sans-serif">startDate, endDate, anon_0</text></g><g class="detail padding text-[10px]" transform="translate(0, 54)"><text font-size="10" x="3" text-anchor="start" fill="#1A1B1D" font-family="Helvetica Neue, Helvetica, Arial, sans-serif"/><path class="divider" visibility="visible" d="M 0 -6 L 260 -6" stroke="#DFE1E3"/></g><g class="detail expression text-[10px] font-mono" transform="translate(0, 60)"><text font-size="10" x="3" text-anchor="start" fill="#1A1B1D" font-family="Helvetica Neue, Helvetica, Arial, sans-serif">RANGE INDEX anon_0:Customer(customer_id) </text></g><g class="detail expression text-[10px] font-mono" transform="translate(0, 74)"><text font-size="10" x="3" text-anchor="start" fill="#1A1B1D" font-family="Helvetica Neue, Helvetica, Arial, sans-serif">WHERE customer_id IS NOT NULL</text></g><path class="cost" fill="#BB2D00" d="M 252 80 A 8 8 0 0 1 252 80 L 8 80 A 8 8 0 0 1 8 80 Z"/><rect class="b-outline" width="260" rx="8" ry="8" fill="none" stroke-width="1" style="stroke: rgb(187, 190, 195);" height="80"/></g><g class="operator" transform="translate(344.32464599609375, -1126)"><rect class="background" width="260" height="94" rx="8" ry="8" fill="rgb(255, 255, 255)"/><g class="header" pointer-events="all"><path class="banner" d="M 252 0 A 8 8 0 0 1 260 8 L 260 18 A 8 8 0 0 1 260 26 L 0 26 A 8 8 0 0 1 0 18 L 0 8 A 8 8 0 0 1 8 0 Z" style="fill: rgb(204, 180, 255);"/><path class="expand" fill="#000000" d="M -5 -10 L 8.66 0 L -5 10 Z" transform="translate(13, 13) rotate(90) scale(0.5,0.5)"/><text class="title text-[12px] font-bold" x="26" y="17" fill="#000000" font-family="Helvetica Neue, Helvetica, Arial, sans-serif">NodeIndexScan@neo4j</text></g><g class="detail identifiers text-[10px] font-mono" transform="translate(0, 40)"><text font-size="10" x="3" text-anchor="start" fill="#1A1B1D" font-family="Helvetica Neue, Helvetica, Arial, sans-serif">t, anon_1, month, year, tx_amount_fraud_</text></g><g class="detail identifiers text-[10px] font-mono" transform="translate(0, 54)"><text font-size="10" x="3" text-anchor="start" fill="#1A1B1D" font-family="Helvetica Neue, Helvetica, Arial, sans-serif">limit</text></g><g class="detail padding text-[10px]" transform="translate(0, 68)"><text font-size="10" x="3" text-anchor="start" fill="#1A1B1D" font-family="Helvetica Neue, Helvetica, Arial, sans-serif"/><path class="divider" visibility="visible" d="M 0 -6 L 260 -6" stroke="#DFE1E3"/></g><g class="detail expression text-[10px] font-mono" transform="translate(0, 74)"><text font-size="10" x="3" text-anchor="start" fill="#1A1B1D" font-family="Helvetica Neue, Helvetica, Arial, sans-serif">RANGE INDEX anon_1:Customer(customer_id) </text></g><g class="detail expression text-[10px] font-mono" transform="translate(0, 88)"><text font-size="10" x="3" text-anchor="start" fill="#1A1B1D" font-family="Helvetica Neue, Helvetica, Arial, sans-serif">WHERE customer_id IS NOT NULL</text></g><path class="cost" fill="#BB2D00" d="M 252 94 A 8 8 0 0 1 252 94 L 8 94 A 8 8 0 0 1 8 94 Z"/><rect class="b-outline" width="260" rx="8" ry="8" fill="none" stroke-width="1" style="stroke: rgb(187, 190, 195);" height="94"/></g></g></svg>