<svg xmlns="http://www.w3.org/2000/svg" height="2026" width="608.5211181640625" viewBox="9.652082443237305 -2076 608.5211181640625 2026"><g class="layer links"><g class="link"><path fill="#E2E3E5" d="M 144.7341791765627 -1810 C 144.7341791765627 -1766.5530362455218 381.985836272786 -1766.5530362455218 381.985836272786 -1718 L 373.9652363595064 -1718 C 373.9652363595064 -1761.4469637544782 136.71357926328307 -1761.4469637544782 136.71357926328307 -1810 Z"/><text class="text-[12px] font-bold" fill="#1A1B1D" x="140.72387921992288" y="-1784" text-anchor="middle" font-family="Helvetica Neue, Helvetica, Arial, sans-serif">1 estimated row</text></g><g class="link"><path fill="#E2E3E5" d="M 515.999148441752 -1982 C 515.999148441752 -1972.9154943091896 518.1057918763245 -1972.9154943091896 518.1057918763245 -1932 L 456.09711032673806 -1932 C 456.09711032673806 -1941.0845056908104 453.99046689216567 -1941.0845056908104 453.99046689216567 -1982 Z"/><text class="text-[12px] font-bold" fill="#1A1B1D" x="484.9948076669589" y="-1956" text-anchor="middle" font-family="Helvetica Neue, Helvetica, Arial, sans-serif">1.000 estimated rows</text></g><g class="link"><path fill="#E2E3E5" d="M 525.4020026252863 -1768 C 525.4020026252863 -1727.0845056908104 458.586939320296 -1727.0845056908104 458.586939320296 -1718 L 381.985836272786 -1718 C 381.985836272786 -1758.9154943091896 448.80089957777625 -1758.9154943091896 448.80089957777625 -1768 Z"/><text class="text-[12px] font-bold" fill="#1A1B1D" x="487.10145110153127" y="-1742" text-anchor="middle" font-family="Helvetica Neue, Helvetica, Arial, sans-serif">5.370 estimated rows</text></g><g class="link"><path fill="#E2E3E5" d="M 454.5766393636562 -1658 C 454.5766393636562 -1617.0845056908104 419.8843847798971 -1617.0845056908104 419.8843847798971 -1608 L 343.2832817323871 -1608 C 343.2832817323871 -1648.9154943091896 377.9755363161462 -1648.9154943091896 377.9755363161462 -1658 Z"/><text class="text-[12px] font-bold" fill="#1A1B1D" x="416.2760878399012" y="-1632" text-anchor="middle" font-family="Helvetica Neue, Helvetica, Arial, sans-serif">5.370 estimated rows</text></g><g class="link"><path fill="#E2E3E5" d="M 401.29256880225364 -1472 C 401.29256880225364 -1434.4530292629815 369.5124849092734 -1434.4530292629815 369.5124849092734 -1422 L 330.09501381705013 -1422 C 330.09501381705013 -1459.5469707370185 361.87509771003045 -1459.5469707370185 361.87509771003045 -1472 Z"/><text class="text-[12px] font-bold" fill="#1A1B1D" x="381.58383325614204" y="-1446" text-anchor="middle" font-family="Helvetica Neue, Helvetica, Arial, sans-serif">73 estimated rows</text></g><g class="link"><path fill="#E2E3E5" d="M 369.5124849092733 -1272 C 369.5124849092733 -1234.4530292629815 341.1460370118652 -1234.4530292629815 341.1460370118652 -1222 L 301.72856591964194 -1222 C 301.72856591964194 -1259.5469707370185 330.09501381705013 -1259.5469707370185 330.09501381705013 -1272 Z"/><text class="text-[12px] font-bold" fill="#1A1B1D" x="349.8037493631617" y="-1246" text-anchor="middle" font-family="Helvetica Neue, Helvetica, Arial, sans-serif">73 estimated rows</text></g><g class="link"><path fill="#E2E3E5" d="M 332.24205773805954 -1072 C 332.24205773805954 -1040.1214785214374 307.80721308192875 -1040.1214785214374 307.80721308192875 -1022 L 286.19770053731673 -1022 C 286.19770053731673 -1053.8785214785626 310.6325451934475 -1053.8785214785626 310.6325451934475 -1072 Z"/><text class="text-[12px] font-bold" fill="#1A1B1D" x="321.43730146575354" y="-1046" text-anchor="middle" font-family="Helvetica Neue, Helvetica, Arial, sans-serif">9 estimated rows</text></g><g class="link"><path fill="#E2E3E5" d="M 307.80721308192875 -872 C 307.80721308192875 -840.1214785214373 287.7567272542061 -840.1214785214373 287.7567272542061 -822 L 266.1472147095941 -822 C 266.1472147095941 -853.8785214785627 286.19770053731673 -853.8785214785627 286.19770053731673 -872 Z"/><text class="text-[12px] font-bold" fill="#1A1B1D" x="297.00245680962274" y="-846" text-anchor="middle" font-family="Helvetica Neue, Helvetica, Arial, sans-serif">9 estimated rows</text></g><g class="link"><path fill="#E2E3E5" d="M 283.891268713169 -658 C 283.891268713169 -628.5823058579288 268.58948070185664 -628.5823058579288 268.58948070185664 -608 L 254.71088523931886 -608 C 254.71088523931886 -637.4176941420712 270.0126732506312 -637.4176941420712 270.0126732506312 -658 Z"/><text class="text-[12px] font-bold" fill="#1A1B1D" x="276.9519709819001" y="-632" text-anchor="middle" font-family="Helvetica Neue, Helvetica, Arial, sans-serif">3 estimated rows</text></g><g class="link"><path fill="#E2E3E5" d="M 268.5894807018566 -346 C 268.5894807018566 -316.5823058579287 258.2938737854995 -316.5823058579287 258.2938737854995 -296 L 244.41527832296174 -296 C 244.41527832296174 -325.4176941420713 254.71088523931883 -325.4176941420713 254.71088523931883 -346 Z"/><text class="text-[12px] font-bold" fill="#1A1B1D" x="261.6501829705877" y="-320" text-anchor="middle" font-family="Helvetica Neue, Helvetica, Arial, sans-serif">3 estimated rows</text></g><g class="link"><path fill="#E2E3E5" d="M 258.2938737854995 -132 C 258.2938737854995 -102.58230585792873 253.1436929788369 -102.58230585792873 253.1436929788369 -82 L 239.2650975162991 -82 C 239.2650975162991 -111.41769414207127 244.41527832296174 -111.41769414207127 244.41527832296174 -132 Z"/><text class="text-[12px] font-bold" fill="#1A1B1D" x="251.35457605423062" y="-106" text-anchor="middle" font-family="Helvetica Neue, Helvetica, Arial, sans-serif">3 estimated rows</text></g></g><g class="layer operators"><g class="operator" transform="translate(116.20439147949219, -82)"><rect class="background" width="260" height="32" rx="8" ry="8" fill="rgb(255, 255, 255)"/><g class="header" pointer-events="all"><path class="banner" d="M 252 0 A 8 8 0 0 1 260 8 L 260 18 A 8 8 0 0 1 259.7459666924148 26 L 0.25403330758516596 26 A 8 8 0 0 1 0 18 L 0 8 A 8 8 0 0 1 8 0 Z" style="fill: rgb(247, 243, 255);"/><text class="title text-[12px] font-bold" x="26" y="17" fill="#000000" font-family="Helvetica Neue, Helvetica, Arial, sans-serif">Result</text></g><path class="cost" fill="#BB2D00" d="M 252 32 A 8 8 0 0 1 252 32 L 8 32 A 8 8 0 0 1 8 32 Z"/><rect class="b-outline" width="260" rx="8" ry="8" fill="none" stroke-width="1" style="stroke: rgb(187, 190, 195);" height="32"/></g><g class="operator" transform="translate(121.35457611083984, -296)"><rect class="background" width="260" height="164" rx="8" ry="8" fill="rgb(255, 255, 255)"/><g class="header" pointer-events="all"><path class="banner" d="M 252 0 A 8 8 0 0 1 260 8 L 260 18 A 8 8 0 0 1 260 26 L 0 26 A 8 8 0 0 1 0 18 L 0 8 A 8 8 0 0 1 8 0 Z" style="fill: rgb(247, 243, 255);"/><path class="expand" fill="#000000" d="M -5 -10 L 8.66 0 L -5 10 Z" transform="translate(13, 13) rotate(90) scale(0.5,0.5)"/><text class="title text-[12px] font-bold" x="26" y="17" fill="#000000" font-family="Helvetica Neue, Helvetica, Arial, sans-serif">ProduceResults@neo4j</text></g><g class="detail identifiers text-[10px] font-mono" transform="translate(0, 40)"><text font-size="10" x="3" text-anchor="start" fill="#1A1B1D" font-family="Helvetica Neue, Helvetica, Arial, sans-serif">tx_prev_month_all_prev_year_montly_freq_</text></g><g class="detail identifiers text-[10px] font-mono" transform="translate(0, 54)"><text font-size="10" x="3" text-anchor="start" fill="#1A1B1D" font-family="Helvetica Neue, Helvetica, Arial, sans-serif">avg, is_under_monthly_freq_avg_of_same_</text></g><g class="detail identifiers text-[10px] font-mono" transform="translate(0, 68)"><text font-size="10" x="3" text-anchor="start" fill="#1A1B1D" font-family="Helvetica Neue, Helvetica, Arial, sans-serif">period, is_under_total_amount_avg_of_same_</text></g><g class="detail identifiers text-[10px] font-mono" transform="translate(0, 82)"><text font-size="10" x="3" text-anchor="start" fill="#1A1B1D" font-family="Helvetica Neue, Helvetica, Arial, sans-serif">period, tx_prev_month_all_prev_year_total_</text></g><g class="detail identifiers text-[10px] font-mono" transform="translate(0, 96)"><text font-size="10" x="3" text-anchor="start" fill="#1A1B1D" font-family="Helvetica Neue, Helvetica, Arial, sans-serif">amount_avg, c, monthly_freq_prev_month, </text></g><g class="detail identifiers text-[10px] font-mono" transform="translate(0, 110)"><text font-size="10" x="3" text-anchor="start" fill="#1A1B1D" font-family="Helvetica Neue, Helvetica, Arial, sans-serif">total_amount_prev_month</text></g><g class="detail padding text-[10px]" transform="translate(0, 124)"><text font-size="10" x="3" text-anchor="start" fill="#1A1B1D" font-family="Helvetica Neue, Helvetica, Arial, sans-serif"/><path class="divider" visibility="visible" d="M 0 -6 L 260 -6" stroke="#DFE1E3"/></g><g class="detail expression text-[10px] font-mono" transform="translate(0, 130)"><text font-size="10" x="3" text-anchor="start" fill="#1A1B1D" font-family="Helvetica Neue, Helvetica, Arial, sans-serif">c, is_under_total_amount_avg_of_same_</text></g><g class="detail expression text-[10px] font-mono" transform="translate(0, 144)"><text font-size="10" x="3" text-anchor="start" fill="#1A1B1D" font-family="Helvetica Neue, Helvetica, Arial, sans-serif">period, is_under_monthly_freq_avg_of_same_</text></g><g class="detail expression text-[10px] font-mono" transform="translate(0, 158)"><text font-size="10" x="3" text-anchor="start" fill="#1A1B1D" font-family="Helvetica Neue, Helvetica, Arial, sans-serif">period</text></g><path class="cost" fill="#BB2D00" d="M 252 164 A 8 8 0 0 1 252 164 L 8 164 A 8 8 0 0 1 8 164 Z"/><rect class="b-outline" width="260" rx="8" ry="8" fill="none" stroke-width="1" style="stroke: rgb(187, 190, 195);" height="164"/></g><g class="operator" transform="translate(131.65017700195312, -608)"><rect class="background" width="260" height="262" rx="8" ry="8" fill="rgb(255, 255, 255)"/><g class="header" pointer-events="all"><path class="banner" d="M 252 0 A 8 8 0 0 1 260 8 L 260 18 A 8 8 0 0 1 260 26 L 0 26 A 8 8 0 0 1 0 18 L 0 8 A 8 8 0 0 1 8 0 Z" style="fill: rgb(160, 123, 236);"/><path class="expand" fill="#000000" d="M -5 -10 L 8.66 0 L -5 10 Z" transform="translate(13, 13) rotate(90) scale(0.5,0.5)"/><text class="title text-[12px] font-bold" x="26" y="17" fill="#000000" font-family="Helvetica Neue, Helvetica, Arial, sans-serif">Projection@neo4j</text></g><g class="detail identifiers text-[10px] font-mono" transform="translate(0, 40)"><text font-size="10" x="3" text-anchor="start" fill="#1A1B1D" font-family="Helvetica Neue, Helvetica, Arial, sans-serif">tx_prev_month_all_prev_year_montly_freq_</text></g><g class="detail identifiers text-[10px] font-mono" transform="translate(0, 54)"><text font-size="10" x="3" text-anchor="start" fill="#1A1B1D" font-family="Helvetica Neue, Helvetica, Arial, sans-serif">avg, is_under_monthly_freq_avg_of_same_</text></g><g class="detail identifiers text-[10px] font-mono" transform="translate(0, 68)"><text font-size="10" x="3" text-anchor="start" fill="#1A1B1D" font-family="Helvetica Neue, Helvetica, Arial, sans-serif">period, is_under_total_amount_avg_of_same_</text></g><g class="detail identifiers text-[10px] font-mono" transform="translate(0, 82)"><text font-size="10" x="3" text-anchor="start" fill="#1A1B1D" font-family="Helvetica Neue, Helvetica, Arial, sans-serif">period, tx_prev_month_all_prev_year_total_</text></g><g class="detail identifiers text-[10px] font-mono" transform="translate(0, 96)"><text font-size="10" x="3" text-anchor="start" fill="#1A1B1D" font-family="Helvetica Neue, Helvetica, Arial, sans-serif">amount_avg, c, monthly_freq_prev_month, </text></g><g class="detail identifiers text-[10px] font-mono" transform="translate(0, 110)"><text font-size="10" x="3" text-anchor="start" fill="#1A1B1D" font-family="Helvetica Neue, Helvetica, Arial, sans-serif">total_amount_prev_month</text></g><g class="detail padding text-[10px]" transform="translate(0, 124)"><text font-size="10" x="3" text-anchor="start" fill="#1A1B1D" font-family="Helvetica Neue, Helvetica, Arial, sans-serif"/><path class="divider" visibility="visible" d="M 0 -6 L 260 -6" stroke="#DFE1E3"/></g><g class="detail expression text-[10px] font-mono" transform="translate(0, 130)"><text font-size="10" x="3" text-anchor="start" fill="#1A1B1D" font-family="Helvetica Neue, Helvetica, Arial, sans-serif">CASE
  WHEN tx_prev_month_all_prev_year_</text></g><g class="detail expression text-[10px] font-mono" transform="translate(0, 144)"><text font-size="10" x="3" text-anchor="start" fill="#1A1B1D" font-family="Helvetica Neue, Helvetica, Arial, sans-serif">total_amount_avg IS NULL THEN NULL
  ELSE </text></g><g class="detail expression text-[10px] font-mono" transform="translate(0, 158)"><text font-size="10" x="3" text-anchor="start" fill="#1A1B1D" font-family="Helvetica Neue, Helvetica, Arial, sans-serif">total_amount_prev_month &lt; tx_prev_month_</text></g><g class="detail expression text-[10px] font-mono" transform="translate(0, 172)"><text font-size="10" x="3" text-anchor="start" fill="#1A1B1D" font-family="Helvetica Neue, Helvetica, Arial, sans-serif">all_prev_year_total_amount_avg
END AS is_</text></g><g class="detail expression text-[10px] font-mono" transform="translate(0, 186)"><text font-size="10" x="3" text-anchor="start" fill="#1A1B1D" font-family="Helvetica Neue, Helvetica, Arial, sans-serif">under_total_amount_avg_of_same_period, </text></g><g class="detail expression text-[10px] font-mono" transform="translate(0, 200)"><text font-size="10" x="3" text-anchor="start" fill="#1A1B1D" font-family="Helvetica Neue, Helvetica, Arial, sans-serif">CASE
  WHEN tx_prev_month_all_prev_year_</text></g><g class="detail expression text-[10px] font-mono" transform="translate(0, 214)"><text font-size="10" x="3" text-anchor="start" fill="#1A1B1D" font-family="Helvetica Neue, Helvetica, Arial, sans-serif">montly_freq_avg IS NULL THEN NULL
  ELSE </text></g><g class="detail expression text-[10px] font-mono" transform="translate(0, 228)"><text font-size="10" x="3" text-anchor="start" fill="#1A1B1D" font-family="Helvetica Neue, Helvetica, Arial, sans-serif">monthly_freq_prev_month &lt; tx_prev_month_</text></g><g class="detail expression text-[10px] font-mono" transform="translate(0, 242)"><text font-size="10" x="3" text-anchor="start" fill="#1A1B1D" font-family="Helvetica Neue, Helvetica, Arial, sans-serif">all_prev_year_montly_freq_avg
END AS is_</text></g><g class="detail expression text-[10px] font-mono" transform="translate(0, 256)"><text font-size="10" x="3" text-anchor="start" fill="#1A1B1D" font-family="Helvetica Neue, Helvetica, Arial, sans-serif">under_monthly_freq_avg_of_same_period</text></g><path class="cost" fill="#BB2D00" d="M 252 262 A 8 8 0 0 1 252 262 L 8 262 A 8 8 0 0 1 8 262 Z"/><rect class="b-outline" width="260" rx="8" ry="8" fill="none" stroke-width="1" style="stroke: rgb(187, 190, 195);" height="262"/></g><g class="operator" transform="translate(146.95196533203125, -822)"><rect class="background" width="260" height="164" rx="8" ry="8" fill="rgb(255, 255, 255)"/><g class="header" pointer-events="all"><path class="banner" d="M 252 0 A 8 8 0 0 1 260 8 L 260 18 A 8 8 0 0 1 260 26 L 0 26 A 8 8 0 0 1 0 18 L 0 8 A 8 8 0 0 1 8 0 Z" style="fill: rgb(23, 1, 70);"/><path class="expand" fill="#FFFFFF" d="M -5 -10 L 8.66 0 L -5 10 Z" transform="translate(13, 13) rotate(90) scale(0.5,0.5)"/><text class="title text-[12px] font-bold" x="26" y="17" fill="#FFFFFF" font-family="Helvetica Neue, Helvetica, Arial, sans-serif">EagerAggregation@neo4j</text></g><g class="detail identifiers text-[10px] font-mono" transform="translate(0, 40)"><text font-size="10" x="3" text-anchor="start" fill="#1A1B1D" font-family="Helvetica Neue, Helvetica, Arial, sans-serif">tx_prev_month_all_prev_year_montly_freq_</text></g><g class="detail identifiers text-[10px] font-mono" transform="translate(0, 54)"><text font-size="10" x="3" text-anchor="start" fill="#1A1B1D" font-family="Helvetica Neue, Helvetica, Arial, sans-serif">avg, tx_prev_month_all_prev_year_total_</text></g><g class="detail identifiers text-[10px] font-mono" transform="translate(0, 68)"><text font-size="10" x="3" text-anchor="start" fill="#1A1B1D" font-family="Helvetica Neue, Helvetica, Arial, sans-serif">amount_avg, c, monthly_freq_prev_month, </text></g><g class="detail identifiers text-[10px] font-mono" transform="translate(0, 82)"><text font-size="10" x="3" text-anchor="start" fill="#1A1B1D" font-family="Helvetica Neue, Helvetica, Arial, sans-serif">total_amount_prev_month</text></g><g class="detail padding text-[10px]" transform="translate(0, 96)"><text font-size="10" x="3" text-anchor="start" fill="#1A1B1D" font-family="Helvetica Neue, Helvetica, Arial, sans-serif"/><path class="divider" visibility="visible" d="M 0 -6 L 260 -6" stroke="#DFE1E3"/></g><g class="detail expression text-[10px] font-mono" transform="translate(0, 102)"><text font-size="10" x="3" text-anchor="start" fill="#1A1B1D" font-family="Helvetica Neue, Helvetica, Arial, sans-serif">c, tx_prev_month_all_prev_year_total_</text></g><g class="detail expression text-[10px] font-mono" transform="translate(0, 116)"><text font-size="10" x="3" text-anchor="start" fill="#1A1B1D" font-family="Helvetica Neue, Helvetica, Arial, sans-serif">amount_avg, tx_prev_month_all_prev_year_</text></g><g class="detail expression text-[10px] font-mono" transform="translate(0, 130)"><text font-size="10" x="3" text-anchor="start" fill="#1A1B1D" font-family="Helvetica Neue, Helvetica, Arial, sans-serif">montly_freq_avg, SUM(tx.tx_amount) AS </text></g><g class="detail expression text-[10px] font-mono" transform="translate(0, 144)"><text font-size="10" x="3" text-anchor="start" fill="#1A1B1D" font-family="Helvetica Neue, Helvetica, Arial, sans-serif">total_amount_prev_month, COUNT(tx) AS </text></g><g class="detail expression text-[10px] font-mono" transform="translate(0, 158)"><text font-size="10" x="3" text-anchor="start" fill="#1A1B1D" font-family="Helvetica Neue, Helvetica, Arial, sans-serif">monthly_freq_prev_month</text></g><path class="cost" fill="#BB2D00" d="M 252 164 A 8 8 0 0 1 252 164 L 8 164 A 8 8 0 0 1 8 164 Z"/><rect class="b-outline" width="260" rx="8" ry="8" fill="none" stroke-width="1" style="stroke: rgb(187, 190, 195);" height="164"/></g><g class="operator" transform="translate(167.00245666503906, -1022)"><rect class="background" width="260" height="150" rx="8" ry="8" fill="rgb(255, 255, 255)"/><g class="header" pointer-events="all"><path class="banner" d="M 252 0 A 8 8 0 0 1 260 8 L 260 18 A 8 8 0 0 1 260 26 L 0 26 A 8 8 0 0 1 0 18 L 0 8 A 8 8 0 0 1 8 0 Z" style="fill: rgb(44, 42, 52);"/><path class="expand" fill="#FFFFFF" d="M -5 -10 L 8.66 0 L -5 10 Z" transform="translate(13, 13) rotate(90) scale(0.5,0.5)"/><text class="title text-[12px] font-bold" x="26" y="17" fill="#FFFFFF" font-family="Helvetica Neue, Helvetica, Arial, sans-serif">OptionalExpand(All)@neo4j</text></g><g class="detail identifiers text-[10px] font-mono" transform="translate(0, 40)"><text font-size="10" x="3" text-anchor="start" fill="#1A1B1D" font-family="Helvetica Neue, Helvetica, Arial, sans-serif">first_of_previous_month, tx_prev_month_all</text></g><g class="detail identifiers text-[10px] font-mono" transform="translate(0, 54)"><text font-size="10" x="3" text-anchor="start" fill="#1A1B1D" font-family="Helvetica Neue, Helvetica, Arial, sans-serif">_prev_year_montly_freq_avg, anon_1, tx_</text></g><g class="detail identifiers text-[10px] font-mono" transform="translate(0, 68)"><text font-size="10" x="3" text-anchor="start" fill="#1A1B1D" font-family="Helvetica Neue, Helvetica, Arial, sans-serif">prev_month_all_prev_year_total_amount_avg,</text></g><g class="detail identifiers text-[10px] font-mono" transform="translate(0, 82)"><text font-size="10" x="3" text-anchor="start" fill="#1A1B1D" font-family="Helvetica Neue, Helvetica, Arial, sans-serif"> c, tx</text></g><g class="detail padding text-[10px]" transform="translate(0, 96)"><text font-size="10" x="3" text-anchor="start" fill="#1A1B1D" font-family="Helvetica Neue, Helvetica, Arial, sans-serif"/><path class="divider" visibility="visible" d="M 0 -6 L 260 -6" stroke="#DFE1E3"/></g><g class="detail expression text-[10px] font-mono" transform="translate(0, 102)"><text font-size="10" x="3" text-anchor="start" fill="#1A1B1D" font-family="Helvetica Neue, Helvetica, Arial, sans-serif">(c)-[tx:Make_transaction]-&gt;(anon_1) WHERE </text></g><g class="detail expression text-[10px] font-mono" transform="translate(0, 116)"><text font-size="10" x="3" text-anchor="start" fill="#1A1B1D" font-family="Helvetica Neue, Helvetica, Arial, sans-serif">anon_1:Terminal AND tx.tx_date_month = </text></g><g class="detail expression text-[10px] font-mono" transform="translate(0, 130)"><text font-size="10" x="3" text-anchor="start" fill="#1A1B1D" font-family="Helvetica Neue, Helvetica, Arial, sans-serif">first_of_previous_month.month AND tx.tx_</text></g><g class="detail expression text-[10px] font-mono" transform="translate(0, 144)"><text font-size="10" x="3" text-anchor="start" fill="#1A1B1D" font-family="Helvetica Neue, Helvetica, Arial, sans-serif">date_year = first_of_previous_month.year</text></g><path class="cost" fill="#BB2D00" d="M 252 150 A 8 8 0 0 1 252 150 L 8 150 A 8 8 0 0 1 8 150 Z"/><rect class="b-outline" width="260" rx="8" ry="8" fill="none" stroke-width="1" style="stroke: rgb(187, 190, 195);" height="150"/></g><g class="operator" transform="translate(191.4373016357422, -1222)"><rect class="background" width="260" height="150" rx="8" ry="8" fill="rgb(255, 255, 255)"/><g class="header" pointer-events="all"><path class="banner" d="M 252 0 A 8 8 0 0 1 260 8 L 260 18 A 8 8 0 0 1 260 26 L 0 26 A 8 8 0 0 1 0 18 L 0 8 A 8 8 0 0 1 8 0 Z" style="fill: rgb(23, 1, 70);"/><path class="expand" fill="#FFFFFF" d="M -5 -10 L 8.66 0 L -5 10 Z" transform="translate(13, 13) rotate(90) scale(0.5,0.5)"/><text class="title text-[12px] font-bold" x="26" y="17" fill="#FFFFFF" font-family="Helvetica Neue, Helvetica, Arial, sans-serif">EagerAggregation@neo4j</text></g><g class="detail identifiers text-[10px] font-mono" transform="translate(0, 40)"><text font-size="10" x="3" text-anchor="start" fill="#1A1B1D" font-family="Helvetica Neue, Helvetica, Arial, sans-serif">first_of_previous_month, c, tx_prev_month_</text></g><g class="detail identifiers text-[10px] font-mono" transform="translate(0, 54)"><text font-size="10" x="3" text-anchor="start" fill="#1A1B1D" font-family="Helvetica Neue, Helvetica, Arial, sans-serif">all_prev_year_total_amount_avg, tx_prev_</text></g><g class="detail identifiers text-[10px] font-mono" transform="translate(0, 68)"><text font-size="10" x="3" text-anchor="start" fill="#1A1B1D" font-family="Helvetica Neue, Helvetica, Arial, sans-serif">month_all_prev_year_montly_freq_avg</text></g><g class="detail padding text-[10px]" transform="translate(0, 82)"><text font-size="10" x="3" text-anchor="start" fill="#1A1B1D" font-family="Helvetica Neue, Helvetica, Arial, sans-serif"/><path class="divider" visibility="visible" d="M 0 -6 L 260 -6" stroke="#DFE1E3"/></g><g class="detail expression text-[10px] font-mono" transform="translate(0, 88)"><text font-size="10" x="3" text-anchor="start" fill="#1A1B1D" font-family="Helvetica Neue, Helvetica, Arial, sans-serif">first_of_previous_month, c, AVG(tx_prev_</text></g><g class="detail expression text-[10px] font-mono" transform="translate(0, 102)"><text font-size="10" x="3" text-anchor="start" fill="#1A1B1D" font-family="Helvetica Neue, Helvetica, Arial, sans-serif">month_prev_year_total_amount) AS tx_prev_</text></g><g class="detail expression text-[10px] font-mono" transform="translate(0, 116)"><text font-size="10" x="3" text-anchor="start" fill="#1A1B1D" font-family="Helvetica Neue, Helvetica, Arial, sans-serif">month_all_prev_year_total_amount_avg, AVG(</text></g><g class="detail expression text-[10px] font-mono" transform="translate(0, 130)"><text font-size="10" x="3" text-anchor="start" fill="#1A1B1D" font-family="Helvetica Neue, Helvetica, Arial, sans-serif">tx_prev_month_prev_year_montly_freq) AS tx</text></g><g class="detail expression text-[10px] font-mono" transform="translate(0, 144)"><text font-size="10" x="3" text-anchor="start" fill="#1A1B1D" font-family="Helvetica Neue, Helvetica, Arial, sans-serif">_prev_month_all_prev_year_montly_freq_avg</text></g><path class="cost" fill="#BB2D00" d="M 252 150 A 8 8 0 0 1 252 150 L 8 150 A 8 8 0 0 1 8 150 Z"/><rect class="b-outline" width="260" rx="8" ry="8" fill="none" stroke-width="1" style="stroke: rgb(187, 190, 195);" height="150"/></g><g class="operator" transform="translate(219.8037567138672, -1422)"><rect class="background" width="260" height="150" rx="8" ry="8" fill="rgb(255, 255, 255)"/><g class="header" pointer-events="all"><path class="banner" d="M 252 0 A 8 8 0 0 1 260 8 L 260 18 A 8 8 0 0 1 260 26 L 0 26 A 8 8 0 0 1 0 18 L 0 8 A 8 8 0 0 1 8 0 Z" style="fill: rgb(160, 123, 236);"/><path class="expand" fill="#000000" d="M -5 -10 L 8.66 0 L -5 10 Z" transform="translate(13, 13) rotate(90) scale(0.5,0.5)"/><text class="title text-[12px] font-bold" x="26" y="17" fill="#000000" font-family="Helvetica Neue, Helvetica, Arial, sans-serif">Projection@neo4j</text></g><g class="detail identifiers text-[10px] font-mono" transform="translate(0, 40)"><text font-size="10" x="3" text-anchor="start" fill="#1A1B1D" font-family="Helvetica Neue, Helvetica, Arial, sans-serif">first_of_previous_month, anon_2, c, year, </text></g><g class="detail identifiers text-[10px] font-mono" transform="translate(0, 54)"><text font-size="10" x="3" text-anchor="start" fill="#1A1B1D" font-family="Helvetica Neue, Helvetica, Arial, sans-serif">tx_prev_month_prev_year_total_amount, tx_</text></g><g class="detail identifiers text-[10px] font-mono" transform="translate(0, 68)"><text font-size="10" x="3" text-anchor="start" fill="#1A1B1D" font-family="Helvetica Neue, Helvetica, Arial, sans-serif">prev_month_prev_year_montly_freq, anon_3</text></g><g class="detail padding text-[10px]" transform="translate(0, 82)"><text font-size="10" x="3" text-anchor="start" fill="#1A1B1D" font-family="Helvetica Neue, Helvetica, Arial, sans-serif"/><path class="divider" visibility="visible" d="M 0 -6 L 260 -6" stroke="#DFE1E3"/></g><g class="detail expression text-[10px] font-mono" transform="translate(0, 88)"><text font-size="10" x="3" text-anchor="start" fill="#1A1B1D" font-family="Helvetica Neue, Helvetica, Arial, sans-serif">CASE
  WHEN anon_3 &gt; $autoint_5 THEN anon_</text></g><g class="detail expression text-[10px] font-mono" transform="translate(0, 102)"><text font-size="10" x="3" text-anchor="start" fill="#1A1B1D" font-family="Helvetica Neue, Helvetica, Arial, sans-serif">3
  ELSE NULL
END AS tx_prev_month_prev_</text></g><g class="detail expression text-[10px] font-mono" transform="translate(0, 116)"><text font-size="10" x="3" text-anchor="start" fill="#1A1B1D" font-family="Helvetica Neue, Helvetica, Arial, sans-serif">year_montly_freq, CASE
  WHEN anon_3 &gt; $</text></g><g class="detail expression text-[10px] font-mono" transform="translate(0, 130)"><text font-size="10" x="3" text-anchor="start" fill="#1A1B1D" font-family="Helvetica Neue, Helvetica, Arial, sans-serif">autoint_4 THEN anon_2
  ELSE NULL
END AS </text></g><g class="detail expression text-[10px] font-mono" transform="translate(0, 144)"><text font-size="10" x="3" text-anchor="start" fill="#1A1B1D" font-family="Helvetica Neue, Helvetica, Arial, sans-serif">tx_prev_month_prev_year_total_amount</text></g><path class="cost" fill="#BB2D00" d="M 252 150 A 8 8 0 0 1 252 150 L 8 150 A 8 8 0 0 1 8 150 Z"/><rect class="b-outline" width="260" rx="8" ry="8" fill="none" stroke-width="1" style="stroke: rgb(187, 190, 195);" height="150"/></g><g class="operator" transform="translate(251.58383178710938, -1608)"><rect class="background" width="260" height="136" rx="8" ry="8" fill="rgb(255, 255, 255)"/><g class="header" pointer-events="all"><path class="banner" d="M 252 0 A 8 8 0 0 1 260 8 L 260 18 A 8 8 0 0 1 260 26 L 0 26 A 8 8 0 0 1 0 18 L 0 8 A 8 8 0 0 1 8 0 Z" style="fill: rgb(23, 1, 70);"/><path class="expand" fill="#FFFFFF" d="M -5 -10 L 8.66 0 L -5 10 Z" transform="translate(13, 13) rotate(90) scale(0.5,0.5)"/><text class="title text-[12px] font-bold" x="26" y="17" fill="#FFFFFF" font-family="Helvetica Neue, Helvetica, Arial, sans-serif">EagerAggregation@neo4j</text></g><g class="detail identifiers text-[10px] font-mono" transform="translate(0, 40)"><text font-size="10" x="3" text-anchor="start" fill="#1A1B1D" font-family="Helvetica Neue, Helvetica, Arial, sans-serif">first_of_previous_month, anon_2, year, </text></g><g class="detail identifiers text-[10px] font-mono" transform="translate(0, 54)"><text font-size="10" x="3" text-anchor="start" fill="#1A1B1D" font-family="Helvetica Neue, Helvetica, Arial, sans-serif">anon_3, c</text></g><g class="detail padding text-[10px]" transform="translate(0, 68)"><text font-size="10" x="3" text-anchor="start" fill="#1A1B1D" font-family="Helvetica Neue, Helvetica, Arial, sans-serif"/><path class="divider" visibility="visible" d="M 0 -6 L 260 -6" stroke="#DFE1E3"/></g><g class="detail expression text-[10px] font-mono" transform="translate(0, 74)"><text font-size="10" x="3" text-anchor="start" fill="#1A1B1D" font-family="Helvetica Neue, Helvetica, Arial, sans-serif">first_of_previous_month, cache[tx_prev_</text></g><g class="detail expression text-[10px] font-mono" transform="translate(0, 88)"><text font-size="10" x="3" text-anchor="start" fill="#1A1B1D" font-family="Helvetica Neue, Helvetica, Arial, sans-serif">month_all_prev_year.tx_date_year] AS year,</text></g><g class="detail expression text-[10px] font-mono" transform="translate(0, 102)"><text font-size="10" x="3" text-anchor="start" fill="#1A1B1D" font-family="Helvetica Neue, Helvetica, Arial, sans-serif"> c, SUM(tx_prev_month_all_prev_year.tx_</text></g><g class="detail expression text-[10px] font-mono" transform="translate(0, 116)"><text font-size="10" x="3" text-anchor="start" fill="#1A1B1D" font-family="Helvetica Neue, Helvetica, Arial, sans-serif">amount) AS anon_2, COUNT(tx_prev_month_all</text></g><g class="detail expression text-[10px] font-mono" transform="translate(0, 130)"><text font-size="10" x="3" text-anchor="start" fill="#1A1B1D" font-family="Helvetica Neue, Helvetica, Arial, sans-serif">_prev_year) AS anon_3</text></g><path class="cost" fill="#BB2D00" d="M 252 136 A 8 8 0 0 1 252 136 L 8 136 A 8 8 0 0 1 8 136 Z"/><rect class="b-outline" width="260" rx="8" ry="8" fill="none" stroke-width="1" style="stroke: rgb(187, 190, 195);" height="136"/></g><g class="operator" transform="translate(286.2760925292969, -1718)"><rect class="background" width="260" height="60" rx="8" ry="8" fill="rgb(255, 255, 255)"/><g class="header" pointer-events="all"><path class="banner" d="M 252 0 A 8 8 0 0 1 260 8 L 260 18 A 8 8 0 0 1 260 26 L 0 26 A 8 8 0 0 1 0 18 L 0 8 A 8 8 0 0 1 8 0 Z" style="fill: rgb(75, 40, 148);"/><path class="expand" fill="#FFFFFF" d="M -5 -10 L 8.66 0 L -5 10 Z" transform="translate(13, 13) rotate(90) scale(0.5,0.5)"/><text class="title text-[12px] font-bold" x="26" y="17" fill="#FFFFFF" font-family="Helvetica Neue, Helvetica, Arial, sans-serif">Apply@neo4j</text></g><g class="detail identifiers text-[10px] font-mono" transform="translate(0, 40)"><text font-size="10" x="3" text-anchor="start" fill="#1A1B1D" font-family="Helvetica Neue, Helvetica, Arial, sans-serif">first_of_previous_month, c, tx_prev_month_</text></g><g class="detail identifiers text-[10px] font-mono" transform="translate(0, 54)"><text font-size="10" x="3" text-anchor="start" fill="#1A1B1D" font-family="Helvetica Neue, Helvetica, Arial, sans-serif">all_prev_year, anon_0</text></g><path class="cost" fill="#BB2D00" d="M 252 60 A 8 8 0 0 1 252 60 L 8 60 A 8 8 0 0 1 8 60 Z"/><rect class="b-outline" width="260" rx="8" ry="8" fill="none" stroke-width="1" style="stroke: rgb(187, 190, 195);" height="60"/></g><g class="operator" transform="translate(10.723878860473633, -1932)"><rect class="background" width="260" height="122" rx="8" ry="8" fill="rgb(255, 255, 255)"/><g class="header" pointer-events="all"><path class="banner" d="M 252 0 A 8 8 0 0 1 260 8 L 260 18 A 8 8 0 0 1 260 26 L 0 26 A 8 8 0 0 1 0 18 L 0 8 A 8 8 0 0 1 8 0 Z" style="fill: rgb(160, 123, 236);"/><path class="expand" fill="#000000" d="M -5 -10 L 8.66 0 L -5 10 Z" transform="translate(13, 13) rotate(90) scale(0.5,0.5)"/><text class="title text-[12px] font-bold" x="26" y="17" fill="#000000" font-family="Helvetica Neue, Helvetica, Arial, sans-serif">Projection@neo4j</text></g><g class="detail identifiers text-[10px] font-mono" transform="translate(0, 40)"><text font-size="10" x="3" text-anchor="start" fill="#1A1B1D" font-family="Helvetica Neue, Helvetica, Arial, sans-serif">first_of_previous_month</text></g><g class="detail padding text-[10px]" transform="translate(0, 54)"><text font-size="10" x="3" text-anchor="start" fill="#1A1B1D" font-family="Helvetica Neue, Helvetica, Arial, sans-serif"/><path class="divider" visibility="visible" d="M 0 -6 L 260 -6" stroke="#DFE1E3"/></g><g class="detail expression text-[10px] font-mono" transform="translate(0, 60)"><text font-size="10" x="3" text-anchor="start" fill="#1A1B1D" font-family="Helvetica Neue, Helvetica, Arial, sans-serif">date.truncate($autostring_0, </text></g><g class="detail expression text-[10px] font-mono" transform="translate(0, 74)"><text font-size="10" x="3" text-anchor="start" fill="#1A1B1D" font-family="Helvetica Neue, Helvetica, Arial, sans-serif">RuntimeConstant(date($autostring_1 + $</text></g><g class="detail expression text-[10px] font-mono" transform="translate(0, 88)"><text font-size="10" x="3" text-anchor="start" fill="#1A1B1D" font-family="Helvetica Neue, Helvetica, Arial, sans-serif">autostring_2))) - RuntimeConstant(duration</text></g><g class="detail expression text-[10px] font-mono" transform="translate(0, 102)"><text font-size="10" x="3" text-anchor="start" fill="#1A1B1D" font-family="Helvetica Neue, Helvetica, Arial, sans-serif">({months: $autoint_3})) AS first_of_</text></g><g class="detail expression text-[10px] font-mono" transform="translate(0, 116)"><text font-size="10" x="3" text-anchor="start" fill="#1A1B1D" font-family="Helvetica Neue, Helvetica, Arial, sans-serif">previous_month</text></g><path class="cost" fill="#BB2D00" d="M 252 122 A 8 8 0 0 1 252 122 L 8 122 A 8 8 0 0 1 8 122 Z"/><rect class="b-outline" width="260" rx="8" ry="8" fill="none" stroke-width="1" style="stroke: rgb(187, 190, 195);" height="122"/></g><g class="operator" transform="translate(357.1014404296875, -1932)"><rect class="background" width="260" height="164" rx="8" ry="8" fill="rgb(255, 255, 255)"/><g class="header" pointer-events="all"><path class="banner" d="M 252 0 A 8 8 0 0 1 260 8 L 260 18 A 8 8 0 0 1 260 26 L 0 26 A 8 8 0 0 1 0 18 L 0 8 A 8 8 0 0 1 8 0 Z" style="fill: rgb(44, 42, 52);"/><path class="expand" fill="#FFFFFF" d="M -5 -10 L 8.66 0 L -5 10 Z" transform="translate(13, 13) rotate(90) scale(0.5,0.5)"/><text class="title text-[12px] font-bold" x="26" y="17" fill="#FFFFFF" font-family="Helvetica Neue, Helvetica, Arial, sans-serif">OptionalExpand(All)@neo4j</text></g><g class="detail identifiers text-[10px] font-mono" transform="translate(0, 40)"><text font-size="10" x="3" text-anchor="start" fill="#1A1B1D" font-family="Helvetica Neue, Helvetica, Arial, sans-serif">first_of_previous_month, c, tx_prev_month_</text></g><g class="detail identifiers text-[10px] font-mono" transform="translate(0, 54)"><text font-size="10" x="3" text-anchor="start" fill="#1A1B1D" font-family="Helvetica Neue, Helvetica, Arial, sans-serif">all_prev_year, anon_0</text></g><g class="detail padding text-[10px]" transform="translate(0, 68)"><text font-size="10" x="3" text-anchor="start" fill="#1A1B1D" font-family="Helvetica Neue, Helvetica, Arial, sans-serif"/><path class="divider" visibility="visible" d="M 0 -6 L 260 -6" stroke="#DFE1E3"/></g><g class="detail expression text-[10px] font-mono" transform="translate(0, 74)"><text font-size="10" x="3" text-anchor="start" fill="#1A1B1D" font-family="Helvetica Neue, Helvetica, Arial, sans-serif">(c)-[tx_prev_month_all_prev_year:Make_</text></g><g class="detail expression text-[10px] font-mono" transform="translate(0, 88)"><text font-size="10" x="3" text-anchor="start" fill="#1A1B1D" font-family="Helvetica Neue, Helvetica, Arial, sans-serif">transaction]-&gt;(anon_0) WHERE anon_0:</text></g><g class="detail expression text-[10px] font-mono" transform="translate(0, 102)"><text font-size="10" x="3" text-anchor="start" fill="#1A1B1D" font-family="Helvetica Neue, Helvetica, Arial, sans-serif">Terminal AND tx_prev_month_all_prev_year.</text></g><g class="detail expression text-[10px] font-mono" transform="translate(0, 116)"><text font-size="10" x="3" text-anchor="start" fill="#1A1B1D" font-family="Helvetica Neue, Helvetica, Arial, sans-serif">tx_date_month = first_of_previous_month.</text></g><g class="detail expression text-[10px] font-mono" transform="translate(0, 130)"><text font-size="10" x="3" text-anchor="start" fill="#1A1B1D" font-family="Helvetica Neue, Helvetica, Arial, sans-serif">month AND cache[tx_prev_month_all_prev_</text></g><g class="detail expression text-[10px] font-mono" transform="translate(0, 144)"><text font-size="10" x="3" text-anchor="start" fill="#1A1B1D" font-family="Helvetica Neue, Helvetica, Arial, sans-serif">year.tx_date_year] &lt; first_of_previous_</text></g><g class="detail expression text-[10px] font-mono" transform="translate(0, 158)"><text font-size="10" x="3" text-anchor="start" fill="#1A1B1D" font-family="Helvetica Neue, Helvetica, Arial, sans-serif">month.year</text></g><path class="cost" fill="#BB2D00" d="M 252 164 A 8 8 0 0 1 252 164 L 8 164 A 8 8 0 0 1 8 164 Z"/><rect class="b-outline" width="260" rx="8" ry="8" fill="none" stroke-width="1" style="stroke: rgb(187, 190, 195);" height="164"/></g><g class="operator" transform="translate(354.99481201171875, -2076)"><rect class="background" width="260" height="94" rx="8" ry="8" fill="rgb(255, 255, 255)"/><g class="header" pointer-events="all"><path class="banner" d="M 252 0 A 8 8 0 0 1 260 8 L 260 18 A 8 8 0 0 1 260 26 L 0 26 A 8 8 0 0 1 0 18 L 0 8 A 8 8 0 0 1 8 0 Z" style="fill: rgb(204, 180, 255);"/><path class="expand" fill="#000000" d="M -5 -10 L 8.66 0 L -5 10 Z" transform="translate(13, 13) rotate(90) scale(0.5,0.5)"/><text class="title text-[12px] font-bold" x="26" y="17" fill="#000000" font-family="Helvetica Neue, Helvetica, Arial, sans-serif">NodeIndexScan@neo4j</text></g><g class="detail identifiers text-[10px] font-mono" transform="translate(0, 40)"><text font-size="10" x="3" text-anchor="start" fill="#1A1B1D" font-family="Helvetica Neue, Helvetica, Arial, sans-serif">first_of_previous_month, c</text></g><g class="detail padding text-[10px]" transform="translate(0, 54)"><text font-size="10" x="3" text-anchor="start" fill="#1A1B1D" font-family="Helvetica Neue, Helvetica, Arial, sans-serif"/><path class="divider" visibility="visible" d="M 0 -6 L 260 -6" stroke="#DFE1E3"/></g><g class="detail expression text-[10px] font-mono" transform="translate(0, 60)"><text font-size="10" x="3" text-anchor="start" fill="#1A1B1D" font-family="Helvetica Neue, Helvetica, Arial, sans-serif">RANGE INDEX c:Customer(customer_id) WHERE </text></g><g class="detail expression text-[10px] font-mono" transform="translate(0, 74)"><text font-size="10" x="3" text-anchor="start" fill="#1A1B1D" font-family="Helvetica Neue, Helvetica, Arial, sans-serif">customer_id IS NOT NULL, cache[c.customer_</text></g><g class="detail expression text-[10px] font-mono" transform="translate(0, 88)"><text font-size="10" x="3" text-anchor="start" fill="#1A1B1D" font-family="Helvetica Neue, Helvetica, Arial, sans-serif">id]</text></g><path class="cost" fill="#BB2D00" d="M 252 94 A 8 8 0 0 1 252 94 L 8 94 A 8 8 0 0 1 8 94 Z"/><rect class="b-outline" width="260" rx="8" ry="8" fill="none" stroke-width="1" style="stroke: rgb(187, 190, 195);" height="94"/></g></g></svg>